<svg xmlns="http://www.w3.org/2000/svg" version="1.1" xmlns:xlink="http://www.w3.org/1999/xlink" xmlns:svgjs="http://svgjs.dev/svgjs" width="1440" height="560" preserveAspectRatio="none" viewBox="0 0 1440 560"><g mask="url(&quot;#SvgjsMask1201&quot;)" fill="none"><path d="M1536 560L0 560 L0 334.62Q31.04 245.66, 120 276.71Q170.55 255.26, 192 305.81Q271.41 265.22, 312 344.63Q313.94 274.57, 384 276.52Q437.52 210.04, 504 263.56Q580.19 219.75, 624 295.94Q693.11 245.04, 744 314.15Q782.71 232.86, 864 271.57Q910.63 246.2, 936 292.84Q1005.1 241.94, 1056 311.04Q1136.62 271.65, 1176 352.27Q1224.68 280.95, 1296 329.63Q1335.79 249.42, 1416 289.21Q1467.08 220.29, 1536 271.37z" fill="rgba(249, 168, 38, 1)"></path><path d="M1488 560L0 560 L0 375.4Q66.87 370.27, 72 437.14Q90.04 335.18, 192 353.22Q265.91 307.13, 312 381.04Q395.96 345, 432 428.96Q486.84 363.8, 552 418.64Q574 320.63, 672 342.63Q717.03 315.66, 744 360.69Q836.77 333.46, 864 426.23Q882.98 325.21, 984 344.19Q1029.73 317.92, 1056 363.65Q1141.97 329.62, 1176 415.58Q1203.88 323.47, 1296 351.35Q1372.63 307.98, 1416 384.61Q1429.69 326.3, 1488 339.99z" fill="rgba(249, 168, 38, 1)"></path><path d="M1536 560L0 560 L0 439.96Q79.53 399.49, 120 479.02Q167.53 454.55, 192 502.08Q212.18 402.26, 312 422.44Q387.96 378.4, 432 454.36Q459.52 409.88, 504 437.41Q557.74 419.15, 576 472.9Q606.07 430.96, 648 461.03Q734.13 427.16, 768 513.3Q791.83 417.13, 888 440.95Q910.87 391.82, 960 414.69Q1007.91 390.6, 1032 438.51Q1102.96 389.47, 1152 460.43Q1194.03 430.46, 1224 472.48Q1265.99 442.47, 1296 484.45Q1321.93 390.38, 1416 416.32Q1489.65 369.98, 1536 443.63z" fill="rgba(249, 168, 38, 1)"></path><path d="M1536 560L0 560 L0 550.4Q43.78 522.18, 72 565.97Q103.68 477.65, 192 509.34Q222.6 467.94, 264 498.54Q329 491.54, 336 556.54Q348.67 497.21, 408 509.88Q462.35 444.23, 528 498.58Q592.13 490.71, 600 554.84Q602.12 484.96, 672 487.08Q760.21 455.29, 792 543.51Q829.97 461.48, 912 499.45Q941.6 457.05, 984 486.65Q1033.21 463.86, 1056 513.07Q1151.61 488.67, 1176 584.28Q1193.89 482.17, 1296 500.07Q1361.58 445.65, 1416 511.23Q1481.59 456.82, 1536 522.41z" fill="white"></path></g><defs><mask id="SvgjsMask1201"><rect width="1440" height="560" fill="#ffffff"></rect></mask></defs></svg>