<svg xmlns="http://www.w3.org/2000/svg" version="1.1" xmlns:xlink="http://www.w3.org/1999/xlink" xmlns:svgjs="http://svgjs.dev/svgjs" width="1440" height="560" preserveAspectRatio="none" viewBox="0 0 1440 560"><g mask="url(&quot;#SvgjsMask1087&quot;)" fill="none"><rect width="1440" height="560" x="0" y="0" fill="rgba(245, 189, 90, 1)"></rect><path d="M-39.84 377.06L-39.84 377.06" stroke="rgba(135, 32, 32, 1)" stroke-width="1.5"></path><path d="M-39.84 377.06L83.26 345.07" stroke="rgba(135, 32, 32, 1)" stroke-width="1.5"></path><path d="M-39.84 377.06L46.12 498.91" stroke="rgba(135, 32, 32, 1)" stroke-width="1.5"></path><path d="M-39.84 377.06L-64.93 551.45" stroke="rgba(135, 32, 32, 1)" stroke-width="1.5"></path><path d="M-39.84 377.06L250.95 339.32" stroke="rgba(135, 32, 32, 1)" stroke-width="1.5"></path><path d="M-39.84 377.06L249.29 501.05" stroke="rgba(135, 32, 32, 1)" stroke-width="1.5"></path><path d="M-39.84 377.06L-76.79 710.7" stroke="rgba(135, 32, 32, 1)" stroke-width="1.5"></path><path d="M-64.93 551.45L-64.93 551.45" stroke="rgba(135, 32, 32, 1)" stroke-width="1.5"></path><path d="M-64.93 551.45L46.12 498.91" stroke="rgba(135, 32, 32, 1)" stroke-width="1.5"></path><path d="M-64.93 551.45L-76.79 710.7" stroke="rgba(135, 32, 32, 1)" stroke-width="1.5"></path><path d="M-76.79 710.7L-76.79 710.7" stroke="rgba(135, 32, 32, 1)" stroke-width="1.5"></path><path d="M-76.79 710.7L77.72 708.36" stroke="rgba(135, 32, 32, 1)" stroke-width="1.5"></path><path d="M-76.79 710.7L46.12 498.91" stroke="rgba(135, 32, 32, 1)" stroke-width="1.5"></path><path d="M-76.79 710.7L253.26 677.33" stroke="rgba(135, 32, 32, 1)" stroke-width="1.5"></path><path d="M-76.79 710.7L249.29 501.05" stroke="rgba(135, 32, 32, 1)" stroke-width="1.5"></path><path d="M83.26 345.07L83.26 345.07" stroke="rgba(135, 32, 32, 1)" stroke-width="1.5"></path><path d="M83.26 345.07L46.12 498.91" stroke="rgba(135, 32, 32, 1)" stroke-width="1.5"></path><path d="M83.26 345.07L250.95 339.32" stroke="rgba(135, 32, 32, 1)" stroke-width="1.5"></path><path d="M83.26 345.07L249.29 501.05" stroke="rgba(135, 32, 32, 1)" stroke-width="1.5"></path><path d="M83.26 345.07L-64.93 551.45" stroke="rgba(135, 32, 32, 1)" stroke-width="1.5"></path><path d="M46.12 498.91L46.12 498.91" stroke="rgba(135, 32, 32, 1)" stroke-width="1.5"></path><path d="M77.72 708.36L77.72 708.36" stroke="rgba(135, 32, 32, 1)" stroke-width="1.5"></path><path d="M77.72 708.36L253.26 677.33" stroke="rgba(135, 32, 32, 1)" stroke-width="1.5"></path><path d="M77.72 708.36L46.12 498.91" stroke="rgba(135, 32, 32, 1)" stroke-width="1.5"></path><path d="M250.95 339.32L250.95 339.32" stroke="rgba(135, 32, 32, 1)" stroke-width="1.5"></path><path d="M250.95 339.32L347.69 380.14" stroke="rgba(135, 32, 32, 1)" stroke-width="1.5"></path><path d="M250.95 339.32L249.29 501.05" stroke="rgba(135, 32, 32, 1)" stroke-width="1.5"></path><path d="M250.95 339.32L351.03 550.2" stroke="rgba(135, 32, 32, 1)" stroke-width="1.5"></path><path d="M249.29 501.05L249.29 501.05" stroke="rgba(135, 32, 32, 1)" stroke-width="1.5"></path><path d="M249.29 501.05L351.03 550.2" stroke="rgba(135, 32, 32, 1)" stroke-width="1.5"></path><path d="M249.29 501.05L347.69 380.14" stroke="rgba(135, 32, 32, 1)" stroke-width="1.5"></path><path d="M249.29 501.05L253.26 677.33" stroke="rgba(135, 32, 32, 1)" stroke-width="1.5"></path><path d="M253.26 677.33L253.26 677.33" stroke="rgba(135, 32, 32, 1)" stroke-width="1.5"></path><path d="M253.26 677.33L360.04 693.2" stroke="rgba(135, 32, 32, 1)" stroke-width="1.5"></path><path d="M253.26 677.33L351.03 550.2" stroke="rgba(135, 32, 32, 1)" stroke-width="1.5"></path><path d="M253.26 677.33L46.12 498.91" stroke="rgba(135, 32, 32, 1)" stroke-width="1.5"></path><path d="M347.69 380.14L347.69 380.14" stroke="rgba(135, 32, 32, 1)" stroke-width="1.5"></path><path d="M347.69 380.14L351.03 550.2" stroke="rgba(135, 32, 32, 1)" stroke-width="1.5"></path><path d="M351.03 550.2L351.03 550.2" stroke="rgba(135, 32, 32, 1)" stroke-width="1.5"></path><path d="M351.03 550.2L360.04 693.2" stroke="rgba(135, 32, 32, 1)" stroke-width="1.5"></path><path d="M360.04 693.2L360.04 693.2" stroke="rgba(135, 32, 32, 1)" stroke-width="1.5"></path><path d="M699.7 225.44L699.7 225.44" stroke="rgba(135, 32, 32, 1)" stroke-width="1.5"></path><path d="M699.7 225.44L845.4 248.35" stroke="rgba(135, 32, 32, 1)" stroke-width="1.5"></path><path d="M699.7 225.44L708.68 401.68" stroke="rgba(135, 32, 32, 1)" stroke-width="1.5"></path><path d="M699.7 225.44L807.61 384.17" stroke="rgba(135, 32, 32, 1)" stroke-width="1.5"></path><path d="M699.7 225.44L940.15 199.93" stroke="rgba(135, 32, 32, 1)" stroke-width="1.5"></path><path d="M699.7 225.44L989.41 91.55" stroke="rgba(135, 32, 32, 1)" stroke-width="1.5"></path><path d="M699.7 225.44L647.57 548.3" stroke="rgba(135, 32, 32, 1)" stroke-width="1.5"></path><path d="M708.68 401.68L708.68 401.68" stroke="rgba(135, 32, 32, 1)" stroke-width="1.5"></path><path d="M708.68 401.68L807.61 384.17" stroke="rgba(135, 32, 32, 1)" stroke-width="1.5"></path><path d="M708.68 401.68L647.57 548.3" stroke="rgba(135, 32, 32, 1)" stroke-width="1.5"></path><path d="M708.68 401.68L845.4 248.35" stroke="rgba(135, 32, 32, 1)" stroke-width="1.5"></path><path d="M708.68 401.68L662.25 685.04" stroke="rgba(135, 32, 32, 1)" stroke-width="1.5"></path><path d="M708.68 401.68L963.96 549.13" stroke="rgba(135, 32, 32, 1)" stroke-width="1.5"></path><path d="M647.57 548.3L647.57 548.3" stroke="rgba(135, 32, 32, 1)" stroke-width="1.5"></path><path d="M647.57 548.3L662.25 685.04" stroke="rgba(135, 32, 32, 1)" stroke-width="1.5"></path><path d="M647.57 548.3L807.61 384.17" stroke="rgba(135, 32, 32, 1)" stroke-width="1.5"></path><path d="M662.25 685.04L662.25 685.04" stroke="rgba(135, 32, 32, 1)" stroke-width="1.5"></path><path d="M662.25 685.04L853.04 669.05" stroke="rgba(135, 32, 32, 1)" stroke-width="1.5"></path><path d="M845.4 248.35L845.4 248.35" stroke="rgba(135, 32, 32, 1)" stroke-width="1.5"></path><path d="M845.4 248.35L940.15 199.93" stroke="rgba(135, 32, 32, 1)" stroke-width="1.5"></path><path d="M845.4 248.35L807.61 384.17" stroke="rgba(135, 32, 32, 1)" stroke-width="1.5"></path><path d="M845.4 248.35L1008.97 343.4" stroke="rgba(135, 32, 32, 1)" stroke-width="1.5"></path><path d="M807.61 384.17L807.61 384.17" stroke="rgba(135, 32, 32, 1)" stroke-width="1.5"></path><path d="M853.04 669.05L853.04 669.05" stroke="rgba(135, 32, 32, 1)" stroke-width="1.5"></path><path d="M853.04 669.05L967.4 646.96" stroke="rgba(135, 32, 32, 1)" stroke-width="1.5"></path><path d="M853.04 669.05L963.96 549.13" stroke="rgba(135, 32, 32, 1)" stroke-width="1.5"></path><path d="M982.47 -94.66L982.47 -94.66" stroke="rgba(135, 32, 32, 1)" stroke-width="1.5"></path><path d="M982.47 -94.66L1142.11 -101.08" stroke="rgba(135, 32, 32, 1)" stroke-width="1.5"></path><path d="M982.47 -94.66L989.41 91.55" stroke="rgba(135, 32, 32, 1)" stroke-width="1.5"></path><path d="M989.41 91.55L989.41 91.55" stroke="rgba(135, 32, 32, 1)" stroke-width="1.5"></path><path d="M989.41 91.55L1090.5 85.79" stroke="rgba(135, 32, 32, 1)" stroke-width="1.5"></path><path d="M989.41 91.55L940.15 199.93" stroke="rgba(135, 32, 32, 1)" stroke-width="1.5"></path><path d="M989.41 91.55L1109.31 206.74" stroke="rgba(135, 32, 32, 1)" stroke-width="1.5"></path><path d="M989.41 91.55L845.4 248.35" stroke="rgba(135, 32, 32, 1)" stroke-width="1.5"></path><path d="M940.15 199.93L940.15 199.93" stroke="rgba(135, 32, 32, 1)" stroke-width="1.5"></path><path d="M1008.97 343.4L1008.97 343.4" stroke="rgba(135, 32, 32, 1)" stroke-width="1.5"></path><path d="M1008.97 343.4L1091.73 348.93" stroke="rgba(135, 32, 32, 1)" stroke-width="1.5"></path><path d="M1008.97 343.4L940.15 199.93" stroke="rgba(135, 32, 32, 1)" stroke-width="1.5"></path><path d="M1008.97 343.4L1109.31 206.74" stroke="rgba(135, 32, 32, 1)" stroke-width="1.5"></path><path d="M963.96 549.13L963.96 549.13" stroke="rgba(135, 32, 32, 1)" stroke-width="1.5"></path><path d="M963.96 549.13L967.4 646.96" stroke="rgba(135, 32, 32, 1)" stroke-width="1.5"></path><path d="M963.96 549.13L1089.3 554.31" stroke="rgba(135, 32, 32, 1)" stroke-width="1.5"></path><path d="M963.96 549.13L1008.97 343.4" stroke="rgba(135, 32, 32, 1)" stroke-width="1.5"></path><path d="M967.4 646.96L967.4 646.96" stroke="rgba(135, 32, 32, 1)" stroke-width="1.5"></path><path d="M1142.11 -101.08L1142.11 -101.08" stroke="rgba(135, 32, 32, 1)" stroke-width="1.5"></path><path d="M1142.11 -101.08L1248.33 -85.13" stroke="rgba(135, 32, 32, 1)" stroke-width="1.5"></path><path d="M1142.11 -101.08L1090.5 85.79" stroke="rgba(135, 32, 32, 1)" stroke-width="1.5"></path><path d="M1090.5 85.79L1090.5 85.79" stroke="rgba(135, 32, 32, 1)" stroke-width="1.5"></path><path d="M1090.5 85.79L1109.31 206.74" stroke="rgba(135, 32, 32, 1)" stroke-width="1.5"></path><path d="M1090.5 85.79L940.15 199.93" stroke="rgba(135, 32, 32, 1)" stroke-width="1.5"></path><path d="M1090.5 85.79L982.47 -94.66" stroke="rgba(135, 32, 32, 1)" stroke-width="1.5"></path><path d="M1109.31 206.74L1109.31 206.74" stroke="rgba(135, 32, 32, 1)" stroke-width="1.5"></path><path d="M1109.31 206.74L1242.49 251.36" stroke="rgba(135, 32, 32, 1)" stroke-width="1.5"></path><path d="M1091.73 348.93L1091.73 348.93" stroke="rgba(135, 32, 32, 1)" stroke-width="1.5"></path><path d="M1089.3 554.31L1089.3 554.31" stroke="rgba(135, 32, 32, 1)" stroke-width="1.5"></path><path d="M1089.3 554.31L1150.12 660.08" stroke="rgba(135, 32, 32, 1)" stroke-width="1.5"></path><path d="M1089.3 554.31L967.4 646.96" stroke="rgba(135, 32, 32, 1)" stroke-width="1.5"></path><path d="M1150.12 660.08L1150.12 660.08" stroke="rgba(135, 32, 32, 1)" stroke-width="1.5"></path><path d="M1150.12 660.08L1271.86 668.31" stroke="rgba(135, 32, 32, 1)" stroke-width="1.5"></path><path d="M1150.12 660.08L967.4 646.96" stroke="rgba(135, 32, 32, 1)" stroke-width="1.5"></path><path d="M1150.12 660.08L1281.68 503.77" stroke="rgba(135, 32, 32, 1)" stroke-width="1.5"></path><path d="M1248.33 -85.13L1248.33 -85.13" stroke="rgba(135, 32, 32, 1)" stroke-width="1.5"></path><path d="M1248.33 -85.13L1428.34 -97.07" stroke="rgba(135, 32, 32, 1)" stroke-width="1.5"></path><path d="M1248.33 -85.13L1413.87 52.66" stroke="rgba(135, 32, 32, 1)" stroke-width="1.5"></path><path d="M1248.33 -85.13L1090.5 85.79" stroke="rgba(135, 32, 32, 1)" stroke-width="1.5"></path><path d="M1248.33 -85.13L982.47 -94.66" stroke="rgba(135, 32, 32, 1)" stroke-width="1.5"></path><path d="M1242.49 251.36L1242.49 251.36" stroke="rgba(135, 32, 32, 1)" stroke-width="1.5"></path><path d="M1242.49 251.36L1303.88 361.28" stroke="rgba(135, 32, 32, 1)" stroke-width="1.5"></path><path d="M1242.49 251.36L1402.93 238.81" stroke="rgba(135, 32, 32, 1)" stroke-width="1.5"></path><path d="M1242.49 251.36L1091.73 348.93" stroke="rgba(135, 32, 32, 1)" stroke-width="1.5"></path><path d="M1242.49 251.36L1389.4 394.5" stroke="rgba(135, 32, 32, 1)" stroke-width="1.5"></path><path d="M1242.49 251.36L1090.5 85.79" stroke="rgba(135, 32, 32, 1)" stroke-width="1.5"></path><path d="M1303.88 361.28L1303.88 361.28" stroke="rgba(135, 32, 32, 1)" stroke-width="1.5"></path><path d="M1303.88 361.28L1389.4 394.5" stroke="rgba(135, 32, 32, 1)" stroke-width="1.5"></path><path d="M1303.88 361.28L1281.68 503.77" stroke="rgba(135, 32, 32, 1)" stroke-width="1.5"></path><path d="M1281.68 503.77L1281.68 503.77" stroke="rgba(135, 32, 32, 1)" stroke-width="1.5"></path><path d="M1281.68 503.77L1416.2 539.03" stroke="rgba(135, 32, 32, 1)" stroke-width="1.5"></path><path d="M1281.68 503.77L1389.4 394.5" stroke="rgba(135, 32, 32, 1)" stroke-width="1.5"></path><path d="M1281.68 503.77L1271.86 668.31" stroke="rgba(135, 32, 32, 1)" stroke-width="1.5"></path><path d="M1271.86 668.31L1271.86 668.31" stroke="rgba(135, 32, 32, 1)" stroke-width="1.5"></path><path d="M1428.34 -97.07L1428.34 -97.07" stroke="rgba(135, 32, 32, 1)" stroke-width="1.5"></path><path d="M1428.34 -97.07L1413.87 52.66" stroke="rgba(135, 32, 32, 1)" stroke-width="1.5"></path><path d="M1428.34 -97.07L1585.61 -73.41" stroke="rgba(135, 32, 32, 1)" stroke-width="1.5"></path><path d="M1413.87 52.66L1413.87 52.66" stroke="rgba(135, 32, 32, 1)" stroke-width="1.5"></path><path d="M1413.87 52.66L1541.79 111.02" stroke="rgba(135, 32, 32, 1)" stroke-width="1.5"></path><path d="M1413.87 52.66L1402.93 238.81" stroke="rgba(135, 32, 32, 1)" stroke-width="1.5"></path><path d="M1402.93 238.81L1402.93 238.81" stroke="rgba(135, 32, 32, 1)" stroke-width="1.5"></path><path d="M1402.93 238.81L1389.4 394.5" stroke="rgba(135, 32, 32, 1)" stroke-width="1.5"></path><path d="M1402.93 238.81L1303.88 361.28" stroke="rgba(135, 32, 32, 1)" stroke-width="1.5"></path><path d="M1389.4 394.5L1389.4 394.5" stroke="rgba(135, 32, 32, 1)" stroke-width="1.5"></path><path d="M1389.4 394.5L1416.2 539.03" stroke="rgba(135, 32, 32, 1)" stroke-width="1.5"></path><path d="M1416.2 539.03L1416.2 539.03" stroke="rgba(135, 32, 32, 1)" stroke-width="1.5"></path><path d="M1416.2 539.03L1412.06 682.08" stroke="rgba(135, 32, 32, 1)" stroke-width="1.5"></path><path d="M1416.2 539.03L1575.45 540.02" stroke="rgba(135, 32, 32, 1)" stroke-width="1.5"></path><path d="M1412.06 682.08L1412.06 682.08" stroke="rgba(135, 32, 32, 1)" stroke-width="1.5"></path><path d="M1412.06 682.08L1271.86 668.31" stroke="rgba(135, 32, 32, 1)" stroke-width="1.5"></path><path d="M1412.06 682.08L1598.4 690.12" stroke="rgba(135, 32, 32, 1)" stroke-width="1.5"></path><path d="M1412.06 682.08L1575.45 540.02" stroke="rgba(135, 32, 32, 1)" stroke-width="1.5"></path><path d="M1585.61 -73.41L1585.61 -73.41" stroke="rgba(135, 32, 32, 1)" stroke-width="1.5"></path><path d="M1585.61 -73.41L1541.79 111.02" stroke="rgba(135, 32, 32, 1)" stroke-width="1.5"></path><path d="M1585.61 -73.41L1413.87 52.66" stroke="rgba(135, 32, 32, 1)" stroke-width="1.5"></path><path d="M1541.79 111.02L1541.79 111.02" stroke="rgba(135, 32, 32, 1)" stroke-width="1.5"></path><path d="M1541.79 111.02L1586.19 191.46" stroke="rgba(135, 32, 32, 1)" stroke-width="1.5"></path><path d="M1586.19 191.46L1586.19 191.46" stroke="rgba(135, 32, 32, 1)" stroke-width="1.5"></path><path d="M1586.19 191.46L1402.93 238.81" stroke="rgba(135, 32, 32, 1)" stroke-width="1.5"></path><path d="M1586.19 191.46L1584.06 403.78" stroke="rgba(135, 32, 32, 1)" stroke-width="1.5"></path><path d="M1586.19 191.46L1413.87 52.66" stroke="rgba(135, 32, 32, 1)" stroke-width="1.5"></path><path d="M1586.19 191.46L1585.61 -73.41" stroke="rgba(135, 32, 32, 1)" stroke-width="1.5"></path><path d="M1584.06 403.78L1584.06 403.78" stroke="rgba(135, 32, 32, 1)" stroke-width="1.5"></path><path d="M1584.06 403.78L1575.45 540.02" stroke="rgba(135, 32, 32, 1)" stroke-width="1.5"></path><path d="M1584.06 403.78L1389.4 394.5" stroke="rgba(135, 32, 32, 1)" stroke-width="1.5"></path><path d="M1575.45 540.02L1575.45 540.02" stroke="rgba(135, 32, 32, 1)" stroke-width="1.5"></path><path d="M1575.45 540.02L1598.4 690.12" stroke="rgba(135, 32, 32, 1)" stroke-width="1.5"></path><path d="M1598.4 690.12L1598.4 690.12" stroke="rgba(135, 32, 32, 1)" stroke-width="1.5"></path><path d="M1598.4 690.12L1416.2 539.03" stroke="rgba(135, 32, 32, 1)" stroke-width="1.5"></path><path d="M1598.4 690.12L1584.06 403.78" stroke="rgba(135, 32, 32, 1)" stroke-width="1.5"></path><path d="M1598.4 690.12L1271.86 668.31" stroke="rgba(135, 32, 32, 1)" stroke-width="1.5"></path><circle r="5" cx="-39.84" cy="377.06" fill="rgba(135, 32, 32, 1)"></circle><circle r="5" cx="-64.93" cy="551.45" fill="rgba(135, 32, 32, 1)"></circle><circle r="5" cx="-76.79" cy="710.7" fill="rgba(135, 32, 32, 1)"></circle><circle r="5" cx="83.26" cy="345.07" fill="rgba(135, 32, 32, 1)"></circle><circle r="5" cx="46.12" cy="498.91" fill="rgba(135, 32, 32, 1)"></circle><circle r="5" cx="77.72" cy="708.36" fill="rgba(135, 32, 32, 1)"></circle><circle r="5" cx="250.95" cy="339.32" fill="rgba(135, 32, 32, 1)"></circle><circle r="5" cx="249.29" cy="501.05" fill="rgba(135, 32, 32, 1)"></circle><circle r="5" cx="253.26" cy="677.33" fill="rgba(135, 32, 32, 1)"></circle><circle r="5" cx="347.69" cy="380.14" fill="rgba(135, 32, 32, 1)"></circle><circle r="5" cx="351.03" cy="550.2" fill="rgba(135, 32, 32, 1)"></circle><circle r="5" cx="360.04" cy="693.2" fill="rgba(135, 32, 32, 1)"></circle><circle r="5" cx="699.7" cy="225.44" fill="rgba(135, 32, 32, 1)"></circle><circle r="5" cx="708.68" cy="401.68" fill="rgba(135, 32, 32, 1)"></circle><circle r="5" cx="647.57" cy="548.3" fill="rgba(135, 32, 32, 1)"></circle><circle r="5" cx="662.25" cy="685.04" fill="rgba(135, 32, 32, 1)"></circle><circle r="5" cx="845.4" cy="248.35" fill="rgba(135, 32, 32, 1)"></circle><circle r="5" cx="807.61" cy="384.17" fill="rgba(135, 32, 32, 1)"></circle><circle r="5" cx="853.04" cy="669.05" fill="rgba(135, 32, 32, 1)"></circle><circle r="5" cx="982.47" cy="-94.66" fill="rgba(135, 32, 32, 1)"></circle><circle r="5" cx="989.41" cy="91.55" fill="rgba(135, 32, 32, 1)"></circle><circle r="5" cx="940.15" cy="199.93" fill="rgba(135, 32, 32, 1)"></circle><circle r="5" cx="1008.97" cy="343.4" fill="rgba(135, 32, 32, 1)"></circle><circle r="5" cx="963.96" cy="549.13" fill="rgba(135, 32, 32, 1)"></circle><circle r="5" cx="967.4" cy="646.96" fill="rgba(135, 32, 32, 1)"></circle><circle r="5" cx="1142.11" cy="-101.08" fill="rgba(135, 32, 32, 1)"></circle><circle r="5" cx="1090.5" cy="85.79" fill="rgba(135, 32, 32, 1)"></circle><circle r="5" cx="1109.31" cy="206.74" fill="rgba(135, 32, 32, 1)"></circle><circle r="5" cx="1091.73" cy="348.93" fill="rgba(135, 32, 32, 1)"></circle><circle r="5" cx="1089.3" cy="554.31" fill="rgba(135, 32, 32, 1)"></circle><circle r="5" cx="1150.12" cy="660.08" fill="rgba(135, 32, 32, 1)"></circle><circle r="5" cx="1248.33" cy="-85.13" fill="rgba(135, 32, 32, 1)"></circle><circle r="5" cx="1242.49" cy="251.36" fill="rgba(135, 32, 32, 1)"></circle><circle r="5" cx="1303.88" cy="361.28" fill="rgba(135, 32, 32, 1)"></circle><circle r="5" cx="1281.68" cy="503.77" fill="rgba(135, 32, 32, 1)"></circle><circle r="5" cx="1271.86" cy="668.31" fill="rgba(135, 32, 32, 1)"></circle><circle r="5" cx="1428.34" cy="-97.07" fill="rgba(135, 32, 32, 1)"></circle><circle r="5" cx="1413.87" cy="52.66" fill="rgba(135, 32, 32, 1)"></circle><circle r="5" cx="1402.93" cy="238.81" fill="rgba(135, 32, 32, 1)"></circle><circle r="5" cx="1389.4" cy="394.5" fill="rgba(135, 32, 32, 1)"></circle><circle r="5" cx="1416.2" cy="539.03" fill="rgba(135, 32, 32, 1)"></circle><circle r="5" cx="1412.06" cy="682.08" fill="rgba(135, 32, 32, 1)"></circle><circle r="5" cx="1585.61" cy="-73.41" fill="rgba(135, 32, 32, 1)"></circle><circle r="5" cx="1541.79" cy="111.02" fill="rgba(135, 32, 32, 1)"></circle><circle r="5" cx="1586.19" cy="191.46" fill="rgba(135, 32, 32, 1)"></circle><circle r="5" cx="1584.06" cy="403.78" fill="rgba(135, 32, 32, 1)"></circle><circle r="5" cx="1575.45" cy="540.02" fill="rgba(135, 32, 32, 1)"></circle><circle r="5" cx="1598.4" cy="690.12" fill="rgba(135, 32, 32, 1)"></circle><path d="M-47.72 558.38L-47.72 558.38" stroke="hsl(0, 0%, 100%)" stroke-width="1.5"></path><path d="M-47.72 558.38L-94.07 666.3" stroke="hsl(0, 0%, 100%)" stroke-width="1.5"></path><path d="M-47.72 558.38L68.52 505.4" stroke="hsl(0, 0%, 100%)" stroke-width="1.5"></path><path d="M-47.72 558.38L92.4 680.9" stroke="hsl(0, 0%, 100%)" stroke-width="1.5"></path><path d="M-47.72 558.38L189.07 653.46" stroke="hsl(0, 0%, 100%)" stroke-width="1.5"></path><path d="M189.07 653.46L189.07 653.46" stroke="hsl(0, 0%, 100%)" stroke-width="1.5"></path><path d="M189.07 653.46L92.4 680.9" stroke="hsl(0, 0%, 100%)" stroke-width="1.5"></path><path d="M189.07 653.46L258.88 511.83" stroke="hsl(0, 0%, 100%)" stroke-width="1.5"></path><path d="M189.07 653.46L68.52 505.4" stroke="hsl(0, 0%, 100%)" stroke-width="1.5"></path><path d="M673.39 553.56L673.39 553.56" stroke="hsl(0, 0%, 100%)" stroke-width="1.5"></path><path d="M673.39 553.56L541.57 550.75" stroke="hsl(0, 0%, 100%)" stroke-width="1.5"></path><path d="M673.39 553.56L651.13 689.03" stroke="hsl(0, 0%, 100%)" stroke-width="1.5"></path><path d="M1288.82 -58.8L1288.82 -58.8" stroke="hsl(0, 0%, 100%)" stroke-width="1.5"></path><path d="M1288.82 -58.8L1253.59 68.01" stroke="hsl(0, 0%, 100%)" stroke-width="1.5"></path><path d="M1288.82 -58.8L1446.32 -54.41" stroke="hsl(0, 0%, 100%)" stroke-width="1.5"></path><path d="M1288.82 -58.8L1425.52 61.32" stroke="hsl(0, 0%, 100%)" stroke-width="1.5"></path><path d="M1288.82 -58.8L1546.45 45.75" stroke="hsl(0, 0%, 100%)" stroke-width="1.5"></path><path d="M1288.82 -58.8L1248.79 219.89" stroke="hsl(0, 0%, 100%)" stroke-width="1.5"></path><path d="M1288.82 -58.8L1577.76 -53.7" stroke="hsl(0, 0%, 100%)" stroke-width="1.5"></path><path d="M1577.76 -53.7L1577.76 -53.7" stroke="hsl(0, 0%, 100%)" stroke-width="1.5"></path><path d="M1577.76 -53.7L1546.45 45.75" stroke="hsl(0, 0%, 100%)" stroke-width="1.5"></path><path d="M1577.76 -53.7L1446.32 -54.41" stroke="hsl(0, 0%, 100%)" stroke-width="1.5"></path><path d="M1577.76 -53.7L1425.52 61.32" stroke="hsl(0, 0%, 100%)" stroke-width="1.5"></path><path d="M1546.45 45.75L1546.45 45.75" stroke="hsl(0, 0%, 100%)" stroke-width="1.5"></path><path d="M1546.45 45.75L1425.52 61.32" stroke="hsl(0, 0%, 100%)" stroke-width="1.5"></path><path d="M1546.45 45.75L1446.32 -54.41" stroke="hsl(0, 0%, 100%)" stroke-width="1.5"></path><path d="M1546.45 45.75L1408.98 204.51" stroke="hsl(0, 0%, 100%)" stroke-width="1.5"></path><path d="M1546.45 45.75L1546.17 255.96" stroke="hsl(0, 0%, 100%)" stroke-width="1.5"></path><path d="M1538.86 509.13L1538.86 509.13" stroke="hsl(0, 0%, 100%)" stroke-width="1.5"></path><path d="M1538.86 509.13L1392.07 489.12" stroke="hsl(0, 0%, 100%)" stroke-width="1.5"></path><path d="M1538.86 509.13L1558.74 657.55" stroke="hsl(0, 0%, 100%)" stroke-width="1.5"></path><path d="M1538.86 509.13L1586.65 363.21" stroke="hsl(0, 0%, 100%)" stroke-width="1.5"></path><path d="M1538.86 509.13L1427.28 354.17" stroke="hsl(0, 0%, 100%)" stroke-width="1.5"></path><path d="M1538.86 509.13L1425.52 679.85" stroke="hsl(0, 0%, 100%)" stroke-width="1.5"></path><path d="M1538.86 509.13L1546.17 255.96" stroke="hsl(0, 0%, 100%)" stroke-width="1.5"></path><path d="M1558.74 657.55L1558.74 657.55" stroke="hsl(0, 0%, 100%)" stroke-width="1.5"></path><path d="M1558.74 657.55L1425.52 679.85" stroke="hsl(0, 0%, 100%)" stroke-width="1.5"></path><path d="M1558.74 657.55L1392.07 489.12" stroke="hsl(0, 0%, 100%)" stroke-width="1.5"></path><path d="M1558.74 657.55L1305.47 655.11" stroke="hsl(0, 0%, 100%)" stroke-width="1.5"></path><path d="M1558.74 657.55L1586.65 363.21" stroke="hsl(0, 0%, 100%)" stroke-width="1.5"></path><path d="M1558.74 657.55L1280.85 504.18" stroke="hsl(0, 0%, 100%)" stroke-width="1.5"></path><path d="M-94.07 666.3L-94.07 666.3" stroke="hsl(0, 0%, 100%)" stroke-width="1.5"></path><path d="M-94.07 666.3L92.4 680.9" stroke="hsl(0, 0%, 100%)" stroke-width="1.5"></path><path d="M-94.07 666.3L68.52 505.4" stroke="hsl(0, 0%, 100%)" stroke-width="1.5"></path><path d="M-94.07 666.3L189.07 653.46" stroke="hsl(0, 0%, 100%)" stroke-width="1.5"></path><path d="M-94.07 666.3L258.88 511.83" stroke="hsl(0, 0%, 100%)" stroke-width="1.5"></path><path d="M68.52 505.4L68.52 505.4" stroke="hsl(0, 0%, 100%)" stroke-width="1.5"></path><path d="M68.52 505.4L92.4 680.9" stroke="hsl(0, 0%, 100%)" stroke-width="1.5"></path><path d="M92.4 680.9L92.4 680.9" stroke="hsl(0, 0%, 100%)" stroke-width="1.5"></path><path d="M92.4 680.9L258.88 511.83" stroke="hsl(0, 0%, 100%)" stroke-width="1.5"></path><path d="M258.88 511.83L258.88 511.83" stroke="hsl(0, 0%, 100%)" stroke-width="1.5"></path><path d="M258.88 511.83L397.16 489.54" stroke="hsl(0, 0%, 100%)" stroke-width="1.5"></path><path d="M258.88 511.83L68.52 505.4" stroke="hsl(0, 0%, 100%)" stroke-width="1.5"></path><path d="M258.88 511.83L541.57 550.75" stroke="hsl(0, 0%, 100%)" stroke-width="1.5"></path><path d="M397.16 489.54L397.16 489.54" stroke="hsl(0, 0%, 100%)" stroke-width="1.5"></path><path d="M397.16 489.54L541.57 550.75" stroke="hsl(0, 0%, 100%)" stroke-width="1.5"></path><path d="M397.16 489.54L189.07 653.46" stroke="hsl(0, 0%, 100%)" stroke-width="1.5"></path><path d="M397.16 489.54L673.39 553.56" stroke="hsl(0, 0%, 100%)" stroke-width="1.5"></path><path d="M397.16 489.54L651.13 689.03" stroke="hsl(0, 0%, 100%)" stroke-width="1.5"></path><path d="M397.16 489.54L698.41 362.78" stroke="hsl(0, 0%, 100%)" stroke-width="1.5"></path><path d="M541.57 550.75L541.57 550.75" stroke="hsl(0, 0%, 100%)" stroke-width="1.5"></path><path d="M541.57 550.75L651.13 689.03" stroke="hsl(0, 0%, 100%)" stroke-width="1.5"></path><path d="M698.41 362.78L698.41 362.78" stroke="hsl(0, 0%, 100%)" stroke-width="1.5"></path><path d="M698.41 362.78L819.41 380.82" stroke="hsl(0, 0%, 100%)" stroke-width="1.5"></path><path d="M698.41 362.78L673.39 553.56" stroke="hsl(0, 0%, 100%)" stroke-width="1.5"></path><path d="M698.41 362.78L830.83 502.7" stroke="hsl(0, 0%, 100%)" stroke-width="1.5"></path><path d="M698.41 362.78L541.57 550.75" stroke="hsl(0, 0%, 100%)" stroke-width="1.5"></path><path d="M698.41 362.78L971.43 391.42" stroke="hsl(0, 0%, 100%)" stroke-width="1.5"></path><path d="M651.13 689.03L651.13 689.03" stroke="hsl(0, 0%, 100%)" stroke-width="1.5"></path><path d="M651.13 689.03L789.53 640.91" stroke="hsl(0, 0%, 100%)" stroke-width="1.5"></path><path d="M651.13 689.03L830.83 502.7" stroke="hsl(0, 0%, 100%)" stroke-width="1.5"></path><path d="M819.41 380.82L819.41 380.82" stroke="hsl(0, 0%, 100%)" stroke-width="1.5"></path><path d="M819.41 380.82L830.83 502.7" stroke="hsl(0, 0%, 100%)" stroke-width="1.5"></path><path d="M819.41 380.82L971.43 391.42" stroke="hsl(0, 0%, 100%)" stroke-width="1.5"></path><path d="M819.41 380.82L988.58 498.73" stroke="hsl(0, 0%, 100%)" stroke-width="1.5"></path><path d="M819.41 380.82L673.39 553.56" stroke="hsl(0, 0%, 100%)" stroke-width="1.5"></path><path d="M830.83 502.7L830.83 502.7" stroke="hsl(0, 0%, 100%)" stroke-width="1.5"></path><path d="M789.53 640.91L789.53 640.91" stroke="hsl(0, 0%, 100%)" stroke-width="1.5"></path><path d="M789.53 640.91L830.83 502.7" stroke="hsl(0, 0%, 100%)" stroke-width="1.5"></path><path d="M789.53 640.91L673.39 553.56" stroke="hsl(0, 0%, 100%)" stroke-width="1.5"></path><path d="M789.53 640.91L963.87 662.84" stroke="hsl(0, 0%, 100%)" stroke-width="1.5"></path><path d="M789.53 640.91L988.58 498.73" stroke="hsl(0, 0%, 100%)" stroke-width="1.5"></path><path d="M789.53 640.91L819.41 380.82" stroke="hsl(0, 0%, 100%)" stroke-width="1.5"></path><path d="M971.43 391.42L971.43 391.42" stroke="hsl(0, 0%, 100%)" stroke-width="1.5"></path><path d="M971.43 391.42L988.58 498.73" stroke="hsl(0, 0%, 100%)" stroke-width="1.5"></path><path d="M971.43 391.42L1144.03 357.99" stroke="hsl(0, 0%, 100%)" stroke-width="1.5"></path><path d="M971.43 391.42L830.83 502.7" stroke="hsl(0, 0%, 100%)" stroke-width="1.5"></path><path d="M988.58 498.73L988.58 498.73" stroke="hsl(0, 0%, 100%)" stroke-width="1.5"></path><path d="M988.58 498.73L830.83 502.7" stroke="hsl(0, 0%, 100%)" stroke-width="1.5"></path><path d="M988.58 498.73L963.87 662.84" stroke="hsl(0, 0%, 100%)" stroke-width="1.5"></path><path d="M988.58 498.73L1160.2 519.01" stroke="hsl(0, 0%, 100%)" stroke-width="1.5"></path><path d="M963.87 662.84L963.87 662.84" stroke="hsl(0, 0%, 100%)" stroke-width="1.5"></path><path d="M963.87 662.84L1090.03 659.62" stroke="hsl(0, 0%, 100%)" stroke-width="1.5"></path><path d="M963.87 662.84L830.83 502.7" stroke="hsl(0, 0%, 100%)" stroke-width="1.5"></path><path d="M1094.05 247.99L1094.05 247.99" stroke="hsl(0, 0%, 100%)" stroke-width="1.5"></path><path d="M1094.05 247.99L1144.03 357.99" stroke="hsl(0, 0%, 100%)" stroke-width="1.5"></path><path d="M1094.05 247.99L1248.79 219.89" stroke="hsl(0, 0%, 100%)" stroke-width="1.5"></path><path d="M1094.05 247.99L971.43 391.42" stroke="hsl(0, 0%, 100%)" stroke-width="1.5"></path><path d="M1094.05 247.99L1253.59 68.01" stroke="hsl(0, 0%, 100%)" stroke-width="1.5"></path><path d="M1094.05 247.99L988.58 498.73" stroke="hsl(0, 0%, 100%)" stroke-width="1.5"></path><path d="M1144.03 357.99L1144.03 357.99" stroke="hsl(0, 0%, 100%)" stroke-width="1.5"></path><path d="M1144.03 357.99L1160.2 519.01" stroke="hsl(0, 0%, 100%)" stroke-width="1.5"></path><path d="M1144.03 357.99L1248.79 219.89" stroke="hsl(0, 0%, 100%)" stroke-width="1.5"></path><path d="M1160.2 519.01L1160.2 519.01" stroke="hsl(0, 0%, 100%)" stroke-width="1.5"></path><path d="M1160.2 519.01L1280.85 504.18" stroke="hsl(0, 0%, 100%)" stroke-width="1.5"></path><path d="M1160.2 519.01L1090.03 659.62" stroke="hsl(0, 0%, 100%)" stroke-width="1.5"></path><path d="M1090.03 659.62L1090.03 659.62" stroke="hsl(0, 0%, 100%)" stroke-width="1.5"></path><path d="M1090.03 659.62L988.58 498.73" stroke="hsl(0, 0%, 100%)" stroke-width="1.5"></path><path d="M1090.03 659.62L1305.47 655.11" stroke="hsl(0, 0%, 100%)" stroke-width="1.5"></path><path d="M1090.03 659.62L1280.85 504.18" stroke="hsl(0, 0%, 100%)" stroke-width="1.5"></path><path d="M1253.59 68.01L1253.59 68.01" stroke="hsl(0, 0%, 100%)" stroke-width="1.5"></path><path d="M1253.59 68.01L1248.79 219.89" stroke="hsl(0, 0%, 100%)" stroke-width="1.5"></path><path d="M1253.59 68.01L1425.52 61.32" stroke="hsl(0, 0%, 100%)" stroke-width="1.5"></path><path d="M1248.79 219.89L1248.79 219.89" stroke="hsl(0, 0%, 100%)" stroke-width="1.5"></path><path d="M1248.79 219.89L1408.98 204.51" stroke="hsl(0, 0%, 100%)" stroke-width="1.5"></path><path d="M1248.79 219.89L1427.28 354.17" stroke="hsl(0, 0%, 100%)" stroke-width="1.5"></path><path d="M1248.79 219.89L1425.52 61.32" stroke="hsl(0, 0%, 100%)" stroke-width="1.5"></path><path d="M1280.85 504.18L1280.85 504.18" stroke="hsl(0, 0%, 100%)" stroke-width="1.5"></path><path d="M1280.85 504.18L1392.07 489.12" stroke="hsl(0, 0%, 100%)" stroke-width="1.5"></path><path d="M1280.85 504.18L1305.47 655.11" stroke="hsl(0, 0%, 100%)" stroke-width="1.5"></path><path d="M1280.85 504.18L1144.03 357.99" stroke="hsl(0, 0%, 100%)" stroke-width="1.5"></path><path d="M1305.47 655.11L1305.47 655.11" stroke="hsl(0, 0%, 100%)" stroke-width="1.5"></path><path d="M1305.47 655.11L1425.52 679.85" stroke="hsl(0, 0%, 100%)" stroke-width="1.5"></path><path d="M1305.47 655.11L1392.07 489.12" stroke="hsl(0, 0%, 100%)" stroke-width="1.5"></path><path d="M1305.47 655.11L1160.2 519.01" stroke="hsl(0, 0%, 100%)" stroke-width="1.5"></path><path d="M1446.32 -54.41L1446.32 -54.41" stroke="hsl(0, 0%, 100%)" stroke-width="1.5"></path><path d="M1446.32 -54.41L1425.52 61.32" stroke="hsl(0, 0%, 100%)" stroke-width="1.5"></path><path d="M1425.52 61.32L1425.52 61.32" stroke="hsl(0, 0%, 100%)" stroke-width="1.5"></path><path d="M1425.52 61.32L1408.98 204.51" stroke="hsl(0, 0%, 100%)" stroke-width="1.5"></path><path d="M1408.98 204.51L1408.98 204.51" stroke="hsl(0, 0%, 100%)" stroke-width="1.5"></path><path d="M1408.98 204.51L1546.17 255.96" stroke="hsl(0, 0%, 100%)" stroke-width="1.5"></path><path d="M1408.98 204.51L1427.28 354.17" stroke="hsl(0, 0%, 100%)" stroke-width="1.5"></path><path d="M1408.98 204.51L1253.59 68.01" stroke="hsl(0, 0%, 100%)" stroke-width="1.5"></path><path d="M1427.28 354.17L1427.28 354.17" stroke="hsl(0, 0%, 100%)" stroke-width="1.5"></path><path d="M1427.28 354.17L1392.07 489.12" stroke="hsl(0, 0%, 100%)" stroke-width="1.5"></path><path d="M1427.28 354.17L1546.17 255.96" stroke="hsl(0, 0%, 100%)" stroke-width="1.5"></path><path d="M1392.07 489.12L1392.07 489.12" stroke="hsl(0, 0%, 100%)" stroke-width="1.5"></path><path d="M1425.52 679.85L1425.52 679.85" stroke="hsl(0, 0%, 100%)" stroke-width="1.5"></path><path d="M1546.17 255.96L1546.17 255.96" stroke="hsl(0, 0%, 100%)" stroke-width="1.5"></path><path d="M1546.17 255.96L1586.65 363.21" stroke="hsl(0, 0%, 100%)" stroke-width="1.5"></path><path d="M1586.65 363.21L1586.65 363.21" stroke="hsl(0, 0%, 100%)" stroke-width="1.5"></path><path d="M1586.65 363.21L1427.28 354.17" stroke="hsl(0, 0%, 100%)" stroke-width="1.5"></path><path d="M1586.65 363.21L1392.07 489.12" stroke="hsl(0, 0%, 100%)" stroke-width="1.5"></path><path d="M1586.65 363.21L1408.98 204.51" stroke="hsl(0, 0%, 100%)" stroke-width="1.5"></path><circle r="25" cx="-47.72" cy="558.38" fill="url(&quot;#SvgjsRadialGradient1088&quot;)"></circle><circle r="25" cx="189.07" cy="653.46" fill="url(&quot;#SvgjsRadialGradient1088&quot;)"></circle><circle r="25" cx="673.39" cy="553.56" fill="url(&quot;#SvgjsRadialGradient1088&quot;)"></circle><circle r="25" cx="1288.82" cy="-58.8" fill="url(&quot;#SvgjsRadialGradient1088&quot;)"></circle><circle r="25" cx="1577.76" cy="-53.7" fill="url(&quot;#SvgjsRadialGradient1088&quot;)"></circle><circle r="25" cx="1546.45" cy="45.75" fill="url(&quot;#SvgjsRadialGradient1088&quot;)"></circle><circle r="25" cx="1538.86" cy="509.13" fill="url(&quot;#SvgjsRadialGradient1088&quot;)"></circle><circle r="25" cx="1558.74" cy="657.55" fill="url(&quot;#SvgjsRadialGradient1088&quot;)"></circle><circle r="5" cx="-94.07" cy="666.3" fill="#ffffff"></circle><circle r="5" cx="68.52" cy="505.4" fill="#ffffff"></circle><circle r="5" cx="92.4" cy="680.9" fill="#ffffff"></circle><circle r="5" cx="258.88" cy="511.83" fill="#ffffff"></circle><circle r="5" cx="397.16" cy="489.54" fill="#ffffff"></circle><circle r="5" cx="541.57" cy="550.75" fill="#ffffff"></circle><circle r="5" cx="698.41" cy="362.78" fill="#ffffff"></circle><circle r="5" cx="651.13" cy="689.03" fill="#ffffff"></circle><circle r="5" cx="819.41" cy="380.82" fill="#ffffff"></circle><circle r="5" cx="830.83" cy="502.7" fill="#ffffff"></circle><circle r="5" cx="789.53" cy="640.91" fill="#ffffff"></circle><circle r="5" cx="971.43" cy="391.42" fill="#ffffff"></circle><circle r="5" cx="988.58" cy="498.73" fill="#ffffff"></circle><circle r="5" cx="963.87" cy="662.84" fill="#ffffff"></circle><circle r="5" cx="1094.05" cy="247.99" fill="#ffffff"></circle><circle r="5" cx="1144.03" cy="357.99" fill="#ffffff"></circle><circle r="5" cx="1160.2" cy="519.01" fill="#ffffff"></circle><circle r="5" cx="1090.03" cy="659.62" fill="#ffffff"></circle><circle r="5" cx="1253.59" cy="68.01" fill="#ffffff"></circle><circle r="5" cx="1248.79" cy="219.89" fill="#ffffff"></circle><circle r="5" cx="1280.85" cy="504.18" fill="#ffffff"></circle><circle r="5" cx="1305.47" cy="655.11" fill="#ffffff"></circle><circle r="5" cx="1446.32" cy="-54.41" fill="#ffffff"></circle><circle r="5" cx="1425.52" cy="61.32" fill="#ffffff"></circle><circle r="5" cx="1408.98" cy="204.51" fill="#ffffff"></circle><circle r="5" cx="1427.28" cy="354.17" fill="#ffffff"></circle><circle r="5" cx="1392.07" cy="489.12" fill="#ffffff"></circle><circle r="5" cx="1425.52" cy="679.85" fill="#ffffff"></circle><circle r="5" cx="1546.17" cy="255.96" fill="#ffffff"></circle><circle r="5" cx="1586.65" cy="363.21" fill="#ffffff"></circle></g><defs><mask id="SvgjsMask1087"><rect width="1440" height="560" fill="#ffffff"></rect></mask><radialGradient id="SvgjsRadialGradient1088"><stop stop-color="#ffffff" offset="0.1"></stop><stop stop-color="rgba(255, 255, 255, 1)" offset="0.2"></stop><stop stop-color="rgba(255, 255, 255, 0)" offset="1"></stop></radialGradient></defs></svg>