<svg xmlns="http://www.w3.org/2000/svg" version="1.1" xmlns:xlink="http://www.w3.org/1999/xlink" xmlns:svgjs="http://svgjs.dev/svgjs" width="1440" height="560" preserveAspectRatio="none" viewBox="0 0 1440 560"><g mask="url(&quot;#SvgjsMask1204&quot;)" fill="none"><rect width="1440" height="560" x="0" y="0" fill="rgba(245, 189, 90, 1)"></rect><path d="M-74.41 340.7L-74.41 340.7" stroke="rgba(135, 32, 32, 1)" stroke-width="1.5"></path><path d="M-74.41 340.7L97.11 349.59" stroke="rgba(135, 32, 32, 1)" stroke-width="1.5"></path><path d="M-74.41 340.7L-103.7 516.88" stroke="rgba(135, 32, 32, 1)" stroke-width="1.5"></path><path d="M-103.7 516.88L-103.7 516.88" stroke="rgba(135, 32, 32, 1)" stroke-width="1.5"></path><path d="M-103.7 516.88L-40.54 702.03" stroke="rgba(135, 32, 32, 1)" stroke-width="1.5"></path><path d="M-103.7 516.88L87.45 561.94" stroke="rgba(135, 32, 32, 1)" stroke-width="1.5"></path><path d="M-103.7 516.88L97.11 349.59" stroke="rgba(135, 32, 32, 1)" stroke-width="1.5"></path><path d="M-40.54 702.03L-40.54 702.03" stroke="rgba(135, 32, 32, 1)" stroke-width="1.5"></path><path d="M-40.54 702.03L87.45 561.94" stroke="rgba(135, 32, 32, 1)" stroke-width="1.5"></path><path d="M-40.54 702.03L231.91 698.76" stroke="rgba(135, 32, 32, 1)" stroke-width="1.5"></path><path d="M97.11 349.59L97.11 349.59" stroke="rgba(135, 32, 32, 1)" stroke-width="1.5"></path><path d="M97.11 349.59L201.59 374.43" stroke="rgba(135, 32, 32, 1)" stroke-width="1.5"></path><path d="M97.11 349.59L87.45 561.94" stroke="rgba(135, 32, 32, 1)" stroke-width="1.5"></path><path d="M97.11 349.59L227.3 520.4" stroke="rgba(135, 32, 32, 1)" stroke-width="1.5"></path><path d="M87.45 561.94L87.45 561.94" stroke="rgba(135, 32, 32, 1)" stroke-width="1.5"></path><path d="M87.45 561.94L227.3 520.4" stroke="rgba(135, 32, 32, 1)" stroke-width="1.5"></path><path d="M87.45 561.94L231.91 698.76" stroke="rgba(135, 32, 32, 1)" stroke-width="1.5"></path><path d="M87.45 561.94L201.59 374.43" stroke="rgba(135, 32, 32, 1)" stroke-width="1.5"></path><path d="M201.59 374.43L201.59 374.43" stroke="rgba(135, 32, 32, 1)" stroke-width="1.5"></path><path d="M201.59 374.43L227.3 520.4" stroke="rgba(135, 32, 32, 1)" stroke-width="1.5"></path><path d="M201.59 374.43L394.45 401.3" stroke="rgba(135, 32, 32, 1)" stroke-width="1.5"></path><path d="M201.59 374.43L341.21 549.81" stroke="rgba(135, 32, 32, 1)" stroke-width="1.5"></path><path d="M227.3 520.4L227.3 520.4" stroke="rgba(135, 32, 32, 1)" stroke-width="1.5"></path><path d="M227.3 520.4L341.21 549.81" stroke="rgba(135, 32, 32, 1)" stroke-width="1.5"></path><path d="M231.91 698.76L231.91 698.76" stroke="rgba(135, 32, 32, 1)" stroke-width="1.5"></path><path d="M231.91 698.76L407.46 677.62" stroke="rgba(135, 32, 32, 1)" stroke-width="1.5"></path><path d="M231.91 698.76L227.3 520.4" stroke="rgba(135, 32, 32, 1)" stroke-width="1.5"></path><path d="M231.91 698.76L341.21 549.81" stroke="rgba(135, 32, 32, 1)" stroke-width="1.5"></path><path d="M394.45 401.3L394.45 401.3" stroke="rgba(135, 32, 32, 1)" stroke-width="1.5"></path><path d="M394.45 401.3L531.05 387.14" stroke="rgba(135, 32, 32, 1)" stroke-width="1.5"></path><path d="M394.45 401.3L503.04 500.11" stroke="rgba(135, 32, 32, 1)" stroke-width="1.5"></path><path d="M394.45 401.3L341.21 549.81" stroke="rgba(135, 32, 32, 1)" stroke-width="1.5"></path><path d="M394.45 401.3L227.3 520.4" stroke="rgba(135, 32, 32, 1)" stroke-width="1.5"></path><path d="M341.21 549.81L341.21 549.81" stroke="rgba(135, 32, 32, 1)" stroke-width="1.5"></path><path d="M341.21 549.81L407.46 677.62" stroke="rgba(135, 32, 32, 1)" stroke-width="1.5"></path><path d="M407.46 677.62L407.46 677.62" stroke="rgba(135, 32, 32, 1)" stroke-width="1.5"></path><path d="M407.46 677.62L510.64 656.95" stroke="rgba(135, 32, 32, 1)" stroke-width="1.5"></path><path d="M531.05 387.14L531.05 387.14" stroke="rgba(135, 32, 32, 1)" stroke-width="1.5"></path><path d="M531.05 387.14L639.11 402.97" stroke="rgba(135, 32, 32, 1)" stroke-width="1.5"></path><path d="M531.05 387.14L503.04 500.11" stroke="rgba(135, 32, 32, 1)" stroke-width="1.5"></path><path d="M531.05 387.14L650.68 542.88" stroke="rgba(135, 32, 32, 1)" stroke-width="1.5"></path><path d="M503.04 500.11L503.04 500.11" stroke="rgba(135, 32, 32, 1)" stroke-width="1.5"></path><path d="M510.64 656.95L510.64 656.95" stroke="rgba(135, 32, 32, 1)" stroke-width="1.5"></path><path d="M510.64 656.95L638.01 647.25" stroke="rgba(135, 32, 32, 1)" stroke-width="1.5"></path><path d="M510.64 656.95L503.04 500.11" stroke="rgba(135, 32, 32, 1)" stroke-width="1.5"></path><path d="M510.64 656.95L650.68 542.88" stroke="rgba(135, 32, 32, 1)" stroke-width="1.5"></path><path d="M510.64 656.95L341.21 549.81" stroke="rgba(135, 32, 32, 1)" stroke-width="1.5"></path><path d="M510.64 656.95L531.05 387.14" stroke="rgba(135, 32, 32, 1)" stroke-width="1.5"></path><path d="M639.11 402.97L639.11 402.97" stroke="rgba(135, 32, 32, 1)" stroke-width="1.5"></path><path d="M639.11 402.97L650.68 542.88" stroke="rgba(135, 32, 32, 1)" stroke-width="1.5"></path><path d="M639.11 402.97L799.65 376.11" stroke="rgba(135, 32, 32, 1)" stroke-width="1.5"></path><path d="M639.11 402.97L503.04 500.11" stroke="rgba(135, 32, 32, 1)" stroke-width="1.5"></path><path d="M639.11 402.97L804.87 545.08" stroke="rgba(135, 32, 32, 1)" stroke-width="1.5"></path><path d="M650.68 542.88L650.68 542.88" stroke="rgba(135, 32, 32, 1)" stroke-width="1.5"></path><path d="M650.68 542.88L638.01 647.25" stroke="rgba(135, 32, 32, 1)" stroke-width="1.5"></path><path d="M650.68 542.88L503.04 500.11" stroke="rgba(135, 32, 32, 1)" stroke-width="1.5"></path><path d="M638.01 647.25L638.01 647.25" stroke="rgba(135, 32, 32, 1)" stroke-width="1.5"></path><path d="M638.01 647.25L804.87 545.08" stroke="rgba(135, 32, 32, 1)" stroke-width="1.5"></path><path d="M638.01 647.25L836.71 647.19" stroke="rgba(135, 32, 32, 1)" stroke-width="1.5"></path><path d="M638.01 647.25L503.04 500.11" stroke="rgba(135, 32, 32, 1)" stroke-width="1.5"></path><path d="M638.01 647.25L407.46 677.62" stroke="rgba(135, 32, 32, 1)" stroke-width="1.5"></path><path d="M824.08 108.66L824.08 108.66" stroke="rgba(135, 32, 32, 1)" stroke-width="1.5"></path><path d="M824.08 108.66L944.05 55.72" stroke="rgba(135, 32, 32, 1)" stroke-width="1.5"></path><path d="M824.08 108.66L861.85 260.18" stroke="rgba(135, 32, 32, 1)" stroke-width="1.5"></path><path d="M861.85 260.18L861.85 260.18" stroke="rgba(135, 32, 32, 1)" stroke-width="1.5"></path><path d="M861.85 260.18L982.08 258.41" stroke="rgba(135, 32, 32, 1)" stroke-width="1.5"></path><path d="M861.85 260.18L799.65 376.11" stroke="rgba(135, 32, 32, 1)" stroke-width="1.5"></path><path d="M861.85 260.18L980.75 374.8" stroke="rgba(135, 32, 32, 1)" stroke-width="1.5"></path><path d="M861.85 260.18L944.05 55.72" stroke="rgba(135, 32, 32, 1)" stroke-width="1.5"></path><path d="M861.85 260.18L639.11 402.97" stroke="rgba(135, 32, 32, 1)" stroke-width="1.5"></path><path d="M799.65 376.11L799.65 376.11" stroke="rgba(135, 32, 32, 1)" stroke-width="1.5"></path><path d="M799.65 376.11L804.87 545.08" stroke="rgba(135, 32, 32, 1)" stroke-width="1.5"></path><path d="M799.65 376.11L980.75 374.8" stroke="rgba(135, 32, 32, 1)" stroke-width="1.5"></path><path d="M799.65 376.11L982.08 258.41" stroke="rgba(135, 32, 32, 1)" stroke-width="1.5"></path><path d="M804.87 545.08L804.87 545.08" stroke="rgba(135, 32, 32, 1)" stroke-width="1.5"></path><path d="M804.87 545.08L836.71 647.19" stroke="rgba(135, 32, 32, 1)" stroke-width="1.5"></path><path d="M804.87 545.08L650.68 542.88" stroke="rgba(135, 32, 32, 1)" stroke-width="1.5"></path><path d="M836.71 647.19L836.71 647.19" stroke="rgba(135, 32, 32, 1)" stroke-width="1.5"></path><path d="M836.71 647.19L966.59 647.94" stroke="rgba(135, 32, 32, 1)" stroke-width="1.5"></path><path d="M947.16 -40.23L947.16 -40.23" stroke="rgba(135, 32, 32, 1)" stroke-width="1.5"></path><path d="M947.16 -40.23L944.05 55.72" stroke="rgba(135, 32, 32, 1)" stroke-width="1.5"></path><path d="M944.05 55.72L944.05 55.72" stroke="rgba(135, 32, 32, 1)" stroke-width="1.5"></path><path d="M944.05 55.72L982.08 258.41" stroke="rgba(135, 32, 32, 1)" stroke-width="1.5"></path><path d="M982.08 258.41L982.08 258.41" stroke="rgba(135, 32, 32, 1)" stroke-width="1.5"></path><path d="M982.08 258.41L980.75 374.8" stroke="rgba(135, 32, 32, 1)" stroke-width="1.5"></path><path d="M982.08 258.41L1130.48 378.66" stroke="rgba(135, 32, 32, 1)" stroke-width="1.5"></path><path d="M980.75 374.8L980.75 374.8" stroke="rgba(135, 32, 32, 1)" stroke-width="1.5"></path><path d="M980.75 374.8L1130.48 378.66" stroke="rgba(135, 32, 32, 1)" stroke-width="1.5"></path><path d="M980.75 374.8L1147.8 489.74" stroke="rgba(135, 32, 32, 1)" stroke-width="1.5"></path><path d="M980.75 374.8L804.87 545.08" stroke="rgba(135, 32, 32, 1)" stroke-width="1.5"></path><path d="M966.59 647.94L966.59 647.94" stroke="rgba(135, 32, 32, 1)" stroke-width="1.5"></path><path d="M966.59 647.94L1095.31 661.38" stroke="rgba(135, 32, 32, 1)" stroke-width="1.5"></path><path d="M966.59 647.94L804.87 545.08" stroke="rgba(135, 32, 32, 1)" stroke-width="1.5"></path><path d="M966.59 647.94L1147.8 489.74" stroke="rgba(135, 32, 32, 1)" stroke-width="1.5"></path><path d="M966.59 647.94L980.75 374.8" stroke="rgba(135, 32, 32, 1)" stroke-width="1.5"></path><path d="M1157.69 -104.23L1157.69 -104.23" stroke="rgba(135, 32, 32, 1)" stroke-width="1.5"></path><path d="M1157.69 -104.23L1278.95 -92.88" stroke="rgba(135, 32, 32, 1)" stroke-width="1.5"></path><path d="M1157.69 -104.23L947.16 -40.23" stroke="rgba(135, 32, 32, 1)" stroke-width="1.5"></path><path d="M1130.48 378.66L1130.48 378.66" stroke="rgba(135, 32, 32, 1)" stroke-width="1.5"></path><path d="M1130.48 378.66L1147.8 489.74" stroke="rgba(135, 32, 32, 1)" stroke-width="1.5"></path><path d="M1130.48 378.66L1241.15 496.11" stroke="rgba(135, 32, 32, 1)" stroke-width="1.5"></path><path d="M1130.48 378.66L1238.26 254.87" stroke="rgba(135, 32, 32, 1)" stroke-width="1.5"></path><path d="M1130.48 378.66L1299.14 393.61" stroke="rgba(135, 32, 32, 1)" stroke-width="1.5"></path><path d="M1147.8 489.74L1147.8 489.74" stroke="rgba(135, 32, 32, 1)" stroke-width="1.5"></path><path d="M1147.8 489.74L1241.15 496.11" stroke="rgba(135, 32, 32, 1)" stroke-width="1.5"></path><path d="M1147.8 489.74L1299.14 393.61" stroke="rgba(135, 32, 32, 1)" stroke-width="1.5"></path><path d="M1147.8 489.74L1095.31 661.38" stroke="rgba(135, 32, 32, 1)" stroke-width="1.5"></path><path d="M1095.31 661.38L1095.31 661.38" stroke="rgba(135, 32, 32, 1)" stroke-width="1.5"></path><path d="M1095.31 661.38L1281.39 702.91" stroke="rgba(135, 32, 32, 1)" stroke-width="1.5"></path><path d="M1278.95 -92.88L1278.95 -92.88" stroke="rgba(135, 32, 32, 1)" stroke-width="1.5"></path><path d="M1278.95 -92.88L1402.12 -102.96" stroke="rgba(135, 32, 32, 1)" stroke-width="1.5"></path><path d="M1278.95 -92.88L1272.42 92.13" stroke="rgba(135, 32, 32, 1)" stroke-width="1.5"></path><path d="M1278.95 -92.88L1456.47 60.54" stroke="rgba(135, 32, 32, 1)" stroke-width="1.5"></path><path d="M1278.95 -92.88L1608.66 -48.55" stroke="rgba(135, 32, 32, 1)" stroke-width="1.5"></path><path d="M1278.95 -92.88L947.16 -40.23" stroke="rgba(135, 32, 32, 1)" stroke-width="1.5"></path><path d="M1272.42 92.13L1272.42 92.13" stroke="rgba(135, 32, 32, 1)" stroke-width="1.5"></path><path d="M1272.42 92.13L1238.26 254.87" stroke="rgba(135, 32, 32, 1)" stroke-width="1.5"></path><path d="M1238.26 254.87L1238.26 254.87" stroke="rgba(135, 32, 32, 1)" stroke-width="1.5"></path><path d="M1238.26 254.87L1299.14 393.61" stroke="rgba(135, 32, 32, 1)" stroke-width="1.5"></path><path d="M1299.14 393.61L1299.14 393.61" stroke="rgba(135, 32, 32, 1)" stroke-width="1.5"></path><path d="M1299.14 393.61L1241.15 496.11" stroke="rgba(135, 32, 32, 1)" stroke-width="1.5"></path><path d="M1299.14 393.61L1448.89 371.79" stroke="rgba(135, 32, 32, 1)" stroke-width="1.5"></path><path d="M1241.15 496.11L1241.15 496.11" stroke="rgba(135, 32, 32, 1)" stroke-width="1.5"></path><path d="M1241.15 496.11L1396.84 550.12" stroke="rgba(135, 32, 32, 1)" stroke-width="1.5"></path><path d="M1281.39 702.91L1281.39 702.91" stroke="rgba(135, 32, 32, 1)" stroke-width="1.5"></path><path d="M1281.39 702.91L1452.36 656.53" stroke="rgba(135, 32, 32, 1)" stroke-width="1.5"></path><path d="M1281.39 702.91L1396.84 550.12" stroke="rgba(135, 32, 32, 1)" stroke-width="1.5"></path><path d="M1281.39 702.91L1241.15 496.11" stroke="rgba(135, 32, 32, 1)" stroke-width="1.5"></path><path d="M1281.39 702.91L1147.8 489.74" stroke="rgba(135, 32, 32, 1)" stroke-width="1.5"></path><path d="M1402.12 -102.96L1402.12 -102.96" stroke="rgba(135, 32, 32, 1)" stroke-width="1.5"></path><path d="M1402.12 -102.96L1456.47 60.54" stroke="rgba(135, 32, 32, 1)" stroke-width="1.5"></path><path d="M1402.12 -102.96L1608.66 -48.55" stroke="rgba(135, 32, 32, 1)" stroke-width="1.5"></path><path d="M1402.12 -102.96L1272.42 92.13" stroke="rgba(135, 32, 32, 1)" stroke-width="1.5"></path><path d="M1402.12 -102.96L1157.69 -104.23" stroke="rgba(135, 32, 32, 1)" stroke-width="1.5"></path><path d="M1456.47 60.54L1456.47 60.54" stroke="rgba(135, 32, 32, 1)" stroke-width="1.5"></path><path d="M1456.47 60.54L1566.36 106.52" stroke="rgba(135, 32, 32, 1)" stroke-width="1.5"></path><path d="M1456.47 60.54L1446.72 220.58" stroke="rgba(135, 32, 32, 1)" stroke-width="1.5"></path><path d="M1456.47 60.54L1570.85 204.47" stroke="rgba(135, 32, 32, 1)" stroke-width="1.5"></path><path d="M1446.72 220.58L1446.72 220.58" stroke="rgba(135, 32, 32, 1)" stroke-width="1.5"></path><path d="M1446.72 220.58L1570.85 204.47" stroke="rgba(135, 32, 32, 1)" stroke-width="1.5"></path><path d="M1446.72 220.58L1448.89 371.79" stroke="rgba(135, 32, 32, 1)" stroke-width="1.5"></path><path d="M1448.89 371.79L1448.89 371.79" stroke="rgba(135, 32, 32, 1)" stroke-width="1.5"></path><path d="M1448.89 371.79L1574.72 358.61" stroke="rgba(135, 32, 32, 1)" stroke-width="1.5"></path><path d="M1396.84 550.12L1396.84 550.12" stroke="rgba(135, 32, 32, 1)" stroke-width="1.5"></path><path d="M1396.84 550.12L1452.36 656.53" stroke="rgba(135, 32, 32, 1)" stroke-width="1.5"></path><path d="M1396.84 550.12L1558.36 518.71" stroke="rgba(135, 32, 32, 1)" stroke-width="1.5"></path><path d="M1452.36 656.53L1452.36 656.53" stroke="rgba(135, 32, 32, 1)" stroke-width="1.5"></path><path d="M1452.36 656.53L1547.03 669.43" stroke="rgba(135, 32, 32, 1)" stroke-width="1.5"></path><path d="M1452.36 656.53L1558.36 518.71" stroke="rgba(135, 32, 32, 1)" stroke-width="1.5"></path><path d="M1608.66 -48.55L1608.66 -48.55" stroke="rgba(135, 32, 32, 1)" stroke-width="1.5"></path><path d="M1608.66 -48.55L1566.36 106.52" stroke="rgba(135, 32, 32, 1)" stroke-width="1.5"></path><path d="M1608.66 -48.55L1456.47 60.54" stroke="rgba(135, 32, 32, 1)" stroke-width="1.5"></path><path d="M1608.66 -48.55L1570.85 204.47" stroke="rgba(135, 32, 32, 1)" stroke-width="1.5"></path><path d="M1608.66 -48.55L1446.72 220.58" stroke="rgba(135, 32, 32, 1)" stroke-width="1.5"></path><path d="M1566.36 106.52L1566.36 106.52" stroke="rgba(135, 32, 32, 1)" stroke-width="1.5"></path><path d="M1566.36 106.52L1570.85 204.47" stroke="rgba(135, 32, 32, 1)" stroke-width="1.5"></path><path d="M1566.36 106.52L1446.72 220.58" stroke="rgba(135, 32, 32, 1)" stroke-width="1.5"></path><path d="M1566.36 106.52L1574.72 358.61" stroke="rgba(135, 32, 32, 1)" stroke-width="1.5"></path><path d="M1566.36 106.52L1402.12 -102.96" stroke="rgba(135, 32, 32, 1)" stroke-width="1.5"></path><path d="M1570.85 204.47L1570.85 204.47" stroke="rgba(135, 32, 32, 1)" stroke-width="1.5"></path><path d="M1574.72 358.61L1574.72 358.61" stroke="rgba(135, 32, 32, 1)" stroke-width="1.5"></path><path d="M1574.72 358.61L1570.85 204.47" stroke="rgba(135, 32, 32, 1)" stroke-width="1.5"></path><path d="M1574.72 358.61L1558.36 518.71" stroke="rgba(135, 32, 32, 1)" stroke-width="1.5"></path><path d="M1574.72 358.61L1446.72 220.58" stroke="rgba(135, 32, 32, 1)" stroke-width="1.5"></path><path d="M1558.36 518.71L1558.36 518.71" stroke="rgba(135, 32, 32, 1)" stroke-width="1.5"></path><path d="M1558.36 518.71L1547.03 669.43" stroke="rgba(135, 32, 32, 1)" stroke-width="1.5"></path><path d="M1547.03 669.43L1547.03 669.43" stroke="rgba(135, 32, 32, 1)" stroke-width="1.5"></path><circle r="5" cx="-74.41" cy="340.7" fill="rgba(135, 32, 32, 1)"></circle><circle r="5" cx="-103.7" cy="516.88" fill="rgba(135, 32, 32, 1)"></circle><circle r="5" cx="-40.54" cy="702.03" fill="rgba(135, 32, 32, 1)"></circle><circle r="5" cx="97.11" cy="349.59" fill="rgba(135, 32, 32, 1)"></circle><circle r="5" cx="87.45" cy="561.94" fill="rgba(135, 32, 32, 1)"></circle><circle r="5" cx="201.59" cy="374.43" fill="rgba(135, 32, 32, 1)"></circle><circle r="5" cx="227.3" cy="520.4" fill="rgba(135, 32, 32, 1)"></circle><circle r="5" cx="231.91" cy="698.76" fill="rgba(135, 32, 32, 1)"></circle><circle r="5" cx="394.45" cy="401.3" fill="rgba(135, 32, 32, 1)"></circle><circle r="5" cx="341.21" cy="549.81" fill="rgba(135, 32, 32, 1)"></circle><circle r="5" cx="407.46" cy="677.62" fill="rgba(135, 32, 32, 1)"></circle><circle r="5" cx="531.05" cy="387.14" fill="rgba(135, 32, 32, 1)"></circle><circle r="5" cx="503.04" cy="500.11" fill="rgba(135, 32, 32, 1)"></circle><circle r="5" cx="510.64" cy="656.95" fill="rgba(135, 32, 32, 1)"></circle><circle r="5" cx="639.11" cy="402.97" fill="rgba(135, 32, 32, 1)"></circle><circle r="5" cx="650.68" cy="542.88" fill="rgba(135, 32, 32, 1)"></circle><circle r="5" cx="638.01" cy="647.25" fill="rgba(135, 32, 32, 1)"></circle><circle r="5" cx="824.08" cy="108.66" fill="rgba(135, 32, 32, 1)"></circle><circle r="5" cx="861.85" cy="260.18" fill="rgba(135, 32, 32, 1)"></circle><circle r="5" cx="799.65" cy="376.11" fill="rgba(135, 32, 32, 1)"></circle><circle r="5" cx="804.87" cy="545.08" fill="rgba(135, 32, 32, 1)"></circle><circle r="5" cx="836.71" cy="647.19" fill="rgba(135, 32, 32, 1)"></circle><circle r="5" cx="947.16" cy="-40.23" fill="rgba(135, 32, 32, 1)"></circle><circle r="5" cx="944.05" cy="55.72" fill="rgba(135, 32, 32, 1)"></circle><circle r="5" cx="982.08" cy="258.41" fill="rgba(135, 32, 32, 1)"></circle><circle r="5" cx="980.75" cy="374.8" fill="rgba(135, 32, 32, 1)"></circle><circle r="5" cx="966.59" cy="647.94" fill="rgba(135, 32, 32, 1)"></circle><circle r="5" cx="1157.69" cy="-104.23" fill="rgba(135, 32, 32, 1)"></circle><circle r="5" cx="1130.48" cy="378.66" fill="rgba(135, 32, 32, 1)"></circle><circle r="5" cx="1147.8" cy="489.74" fill="rgba(135, 32, 32, 1)"></circle><circle r="5" cx="1095.31" cy="661.38" fill="rgba(135, 32, 32, 1)"></circle><circle r="5" cx="1278.95" cy="-92.88" fill="rgba(135, 32, 32, 1)"></circle><circle r="5" cx="1272.42" cy="92.13" fill="rgba(135, 32, 32, 1)"></circle><circle r="5" cx="1238.26" cy="254.87" fill="rgba(135, 32, 32, 1)"></circle><circle r="5" cx="1299.14" cy="393.61" fill="rgba(135, 32, 32, 1)"></circle><circle r="5" cx="1241.15" cy="496.11" fill="rgba(135, 32, 32, 1)"></circle><circle r="5" cx="1281.39" cy="702.91" fill="rgba(135, 32, 32, 1)"></circle><circle r="5" cx="1402.12" cy="-102.96" fill="rgba(135, 32, 32, 1)"></circle><circle r="5" cx="1456.47" cy="60.54" fill="rgba(135, 32, 32, 1)"></circle><circle r="5" cx="1446.72" cy="220.58" fill="rgba(135, 32, 32, 1)"></circle><circle r="5" cx="1448.89" cy="371.79" fill="rgba(135, 32, 32, 1)"></circle><circle r="5" cx="1396.84" cy="550.12" fill="rgba(135, 32, 32, 1)"></circle><circle r="5" cx="1452.36" cy="656.53" fill="rgba(135, 32, 32, 1)"></circle><circle r="5" cx="1608.66" cy="-48.55" fill="rgba(135, 32, 32, 1)"></circle><circle r="5" cx="1566.36" cy="106.52" fill="rgba(135, 32, 32, 1)"></circle><circle r="5" cx="1570.85" cy="204.47" fill="rgba(135, 32, 32, 1)"></circle><circle r="5" cx="1574.72" cy="358.61" fill="rgba(135, 32, 32, 1)"></circle><circle r="5" cx="1558.36" cy="518.71" fill="rgba(135, 32, 32, 1)"></circle><circle r="5" cx="1547.03" cy="669.43" fill="rgba(135, 32, 32, 1)"></circle><path d="M553.6 678.76L553.6 678.76" stroke="hsl(0, 0%, 100%)" stroke-width="1.5"></path><path d="M553.6 678.76L643.2 677.78" stroke="hsl(0, 0%, 100%)" stroke-width="1.5"></path><path d="M553.6 678.76L542.86 515.26" stroke="hsl(0, 0%, 100%)" stroke-width="1.5"></path><path d="M553.6 678.76L374.23 663.86" stroke="hsl(0, 0%, 100%)" stroke-width="1.5"></path><path d="M795.76 361.53L795.76 361.53" stroke="hsl(0, 0%, 100%)" stroke-width="1.5"></path><path d="M795.76 361.53L646.87 395.18" stroke="hsl(0, 0%, 100%)" stroke-width="1.5"></path><path d="M795.76 361.53L854.75 536.41" stroke="hsl(0, 0%, 100%)" stroke-width="1.5"></path><path d="M795.76 361.53L1001.4 383.2" stroke="hsl(0, 0%, 100%)" stroke-width="1.5"></path><path d="M1142.07 652.89L1142.07 652.89" stroke="hsl(0, 0%, 100%)" stroke-width="1.5"></path><path d="M1142.07 652.89L1093.77 536.91" stroke="hsl(0, 0%, 100%)" stroke-width="1.5"></path><path d="M1142.07 652.89L1276.26 640.76" stroke="hsl(0, 0%, 100%)" stroke-width="1.5"></path><path d="M1142.07 652.89L1011.11 555.92" stroke="hsl(0, 0%, 100%)" stroke-width="1.5"></path><path d="M1142.07 652.89L1256.74 504.89" stroke="hsl(0, 0%, 100%)" stroke-width="1.5"></path><path d="M1250.39 67.48L1250.39 67.48" stroke="hsl(0, 0%, 100%)" stroke-width="1.5"></path><path d="M1250.39 67.48L1248.25 -87.06" stroke="hsl(0, 0%, 100%)" stroke-width="1.5"></path><path d="M1250.39 67.48L1420.26 77.36" stroke="hsl(0, 0%, 100%)" stroke-width="1.5"></path><path d="M1250.39 67.48L1277.2 244.89" stroke="hsl(0, 0%, 100%)" stroke-width="1.5"></path><path d="M1250.39 67.48L1415.27 -74.5" stroke="hsl(0, 0%, 100%)" stroke-width="1.5"></path><path d="M1277.2 244.89L1277.2 244.89" stroke="hsl(0, 0%, 100%)" stroke-width="1.5"></path><path d="M1277.2 244.89L1243.9 363.59" stroke="hsl(0, 0%, 100%)" stroke-width="1.5"></path><path d="M1243.9 363.59L1243.9 363.59" stroke="hsl(0, 0%, 100%)" stroke-width="1.5"></path><path d="M1243.9 363.59L1116.21 365" stroke="hsl(0, 0%, 100%)" stroke-width="1.5"></path><path d="M1243.9 363.59L1256.74 504.89" stroke="hsl(0, 0%, 100%)" stroke-width="1.5"></path><path d="M1575 96.58L1575 96.58" stroke="hsl(0, 0%, 100%)" stroke-width="1.5"></path><path d="M1575 96.58L1580.08 225.92" stroke="hsl(0, 0%, 100%)" stroke-width="1.5"></path><path d="M1575 96.58L1420.26 77.36" stroke="hsl(0, 0%, 100%)" stroke-width="1.5"></path><path d="M1575 96.58L1560.46 -62.49" stroke="hsl(0, 0%, 100%)" stroke-width="1.5"></path><path d="M1575 96.58L1432.46 258.99" stroke="hsl(0, 0%, 100%)" stroke-width="1.5"></path><path d="M1575 96.58L1415.27 -74.5" stroke="hsl(0, 0%, 100%)" stroke-width="1.5"></path><path d="M1575 96.58L1601.37 348.2" stroke="hsl(0, 0%, 100%)" stroke-width="1.5"></path><path d="M-73.25 510.78L-73.25 510.78" stroke="hsl(0, 0%, 100%)" stroke-width="1.5"></path><path d="M-73.25 510.78L49.25 503.98" stroke="hsl(0, 0%, 100%)" stroke-width="1.5"></path><path d="M-73.25 510.78L-53.48 645.05" stroke="hsl(0, 0%, 100%)" stroke-width="1.5"></path><path d="M-73.25 510.78L99.88 651.74" stroke="hsl(0, 0%, 100%)" stroke-width="1.5"></path><path d="M-73.25 510.78L204.09 680.14" stroke="hsl(0, 0%, 100%)" stroke-width="1.5"></path><path d="M-73.25 510.78L397.31 520.4" stroke="hsl(0, 0%, 100%)" stroke-width="1.5"></path><path d="M-53.48 645.05L-53.48 645.05" stroke="hsl(0, 0%, 100%)" stroke-width="1.5"></path><path d="M-53.48 645.05L99.88 651.74" stroke="hsl(0, 0%, 100%)" stroke-width="1.5"></path><path d="M49.25 503.98L49.25 503.98" stroke="hsl(0, 0%, 100%)" stroke-width="1.5"></path><path d="M49.25 503.98L99.88 651.74" stroke="hsl(0, 0%, 100%)" stroke-width="1.5"></path><path d="M49.25 503.98L-53.48 645.05" stroke="hsl(0, 0%, 100%)" stroke-width="1.5"></path><path d="M99.88 651.74L99.88 651.74" stroke="hsl(0, 0%, 100%)" stroke-width="1.5"></path><path d="M99.88 651.74L204.09 680.14" stroke="hsl(0, 0%, 100%)" stroke-width="1.5"></path><path d="M204.09 680.14L204.09 680.14" stroke="hsl(0, 0%, 100%)" stroke-width="1.5"></path><path d="M204.09 680.14L374.23 663.86" stroke="hsl(0, 0%, 100%)" stroke-width="1.5"></path><path d="M204.09 680.14L49.25 503.98" stroke="hsl(0, 0%, 100%)" stroke-width="1.5"></path><path d="M397.31 520.4L397.31 520.4" stroke="hsl(0, 0%, 100%)" stroke-width="1.5"></path><path d="M397.31 520.4L374.23 663.86" stroke="hsl(0, 0%, 100%)" stroke-width="1.5"></path><path d="M397.31 520.4L542.86 515.26" stroke="hsl(0, 0%, 100%)" stroke-width="1.5"></path><path d="M397.31 520.4L553.6 678.76" stroke="hsl(0, 0%, 100%)" stroke-width="1.5"></path><path d="M397.31 520.4L204.09 680.14" stroke="hsl(0, 0%, 100%)" stroke-width="1.5"></path><path d="M397.31 520.4L668.37 525.96" stroke="hsl(0, 0%, 100%)" stroke-width="1.5"></path><path d="M397.31 520.4L646.87 395.18" stroke="hsl(0, 0%, 100%)" stroke-width="1.5"></path><path d="M374.23 663.86L374.23 663.86" stroke="hsl(0, 0%, 100%)" stroke-width="1.5"></path><path d="M374.23 663.86L542.86 515.26" stroke="hsl(0, 0%, 100%)" stroke-width="1.5"></path><path d="M542.86 515.26L542.86 515.26" stroke="hsl(0, 0%, 100%)" stroke-width="1.5"></path><path d="M542.86 515.26L668.37 525.96" stroke="hsl(0, 0%, 100%)" stroke-width="1.5"></path><path d="M542.86 515.26L646.87 395.18" stroke="hsl(0, 0%, 100%)" stroke-width="1.5"></path><path d="M542.86 515.26L643.2 677.78" stroke="hsl(0, 0%, 100%)" stroke-width="1.5"></path><path d="M646.87 395.18L646.87 395.18" stroke="hsl(0, 0%, 100%)" stroke-width="1.5"></path><path d="M646.87 395.18L668.37 525.96" stroke="hsl(0, 0%, 100%)" stroke-width="1.5"></path><path d="M668.37 525.96L668.37 525.96" stroke="hsl(0, 0%, 100%)" stroke-width="1.5"></path><path d="M668.37 525.96L643.2 677.78" stroke="hsl(0, 0%, 100%)" stroke-width="1.5"></path><path d="M668.37 525.96L854.75 536.41" stroke="hsl(0, 0%, 100%)" stroke-width="1.5"></path><path d="M668.37 525.96L553.6 678.76" stroke="hsl(0, 0%, 100%)" stroke-width="1.5"></path><path d="M643.2 677.78L643.2 677.78" stroke="hsl(0, 0%, 100%)" stroke-width="1.5"></path><path d="M643.2 677.78L833.07 664.74" stroke="hsl(0, 0%, 100%)" stroke-width="1.5"></path><path d="M643.2 677.78L854.75 536.41" stroke="hsl(0, 0%, 100%)" stroke-width="1.5"></path><path d="M643.2 677.78L374.23 663.86" stroke="hsl(0, 0%, 100%)" stroke-width="1.5"></path><path d="M854.75 536.41L854.75 536.41" stroke="hsl(0, 0%, 100%)" stroke-width="1.5"></path><path d="M854.75 536.41L833.07 664.74" stroke="hsl(0, 0%, 100%)" stroke-width="1.5"></path><path d="M854.75 536.41L1011.11 555.92" stroke="hsl(0, 0%, 100%)" stroke-width="1.5"></path><path d="M833.07 664.74L833.07 664.74" stroke="hsl(0, 0%, 100%)" stroke-width="1.5"></path><path d="M833.07 664.74L1011.11 555.92" stroke="hsl(0, 0%, 100%)" stroke-width="1.5"></path><path d="M833.07 664.74L668.37 525.96" stroke="hsl(0, 0%, 100%)" stroke-width="1.5"></path><path d="M1001.4 383.2L1001.4 383.2" stroke="hsl(0, 0%, 100%)" stroke-width="1.5"></path><path d="M1001.4 383.2L1116.21 365" stroke="hsl(0, 0%, 100%)" stroke-width="1.5"></path><path d="M1001.4 383.2L1011.11 555.92" stroke="hsl(0, 0%, 100%)" stroke-width="1.5"></path><path d="M1011.11 555.92L1011.11 555.92" stroke="hsl(0, 0%, 100%)" stroke-width="1.5"></path><path d="M1011.11 555.92L1093.77 536.91" stroke="hsl(0, 0%, 100%)" stroke-width="1.5"></path><path d="M1011.11 555.92L1116.21 365" stroke="hsl(0, 0%, 100%)" stroke-width="1.5"></path><path d="M1116.21 365L1116.21 365" stroke="hsl(0, 0%, 100%)" stroke-width="1.5"></path><path d="M1116.21 365L1093.77 536.91" stroke="hsl(0, 0%, 100%)" stroke-width="1.5"></path><path d="M1116.21 365L1256.74 504.89" stroke="hsl(0, 0%, 100%)" stroke-width="1.5"></path><path d="M1116.21 365L1277.2 244.89" stroke="hsl(0, 0%, 100%)" stroke-width="1.5"></path><path d="M1093.77 536.91L1093.77 536.91" stroke="hsl(0, 0%, 100%)" stroke-width="1.5"></path><path d="M1093.77 536.91L1256.74 504.89" stroke="hsl(0, 0%, 100%)" stroke-width="1.5"></path><path d="M1248.25 -87.06L1248.25 -87.06" stroke="hsl(0, 0%, 100%)" stroke-width="1.5"></path><path d="M1248.25 -87.06L1415.27 -74.5" stroke="hsl(0, 0%, 100%)" stroke-width="1.5"></path><path d="M1248.25 -87.06L1420.26 77.36" stroke="hsl(0, 0%, 100%)" stroke-width="1.5"></path><path d="M1248.25 -87.06L1560.46 -62.49" stroke="hsl(0, 0%, 100%)" stroke-width="1.5"></path><path d="M1248.25 -87.06L1277.2 244.89" stroke="hsl(0, 0%, 100%)" stroke-width="1.5"></path><path d="M1248.25 -87.06L1575 96.58" stroke="hsl(0, 0%, 100%)" stroke-width="1.5"></path><path d="M1256.74 504.89L1256.74 504.89" stroke="hsl(0, 0%, 100%)" stroke-width="1.5"></path><path d="M1256.74 504.89L1276.26 640.76" stroke="hsl(0, 0%, 100%)" stroke-width="1.5"></path><path d="M1256.74 504.89L1401.65 495.27" stroke="hsl(0, 0%, 100%)" stroke-width="1.5"></path><path d="M1276.26 640.76L1276.26 640.76" stroke="hsl(0, 0%, 100%)" stroke-width="1.5"></path><path d="M1415.27 -74.5L1415.27 -74.5" stroke="hsl(0, 0%, 100%)" stroke-width="1.5"></path><path d="M1415.27 -74.5L1560.46 -62.49" stroke="hsl(0, 0%, 100%)" stroke-width="1.5"></path><path d="M1415.27 -74.5L1420.26 77.36" stroke="hsl(0, 0%, 100%)" stroke-width="1.5"></path><path d="M1420.26 77.36L1420.26 77.36" stroke="hsl(0, 0%, 100%)" stroke-width="1.5"></path><path d="M1420.26 77.36L1432.46 258.99" stroke="hsl(0, 0%, 100%)" stroke-width="1.5"></path><path d="M1432.46 258.99L1432.46 258.99" stroke="hsl(0, 0%, 100%)" stroke-width="1.5"></path><path d="M1432.46 258.99L1395.64 352.79" stroke="hsl(0, 0%, 100%)" stroke-width="1.5"></path><path d="M1432.46 258.99L1580.08 225.92" stroke="hsl(0, 0%, 100%)" stroke-width="1.5"></path><path d="M1395.64 352.79L1395.64 352.79" stroke="hsl(0, 0%, 100%)" stroke-width="1.5"></path><path d="M1395.64 352.79L1401.65 495.27" stroke="hsl(0, 0%, 100%)" stroke-width="1.5"></path><path d="M1395.64 352.79L1243.9 363.59" stroke="hsl(0, 0%, 100%)" stroke-width="1.5"></path><path d="M1395.64 352.79L1277.2 244.89" stroke="hsl(0, 0%, 100%)" stroke-width="1.5"></path><path d="M1395.64 352.79L1601.37 348.2" stroke="hsl(0, 0%, 100%)" stroke-width="1.5"></path><path d="M1401.65 495.27L1401.65 495.27" stroke="hsl(0, 0%, 100%)" stroke-width="1.5"></path><path d="M1401.65 495.27L1439.65 648.57" stroke="hsl(0, 0%, 100%)" stroke-width="1.5"></path><path d="M1401.65 495.27L1276.26 640.76" stroke="hsl(0, 0%, 100%)" stroke-width="1.5"></path><path d="M1401.65 495.27L1243.9 363.59" stroke="hsl(0, 0%, 100%)" stroke-width="1.5"></path><path d="M1401.65 495.27L1607.32 556.72" stroke="hsl(0, 0%, 100%)" stroke-width="1.5"></path><path d="M1439.65 648.57L1439.65 648.57" stroke="hsl(0, 0%, 100%)" stroke-width="1.5"></path><path d="M1439.65 648.57L1276.26 640.76" stroke="hsl(0, 0%, 100%)" stroke-width="1.5"></path><path d="M1439.65 648.57L1607.32 556.72" stroke="hsl(0, 0%, 100%)" stroke-width="1.5"></path><path d="M1439.65 648.57L1256.74 504.89" stroke="hsl(0, 0%, 100%)" stroke-width="1.5"></path><path d="M1439.65 648.57L1142.07 652.89" stroke="hsl(0, 0%, 100%)" stroke-width="1.5"></path><path d="M1560.46 -62.49L1560.46 -62.49" stroke="hsl(0, 0%, 100%)" stroke-width="1.5"></path><path d="M1560.46 -62.49L1420.26 77.36" stroke="hsl(0, 0%, 100%)" stroke-width="1.5"></path><path d="M1560.46 -62.49L1580.08 225.92" stroke="hsl(0, 0%, 100%)" stroke-width="1.5"></path><path d="M1560.46 -62.49L1250.39 67.48" stroke="hsl(0, 0%, 100%)" stroke-width="1.5"></path><path d="M1580.08 225.92L1580.08 225.92" stroke="hsl(0, 0%, 100%)" stroke-width="1.5"></path><path d="M1580.08 225.92L1601.37 348.2" stroke="hsl(0, 0%, 100%)" stroke-width="1.5"></path><path d="M1580.08 225.92L1420.26 77.36" stroke="hsl(0, 0%, 100%)" stroke-width="1.5"></path><path d="M1601.37 348.2L1601.37 348.2" stroke="hsl(0, 0%, 100%)" stroke-width="1.5"></path><path d="M1601.37 348.2L1432.46 258.99" stroke="hsl(0, 0%, 100%)" stroke-width="1.5"></path><path d="M1607.32 556.72L1607.32 556.72" stroke="hsl(0, 0%, 100%)" stroke-width="1.5"></path><path d="M1607.32 556.72L1601.37 348.2" stroke="hsl(0, 0%, 100%)" stroke-width="1.5"></path><path d="M1607.32 556.72L1395.64 352.79" stroke="hsl(0, 0%, 100%)" stroke-width="1.5"></path><path d="M1607.32 556.72L1580.08 225.92" stroke="hsl(0, 0%, 100%)" stroke-width="1.5"></path><path d="M1607.32 556.72L1276.26 640.76" stroke="hsl(0, 0%, 100%)" stroke-width="1.5"></path><circle r="25" cx="553.6" cy="678.76" fill="url(&quot;#SvgjsRadialGradient1205&quot;)"></circle><circle r="25" cx="795.76" cy="361.53" fill="url(&quot;#SvgjsRadialGradient1205&quot;)"></circle><circle r="25" cx="1142.07" cy="652.89" fill="url(&quot;#SvgjsRadialGradient1205&quot;)"></circle><circle r="25" cx="1250.39" cy="67.48" fill="url(&quot;#SvgjsRadialGradient1205&quot;)"></circle><circle r="25" cx="1277.2" cy="244.89" fill="url(&quot;#SvgjsRadialGradient1205&quot;)"></circle><circle r="25" cx="1243.9" cy="363.59" fill="url(&quot;#SvgjsRadialGradient1205&quot;)"></circle><circle r="25" cx="1575" cy="96.58" fill="url(&quot;#SvgjsRadialGradient1205&quot;)"></circle><circle r="5" cx="-73.25" cy="510.78" fill="#ffffff"></circle><circle r="5" cx="-53.48" cy="645.05" fill="#ffffff"></circle><circle r="5" cx="49.25" cy="503.98" fill="#ffffff"></circle><circle r="5" cx="99.88" cy="651.74" fill="#ffffff"></circle><circle r="5" cx="204.09" cy="680.14" fill="#ffffff"></circle><circle r="5" cx="397.31" cy="520.4" fill="#ffffff"></circle><circle r="5" cx="374.23" cy="663.86" fill="#ffffff"></circle><circle r="5" cx="542.86" cy="515.26" fill="#ffffff"></circle><circle r="5" cx="646.87" cy="395.18" fill="#ffffff"></circle><circle r="5" cx="668.37" cy="525.96" fill="#ffffff"></circle><circle r="5" cx="643.2" cy="677.78" fill="#ffffff"></circle><circle r="5" cx="854.75" cy="536.41" fill="#ffffff"></circle><circle r="5" cx="833.07" cy="664.74" fill="#ffffff"></circle><circle r="5" cx="1001.4" cy="383.2" fill="#ffffff"></circle><circle r="5" cx="1011.11" cy="555.92" fill="#ffffff"></circle><circle r="5" cx="1116.21" cy="365" fill="#ffffff"></circle><circle r="5" cx="1093.77" cy="536.91" fill="#ffffff"></circle><circle r="5" cx="1248.25" cy="-87.06" fill="#ffffff"></circle><circle r="5" cx="1256.74" cy="504.89" fill="#ffffff"></circle><circle r="5" cx="1276.26" cy="640.76" fill="#ffffff"></circle><circle r="5" cx="1415.27" cy="-74.5" fill="#ffffff"></circle><circle r="5" cx="1420.26" cy="77.36" fill="#ffffff"></circle><circle r="5" cx="1432.46" cy="258.99" fill="#ffffff"></circle><circle r="5" cx="1395.64" cy="352.79" fill="#ffffff"></circle><circle r="5" cx="1401.65" cy="495.27" fill="#ffffff"></circle><circle r="5" cx="1439.65" cy="648.57" fill="#ffffff"></circle><circle r="5" cx="1560.46" cy="-62.49" fill="#ffffff"></circle><circle r="5" cx="1580.08" cy="225.92" fill="#ffffff"></circle><circle r="5" cx="1601.37" cy="348.2" fill="#ffffff"></circle><circle r="5" cx="1607.32" cy="556.72" fill="#ffffff"></circle></g><defs><mask id="SvgjsMask1204"><rect width="1440" height="560" fill="#ffffff"></rect></mask><radialGradient id="SvgjsRadialGradient1205"><stop stop-color="#ffffff" offset="0.1"></stop><stop stop-color="rgba(255, 255, 255, 1)" offset="0.2"></stop><stop stop-color="rgba(255, 255, 255, 0)" offset="1"></stop></radialGradient></defs></svg>