<svg xmlns="http://www.w3.org/2000/svg" version="1.1" xmlns:xlink="http://www.w3.org/1999/xlink" xmlns:svgjs="http://svgjs.dev/svgjs" width="1440" height="560" preserveAspectRatio="none" viewBox="0 0 1440 560"><g mask="url(&quot;#SvgjsMask1050&quot;)" fill="none"><rect width="1440" height="560" x="0" y="0" fill="rgba(245, 189, 90, 1)"></rect><path d="M-97.19 560.5L-97.19 560.5" stroke="rgba(135, 32, 32, 1)" stroke-width="1.5"></path><path d="M-97.19 560.5L-92.59 698.83" stroke="rgba(135, 32, 32, 1)" stroke-width="1.5"></path><path d="M-97.19 560.5L86.7 494.34" stroke="rgba(135, 32, 32, 1)" stroke-width="1.5"></path><path d="M-92.59 698.83L-92.59 698.83" stroke="rgba(135, 32, 32, 1)" stroke-width="1.5"></path><path d="M-92.59 698.83L106.34 662.95" stroke="rgba(135, 32, 32, 1)" stroke-width="1.5"></path><path d="M-92.59 698.83L86.7 494.34" stroke="rgba(135, 32, 32, 1)" stroke-width="1.5"></path><path d="M-92.59 698.83L74.65 348.12" stroke="rgba(135, 32, 32, 1)" stroke-width="1.5"></path><path d="M-92.59 698.83L245.77 490.83" stroke="rgba(135, 32, 32, 1)" stroke-width="1.5"></path><path d="M74.65 348.12L74.65 348.12" stroke="rgba(135, 32, 32, 1)" stroke-width="1.5"></path><path d="M74.65 348.12L194.34 390.97" stroke="rgba(135, 32, 32, 1)" stroke-width="1.5"></path><path d="M74.65 348.12L86.7 494.34" stroke="rgba(135, 32, 32, 1)" stroke-width="1.5"></path><path d="M74.65 348.12L245.77 490.83" stroke="rgba(135, 32, 32, 1)" stroke-width="1.5"></path><path d="M74.65 348.12L-97.19 560.5" stroke="rgba(135, 32, 32, 1)" stroke-width="1.5"></path><path d="M74.65 348.12L371.37 343.13" stroke="rgba(135, 32, 32, 1)" stroke-width="1.5"></path><path d="M86.7 494.34L86.7 494.34" stroke="rgba(135, 32, 32, 1)" stroke-width="1.5"></path><path d="M86.7 494.34L194.34 390.97" stroke="rgba(135, 32, 32, 1)" stroke-width="1.5"></path><path d="M86.7 494.34L245.77 490.83" stroke="rgba(135, 32, 32, 1)" stroke-width="1.5"></path><path d="M86.7 494.34L106.34 662.95" stroke="rgba(135, 32, 32, 1)" stroke-width="1.5"></path><path d="M106.34 662.95L106.34 662.95" stroke="rgba(135, 32, 32, 1)" stroke-width="1.5"></path><path d="M106.34 662.95L245.77 490.83" stroke="rgba(135, 32, 32, 1)" stroke-width="1.5"></path><path d="M194.34 390.97L194.34 390.97" stroke="rgba(135, 32, 32, 1)" stroke-width="1.5"></path><path d="M194.34 390.97L245.77 490.83" stroke="rgba(135, 32, 32, 1)" stroke-width="1.5"></path><path d="M194.34 390.97L371.37 343.13" stroke="rgba(135, 32, 32, 1)" stroke-width="1.5"></path><path d="M245.77 490.83L245.77 490.83" stroke="rgba(135, 32, 32, 1)" stroke-width="1.5"></path><path d="M245.77 490.83L406.83 509.52" stroke="rgba(135, 32, 32, 1)" stroke-width="1.5"></path><path d="M245.77 490.83L371.37 343.13" stroke="rgba(135, 32, 32, 1)" stroke-width="1.5"></path><path d="M371.37 343.13L371.37 343.13" stroke="rgba(135, 32, 32, 1)" stroke-width="1.5"></path><path d="M371.37 343.13L406.83 509.52" stroke="rgba(135, 32, 32, 1)" stroke-width="1.5"></path><path d="M371.37 343.13L558.38 391.37" stroke="rgba(135, 32, 32, 1)" stroke-width="1.5"></path><path d="M371.37 343.13L560.66 505.41" stroke="rgba(135, 32, 32, 1)" stroke-width="1.5"></path><path d="M406.83 509.52L406.83 509.52" stroke="rgba(135, 32, 32, 1)" stroke-width="1.5"></path><path d="M406.83 509.52L395.87 662.18" stroke="rgba(135, 32, 32, 1)" stroke-width="1.5"></path><path d="M406.83 509.52L560.66 505.41" stroke="rgba(135, 32, 32, 1)" stroke-width="1.5"></path><path d="M395.87 662.18L395.87 662.18" stroke="rgba(135, 32, 32, 1)" stroke-width="1.5"></path><path d="M395.87 662.18L515.44 709.03" stroke="rgba(135, 32, 32, 1)" stroke-width="1.5"></path><path d="M395.87 662.18L560.66 505.41" stroke="rgba(135, 32, 32, 1)" stroke-width="1.5"></path><path d="M395.87 662.18L245.77 490.83" stroke="rgba(135, 32, 32, 1)" stroke-width="1.5"></path><path d="M395.87 662.18L645.56 656.83" stroke="rgba(135, 32, 32, 1)" stroke-width="1.5"></path><path d="M558.38 391.37L558.38 391.37" stroke="rgba(135, 32, 32, 1)" stroke-width="1.5"></path><path d="M558.38 391.37L560.66 505.41" stroke="rgba(135, 32, 32, 1)" stroke-width="1.5"></path><path d="M558.38 391.37L676.37 352.52" stroke="rgba(135, 32, 32, 1)" stroke-width="1.5"></path><path d="M558.38 391.37L663.03 547.31" stroke="rgba(135, 32, 32, 1)" stroke-width="1.5"></path><path d="M558.38 391.37L406.83 509.52" stroke="rgba(135, 32, 32, 1)" stroke-width="1.5"></path><path d="M560.66 505.41L560.66 505.41" stroke="rgba(135, 32, 32, 1)" stroke-width="1.5"></path><path d="M560.66 505.41L663.03 547.31" stroke="rgba(135, 32, 32, 1)" stroke-width="1.5"></path><path d="M515.44 709.03L515.44 709.03" stroke="rgba(135, 32, 32, 1)" stroke-width="1.5"></path><path d="M515.44 709.03L645.56 656.83" stroke="rgba(135, 32, 32, 1)" stroke-width="1.5"></path><path d="M515.44 709.03L560.66 505.41" stroke="rgba(135, 32, 32, 1)" stroke-width="1.5"></path><path d="M707.4 238.77L707.4 238.77" stroke="rgba(135, 32, 32, 1)" stroke-width="1.5"></path><path d="M707.4 238.77L676.37 352.52" stroke="rgba(135, 32, 32, 1)" stroke-width="1.5"></path><path d="M707.4 238.77L837.54 254.86" stroke="rgba(135, 32, 32, 1)" stroke-width="1.5"></path><path d="M707.4 238.77L847.23 389.63" stroke="rgba(135, 32, 32, 1)" stroke-width="1.5"></path><path d="M707.4 238.77L558.38 391.37" stroke="rgba(135, 32, 32, 1)" stroke-width="1.5"></path><path d="M707.4 238.77L963.49 192.24" stroke="rgba(135, 32, 32, 1)" stroke-width="1.5"></path><path d="M676.37 352.52L676.37 352.52" stroke="rgba(135, 32, 32, 1)" stroke-width="1.5"></path><path d="M676.37 352.52L847.23 389.63" stroke="rgba(135, 32, 32, 1)" stroke-width="1.5"></path><path d="M676.37 352.52L837.54 254.86" stroke="rgba(135, 32, 32, 1)" stroke-width="1.5"></path><path d="M676.37 352.52L560.66 505.41" stroke="rgba(135, 32, 32, 1)" stroke-width="1.5"></path><path d="M676.37 352.52L663.03 547.31" stroke="rgba(135, 32, 32, 1)" stroke-width="1.5"></path><path d="M663.03 547.31L663.03 547.31" stroke="rgba(135, 32, 32, 1)" stroke-width="1.5"></path><path d="M663.03 547.31L645.56 656.83" stroke="rgba(135, 32, 32, 1)" stroke-width="1.5"></path><path d="M645.56 656.83L645.56 656.83" stroke="rgba(135, 32, 32, 1)" stroke-width="1.5"></path><path d="M645.56 656.83L560.66 505.41" stroke="rgba(135, 32, 32, 1)" stroke-width="1.5"></path><path d="M837.54 254.86L837.54 254.86" stroke="rgba(135, 32, 32, 1)" stroke-width="1.5"></path><path d="M837.54 254.86L847.23 389.63" stroke="rgba(135, 32, 32, 1)" stroke-width="1.5"></path><path d="M837.54 254.86L963.49 192.24" stroke="rgba(135, 32, 32, 1)" stroke-width="1.5"></path><path d="M837.54 254.86L952.69 403.01" stroke="rgba(135, 32, 32, 1)" stroke-width="1.5"></path><path d="M837.54 254.86L975.2 72.03" stroke="rgba(135, 32, 32, 1)" stroke-width="1.5"></path><path d="M847.23 389.63L847.23 389.63" stroke="rgba(135, 32, 32, 1)" stroke-width="1.5"></path><path d="M847.23 389.63L952.69 403.01" stroke="rgba(135, 32, 32, 1)" stroke-width="1.5"></path><path d="M847.23 389.63L855.82 555.53" stroke="rgba(135, 32, 32, 1)" stroke-width="1.5"></path><path d="M855.82 555.53L855.82 555.53" stroke="rgba(135, 32, 32, 1)" stroke-width="1.5"></path><path d="M855.82 555.53L945.75 655.12" stroke="rgba(135, 32, 32, 1)" stroke-width="1.5"></path><path d="M855.82 555.53L996.51 552.36" stroke="rgba(135, 32, 32, 1)" stroke-width="1.5"></path><path d="M855.82 555.53L846.52 711.82" stroke="rgba(135, 32, 32, 1)" stroke-width="1.5"></path><path d="M855.82 555.53L952.69 403.01" stroke="rgba(135, 32, 32, 1)" stroke-width="1.5"></path><path d="M846.52 711.82L846.52 711.82" stroke="rgba(135, 32, 32, 1)" stroke-width="1.5"></path><path d="M846.52 711.82L945.75 655.12" stroke="rgba(135, 32, 32, 1)" stroke-width="1.5"></path><path d="M846.52 711.82L645.56 656.83" stroke="rgba(135, 32, 32, 1)" stroke-width="1.5"></path><path d="M846.52 711.82L996.51 552.36" stroke="rgba(135, 32, 32, 1)" stroke-width="1.5"></path><path d="M846.52 711.82L663.03 547.31" stroke="rgba(135, 32, 32, 1)" stroke-width="1.5"></path><path d="M846.52 711.82L1116.07 646.03" stroke="rgba(135, 32, 32, 1)" stroke-width="1.5"></path><path d="M973.72 -67.58L973.72 -67.58" stroke="rgba(135, 32, 32, 1)" stroke-width="1.5"></path><path d="M973.72 -67.58L975.2 72.03" stroke="rgba(135, 32, 32, 1)" stroke-width="1.5"></path><path d="M973.72 -67.58L1140.5 -39.93" stroke="rgba(135, 32, 32, 1)" stroke-width="1.5"></path><path d="M973.72 -67.58L1094.54 66.22" stroke="rgba(135, 32, 32, 1)" stroke-width="1.5"></path><path d="M973.72 -67.58L963.49 192.24" stroke="rgba(135, 32, 32, 1)" stroke-width="1.5"></path><path d="M975.2 72.03L975.2 72.03" stroke="rgba(135, 32, 32, 1)" stroke-width="1.5"></path><path d="M975.2 72.03L1094.54 66.22" stroke="rgba(135, 32, 32, 1)" stroke-width="1.5"></path><path d="M975.2 72.03L963.49 192.24" stroke="rgba(135, 32, 32, 1)" stroke-width="1.5"></path><path d="M975.2 72.03L1140.5 -39.93" stroke="rgba(135, 32, 32, 1)" stroke-width="1.5"></path><path d="M963.49 192.24L963.49 192.24" stroke="rgba(135, 32, 32, 1)" stroke-width="1.5"></path><path d="M963.49 192.24L1094.54 66.22" stroke="rgba(135, 32, 32, 1)" stroke-width="1.5"></path><path d="M963.49 192.24L1140.27 261.64" stroke="rgba(135, 32, 32, 1)" stroke-width="1.5"></path><path d="M952.69 403.01L952.69 403.01" stroke="rgba(135, 32, 32, 1)" stroke-width="1.5"></path><path d="M952.69 403.01L996.51 552.36" stroke="rgba(135, 32, 32, 1)" stroke-width="1.5"></path><path d="M952.69 403.01L1117.61 367.61" stroke="rgba(135, 32, 32, 1)" stroke-width="1.5"></path><path d="M996.51 552.36L996.51 552.36" stroke="rgba(135, 32, 32, 1)" stroke-width="1.5"></path><path d="M996.51 552.36L945.75 655.12" stroke="rgba(135, 32, 32, 1)" stroke-width="1.5"></path><path d="M996.51 552.36L1116.07 646.03" stroke="rgba(135, 32, 32, 1)" stroke-width="1.5"></path><path d="M996.51 552.36L1139.51 496.17" stroke="rgba(135, 32, 32, 1)" stroke-width="1.5"></path><path d="M945.75 655.12L945.75 655.12" stroke="rgba(135, 32, 32, 1)" stroke-width="1.5"></path><path d="M1140.5 -39.93L1140.5 -39.93" stroke="rgba(135, 32, 32, 1)" stroke-width="1.5"></path><path d="M1140.5 -39.93L1094.54 66.22" stroke="rgba(135, 32, 32, 1)" stroke-width="1.5"></path><path d="M1094.54 66.22L1094.54 66.22" stroke="rgba(135, 32, 32, 1)" stroke-width="1.5"></path><path d="M1094.54 66.22L1245.51 51.97" stroke="rgba(135, 32, 32, 1)" stroke-width="1.5"></path><path d="M1140.27 261.64L1140.27 261.64" stroke="rgba(135, 32, 32, 1)" stroke-width="1.5"></path><path d="M1140.27 261.64L1117.61 367.61" stroke="rgba(135, 32, 32, 1)" stroke-width="1.5"></path><path d="M1140.27 261.64L1268.95 238.03" stroke="rgba(135, 32, 32, 1)" stroke-width="1.5"></path><path d="M1140.27 261.64L1094.54 66.22" stroke="rgba(135, 32, 32, 1)" stroke-width="1.5"></path><path d="M1140.27 261.64L1139.51 496.17" stroke="rgba(135, 32, 32, 1)" stroke-width="1.5"></path><path d="M1140.27 261.64L1245.51 51.97" stroke="rgba(135, 32, 32, 1)" stroke-width="1.5"></path><path d="M1117.61 367.61L1117.61 367.61" stroke="rgba(135, 32, 32, 1)" stroke-width="1.5"></path><path d="M1117.61 367.61L1139.51 496.17" stroke="rgba(135, 32, 32, 1)" stroke-width="1.5"></path><path d="M1117.61 367.61L1240.29 490.88" stroke="rgba(135, 32, 32, 1)" stroke-width="1.5"></path><path d="M1117.61 367.61L1268.95 238.03" stroke="rgba(135, 32, 32, 1)" stroke-width="1.5"></path><path d="M1117.61 367.61L996.51 552.36" stroke="rgba(135, 32, 32, 1)" stroke-width="1.5"></path><path d="M1139.51 496.17L1139.51 496.17" stroke="rgba(135, 32, 32, 1)" stroke-width="1.5"></path><path d="M1139.51 496.17L1240.29 490.88" stroke="rgba(135, 32, 32, 1)" stroke-width="1.5"></path><path d="M1139.51 496.17L1116.07 646.03" stroke="rgba(135, 32, 32, 1)" stroke-width="1.5"></path><path d="M1139.51 496.17L952.69 403.01" stroke="rgba(135, 32, 32, 1)" stroke-width="1.5"></path><path d="M1116.07 646.03L1116.07 646.03" stroke="rgba(135, 32, 32, 1)" stroke-width="1.5"></path><path d="M1116.07 646.03L945.75 655.12" stroke="rgba(135, 32, 32, 1)" stroke-width="1.5"></path><path d="M1116.07 646.03L1240.29 490.88" stroke="rgba(135, 32, 32, 1)" stroke-width="1.5"></path><path d="M1116.07 646.03L855.82 555.53" stroke="rgba(135, 32, 32, 1)" stroke-width="1.5"></path><path d="M1260.11 -57.53L1260.11 -57.53" stroke="rgba(135, 32, 32, 1)" stroke-width="1.5"></path><path d="M1260.11 -57.53L1245.51 51.97" stroke="rgba(135, 32, 32, 1)" stroke-width="1.5"></path><path d="M1260.11 -57.53L1140.5 -39.93" stroke="rgba(135, 32, 32, 1)" stroke-width="1.5"></path><path d="M1260.11 -57.53L1393.01 -70.76" stroke="rgba(135, 32, 32, 1)" stroke-width="1.5"></path><path d="M1260.11 -57.53L1404.62 65.56" stroke="rgba(135, 32, 32, 1)" stroke-width="1.5"></path><path d="M1260.11 -57.53L1094.54 66.22" stroke="rgba(135, 32, 32, 1)" stroke-width="1.5"></path><path d="M1245.51 51.97L1245.51 51.97" stroke="rgba(135, 32, 32, 1)" stroke-width="1.5"></path><path d="M1245.51 51.97L1140.5 -39.93" stroke="rgba(135, 32, 32, 1)" stroke-width="1.5"></path><path d="M1245.51 51.97L1404.62 65.56" stroke="rgba(135, 32, 32, 1)" stroke-width="1.5"></path><path d="M1268.95 238.03L1268.95 238.03" stroke="rgba(135, 32, 32, 1)" stroke-width="1.5"></path><path d="M1268.95 238.03L1397.13 197.61" stroke="rgba(135, 32, 32, 1)" stroke-width="1.5"></path><path d="M1268.95 238.03L1245.51 51.97" stroke="rgba(135, 32, 32, 1)" stroke-width="1.5"></path><path d="M1268.95 238.03L1404.62 65.56" stroke="rgba(135, 32, 32, 1)" stroke-width="1.5"></path><path d="M1268.95 238.03L1424.85 396.89" stroke="rgba(135, 32, 32, 1)" stroke-width="1.5"></path><path d="M1240.29 490.88L1240.29 490.88" stroke="rgba(135, 32, 32, 1)" stroke-width="1.5"></path><path d="M1240.29 490.88L1419.65 501.45" stroke="rgba(135, 32, 32, 1)" stroke-width="1.5"></path><path d="M1240.29 490.88L1424.85 396.89" stroke="rgba(135, 32, 32, 1)" stroke-width="1.5"></path><path d="M1393.01 -70.76L1393.01 -70.76" stroke="rgba(135, 32, 32, 1)" stroke-width="1.5"></path><path d="M1393.01 -70.76L1404.62 65.56" stroke="rgba(135, 32, 32, 1)" stroke-width="1.5"></path><path d="M1393.01 -70.76L1568.76 -75.69" stroke="rgba(135, 32, 32, 1)" stroke-width="1.5"></path><path d="M1404.62 65.56L1404.62 65.56" stroke="rgba(135, 32, 32, 1)" stroke-width="1.5"></path><path d="M1404.62 65.56L1397.13 197.61" stroke="rgba(135, 32, 32, 1)" stroke-width="1.5"></path><path d="M1404.62 65.56L1590.88 58.65" stroke="rgba(135, 32, 32, 1)" stroke-width="1.5"></path><path d="M1397.13 197.61L1397.13 197.61" stroke="rgba(135, 32, 32, 1)" stroke-width="1.5"></path><path d="M1397.13 197.61L1545.46 257.54" stroke="rgba(135, 32, 32, 1)" stroke-width="1.5"></path><path d="M1424.85 396.89L1424.85 396.89" stroke="rgba(135, 32, 32, 1)" stroke-width="1.5"></path><path d="M1424.85 396.89L1419.65 501.45" stroke="rgba(135, 32, 32, 1)" stroke-width="1.5"></path><path d="M1424.85 396.89L1555.58 364.66" stroke="rgba(135, 32, 32, 1)" stroke-width="1.5"></path><path d="M1424.85 396.89L1545.46 257.54" stroke="rgba(135, 32, 32, 1)" stroke-width="1.5"></path><path d="M1424.85 396.89L1397.13 197.61" stroke="rgba(135, 32, 32, 1)" stroke-width="1.5"></path><path d="M1419.65 501.45L1419.65 501.45" stroke="rgba(135, 32, 32, 1)" stroke-width="1.5"></path><path d="M1419.65 501.45L1405.86 640.23" stroke="rgba(135, 32, 32, 1)" stroke-width="1.5"></path><path d="M1419.65 501.45L1555.58 364.66" stroke="rgba(135, 32, 32, 1)" stroke-width="1.5"></path><path d="M1405.86 640.23L1405.86 640.23" stroke="rgba(135, 32, 32, 1)" stroke-width="1.5"></path><path d="M1405.86 640.23L1594.3 682.96" stroke="rgba(135, 32, 32, 1)" stroke-width="1.5"></path><path d="M1405.86 640.23L1240.29 490.88" stroke="rgba(135, 32, 32, 1)" stroke-width="1.5"></path><path d="M1568.76 -75.69L1568.76 -75.69" stroke="rgba(135, 32, 32, 1)" stroke-width="1.5"></path><path d="M1568.76 -75.69L1590.88 58.65" stroke="rgba(135, 32, 32, 1)" stroke-width="1.5"></path><path d="M1568.76 -75.69L1404.62 65.56" stroke="rgba(135, 32, 32, 1)" stroke-width="1.5"></path><path d="M1568.76 -75.69L1260.11 -57.53" stroke="rgba(135, 32, 32, 1)" stroke-width="1.5"></path><path d="M1568.76 -75.69L1397.13 197.61" stroke="rgba(135, 32, 32, 1)" stroke-width="1.5"></path><path d="M1568.76 -75.69L1545.46 257.54" stroke="rgba(135, 32, 32, 1)" stroke-width="1.5"></path><path d="M1590.88 58.65L1590.88 58.65" stroke="rgba(135, 32, 32, 1)" stroke-width="1.5"></path><path d="M1545.46 257.54L1545.46 257.54" stroke="rgba(135, 32, 32, 1)" stroke-width="1.5"></path><path d="M1545.46 257.54L1555.58 364.66" stroke="rgba(135, 32, 32, 1)" stroke-width="1.5"></path><path d="M1555.58 364.66L1555.58 364.66" stroke="rgba(135, 32, 32, 1)" stroke-width="1.5"></path><path d="M1555.58 364.66L1397.13 197.61" stroke="rgba(135, 32, 32, 1)" stroke-width="1.5"></path><path d="M1555.58 364.66L1590.88 58.65" stroke="rgba(135, 32, 32, 1)" stroke-width="1.5"></path><path d="M1594.3 682.96L1594.3 682.96" stroke="rgba(135, 32, 32, 1)" stroke-width="1.5"></path><path d="M1594.3 682.96L1419.65 501.45" stroke="rgba(135, 32, 32, 1)" stroke-width="1.5"></path><path d="M1594.3 682.96L1555.58 364.66" stroke="rgba(135, 32, 32, 1)" stroke-width="1.5"></path><path d="M1594.3 682.96L1424.85 396.89" stroke="rgba(135, 32, 32, 1)" stroke-width="1.5"></path><path d="M1594.3 682.96L1240.29 490.88" stroke="rgba(135, 32, 32, 1)" stroke-width="1.5"></path><path d="M1594.3 682.96L1545.46 257.54" stroke="rgba(135, 32, 32, 1)" stroke-width="1.5"></path><circle r="5" cx="-97.19" cy="560.5" fill="rgba(135, 32, 32, 1)"></circle><circle r="5" cx="-92.59" cy="698.83" fill="rgba(135, 32, 32, 1)"></circle><circle r="5" cx="74.65" cy="348.12" fill="rgba(135, 32, 32, 1)"></circle><circle r="5" cx="86.7" cy="494.34" fill="rgba(135, 32, 32, 1)"></circle><circle r="5" cx="106.34" cy="662.95" fill="rgba(135, 32, 32, 1)"></circle><circle r="5" cx="194.34" cy="390.97" fill="rgba(135, 32, 32, 1)"></circle><circle r="5" cx="245.77" cy="490.83" fill="rgba(135, 32, 32, 1)"></circle><circle r="5" cx="371.37" cy="343.13" fill="rgba(135, 32, 32, 1)"></circle><circle r="5" cx="406.83" cy="509.52" fill="rgba(135, 32, 32, 1)"></circle><circle r="5" cx="395.87" cy="662.18" fill="rgba(135, 32, 32, 1)"></circle><circle r="5" cx="558.38" cy="391.37" fill="rgba(135, 32, 32, 1)"></circle><circle r="5" cx="560.66" cy="505.41" fill="rgba(135, 32, 32, 1)"></circle><circle r="5" cx="515.44" cy="709.03" fill="rgba(135, 32, 32, 1)"></circle><circle r="5" cx="707.4" cy="238.77" fill="rgba(135, 32, 32, 1)"></circle><circle r="5" cx="676.37" cy="352.52" fill="rgba(135, 32, 32, 1)"></circle><circle r="5" cx="663.03" cy="547.31" fill="rgba(135, 32, 32, 1)"></circle><circle r="5" cx="645.56" cy="656.83" fill="rgba(135, 32, 32, 1)"></circle><circle r="5" cx="837.54" cy="254.86" fill="rgba(135, 32, 32, 1)"></circle><circle r="5" cx="847.23" cy="389.63" fill="rgba(135, 32, 32, 1)"></circle><circle r="5" cx="855.82" cy="555.53" fill="rgba(135, 32, 32, 1)"></circle><circle r="5" cx="846.52" cy="711.82" fill="rgba(135, 32, 32, 1)"></circle><circle r="5" cx="973.72" cy="-67.58" fill="rgba(135, 32, 32, 1)"></circle><circle r="5" cx="975.2" cy="72.03" fill="rgba(135, 32, 32, 1)"></circle><circle r="5" cx="963.49" cy="192.24" fill="rgba(135, 32, 32, 1)"></circle><circle r="5" cx="952.69" cy="403.01" fill="rgba(135, 32, 32, 1)"></circle><circle r="5" cx="996.51" cy="552.36" fill="rgba(135, 32, 32, 1)"></circle><circle r="5" cx="945.75" cy="655.12" fill="rgba(135, 32, 32, 1)"></circle><circle r="5" cx="1140.5" cy="-39.93" fill="rgba(135, 32, 32, 1)"></circle><circle r="5" cx="1094.54" cy="66.22" fill="rgba(135, 32, 32, 1)"></circle><circle r="5" cx="1140.27" cy="261.64" fill="rgba(135, 32, 32, 1)"></circle><circle r="5" cx="1117.61" cy="367.61" fill="rgba(135, 32, 32, 1)"></circle><circle r="5" cx="1139.51" cy="496.17" fill="rgba(135, 32, 32, 1)"></circle><circle r="5" cx="1116.07" cy="646.03" fill="rgba(135, 32, 32, 1)"></circle><circle r="5" cx="1260.11" cy="-57.53" fill="rgba(135, 32, 32, 1)"></circle><circle r="5" cx="1245.51" cy="51.97" fill="rgba(135, 32, 32, 1)"></circle><circle r="5" cx="1268.95" cy="238.03" fill="rgba(135, 32, 32, 1)"></circle><circle r="5" cx="1240.29" cy="490.88" fill="rgba(135, 32, 32, 1)"></circle><circle r="5" cx="1393.01" cy="-70.76" fill="rgba(135, 32, 32, 1)"></circle><circle r="5" cx="1404.62" cy="65.56" fill="rgba(135, 32, 32, 1)"></circle><circle r="5" cx="1397.13" cy="197.61" fill="rgba(135, 32, 32, 1)"></circle><circle r="5" cx="1424.85" cy="396.89" fill="rgba(135, 32, 32, 1)"></circle><circle r="5" cx="1419.65" cy="501.45" fill="rgba(135, 32, 32, 1)"></circle><circle r="5" cx="1405.86" cy="640.23" fill="rgba(135, 32, 32, 1)"></circle><circle r="5" cx="1568.76" cy="-75.69" fill="rgba(135, 32, 32, 1)"></circle><circle r="5" cx="1590.88" cy="58.65" fill="rgba(135, 32, 32, 1)"></circle><circle r="5" cx="1545.46" cy="257.54" fill="rgba(135, 32, 32, 1)"></circle><circle r="5" cx="1555.58" cy="364.66" fill="rgba(135, 32, 32, 1)"></circle><circle r="5" cx="1594.3" cy="682.96" fill="rgba(135, 32, 32, 1)"></circle><path d="M-88.95 548.31L-88.95 548.31" stroke="hsla(0, 0%, 100%, 0.72)" stroke-width="1.5"></path><path d="M-88.95 548.31L-55.29 707.03" stroke="hsla(0, 0%, 100%, 0.72)" stroke-width="1.5"></path><path d="M-88.95 548.31L111.04 492.42" stroke="hsla(0, 0%, 100%, 0.72)" stroke-width="1.5"></path><path d="M681.96 401.04L681.96 401.04" stroke="hsla(0, 0%, 100%, 0.72)" stroke-width="1.5"></path><path d="M681.96 401.04L661.14 540.1" stroke="hsla(0, 0%, 100%, 0.72)" stroke-width="1.5"></path><path d="M681.96 401.04L541.92 506.25" stroke="hsla(0, 0%, 100%, 0.72)" stroke-width="1.5"></path><path d="M791.97 703.75L791.97 703.75" stroke="hsla(0, 0%, 100%, 0.72)" stroke-width="1.5"></path><path d="M791.97 703.75L652.99 695.61" stroke="hsla(0, 0%, 100%, 0.72)" stroke-width="1.5"></path><path d="M791.97 703.75L821.95 527.5" stroke="hsla(0, 0%, 100%, 0.72)" stroke-width="1.5"></path><path d="M791.97 703.75L981.2 689.21" stroke="hsla(0, 0%, 100%, 0.72)" stroke-width="1.5"></path><path d="M791.97 703.75L661.14 540.1" stroke="hsla(0, 0%, 100%, 0.72)" stroke-width="1.5"></path><path d="M1438.17 339.89L1438.17 339.89" stroke="hsla(0, 0%, 100%, 0.72)" stroke-width="1.5"></path><path d="M1438.17 339.89L1460.83 233.69" stroke="hsla(0, 0%, 100%, 0.72)" stroke-width="1.5"></path><path d="M1438.17 339.89L1576.61 410.07" stroke="hsla(0, 0%, 100%, 0.72)" stroke-width="1.5"></path><path d="M1594.97 64.35L1594.97 64.35" stroke="hsla(0, 0%, 100%, 0.72)" stroke-width="1.5"></path><path d="M1594.97 64.35L1593.78 -50.88" stroke="hsla(0, 0%, 100%, 0.72)" stroke-width="1.5"></path><path d="M1594.97 64.35L1599.46 255.86" stroke="hsla(0, 0%, 100%, 0.72)" stroke-width="1.5"></path><path d="M1594.97 64.35L1453.37 -73.75" stroke="hsla(0, 0%, 100%, 0.72)" stroke-width="1.5"></path><path d="M1594.97 64.35L1460.83 233.69" stroke="hsla(0, 0%, 100%, 0.72)" stroke-width="1.5"></path><path d="M1594.97 64.35L1283.46 68.46" stroke="hsla(0, 0%, 100%, 0.72)" stroke-width="1.5"></path><path d="M1576.61 410.07L1576.61 410.07" stroke="hsla(0, 0%, 100%, 0.72)" stroke-width="1.5"></path><path d="M1576.61 410.07L1566.83 549.22" stroke="hsla(0, 0%, 100%, 0.72)" stroke-width="1.5"></path><path d="M1576.61 410.07L1599.46 255.86" stroke="hsla(0, 0%, 100%, 0.72)" stroke-width="1.5"></path><path d="M1576.61 410.07L1425.97 546.02" stroke="hsla(0, 0%, 100%, 0.72)" stroke-width="1.5"></path><path d="M1576.61 410.07L1460.83 233.69" stroke="hsla(0, 0%, 100%, 0.72)" stroke-width="1.5"></path><path d="M-55.29 707.03L-55.29 707.03" stroke="hsla(0, 0%, 100%, 0.72)" stroke-width="1.5"></path><path d="M-55.29 707.03L109 701.2" stroke="hsla(0, 0%, 100%, 0.72)" stroke-width="1.5"></path><path d="M-55.29 707.03L211.87 680.52" stroke="hsla(0, 0%, 100%, 0.72)" stroke-width="1.5"></path><path d="M111.04 492.42L111.04 492.42" stroke="hsla(0, 0%, 100%, 0.72)" stroke-width="1.5"></path><path d="M111.04 492.42L215.56 543.27" stroke="hsla(0, 0%, 100%, 0.72)" stroke-width="1.5"></path><path d="M111.04 492.42L109 701.2" stroke="hsla(0, 0%, 100%, 0.72)" stroke-width="1.5"></path><path d="M111.04 492.42L211.87 680.52" stroke="hsla(0, 0%, 100%, 0.72)" stroke-width="1.5"></path><path d="M109 701.2L109 701.2" stroke="hsla(0, 0%, 100%, 0.72)" stroke-width="1.5"></path><path d="M109 701.2L211.87 680.52" stroke="hsla(0, 0%, 100%, 0.72)" stroke-width="1.5"></path><path d="M215.56 543.27L215.56 543.27" stroke="hsla(0, 0%, 100%, 0.72)" stroke-width="1.5"></path><path d="M215.56 543.27L211.87 680.52" stroke="hsla(0, 0%, 100%, 0.72)" stroke-width="1.5"></path><path d="M211.87 680.52L211.87 680.52" stroke="hsla(0, 0%, 100%, 0.72)" stroke-width="1.5"></path><path d="M211.87 680.52L346.75 649.35" stroke="hsla(0, 0%, 100%, 0.72)" stroke-width="1.5"></path><path d="M404.11 529.89L404.11 529.89" stroke="hsla(0, 0%, 100%, 0.72)" stroke-width="1.5"></path><path d="M404.11 529.89L346.75 649.35" stroke="hsla(0, 0%, 100%, 0.72)" stroke-width="1.5"></path><path d="M404.11 529.89L541.92 506.25" stroke="hsla(0, 0%, 100%, 0.72)" stroke-width="1.5"></path><path d="M404.11 529.89L215.56 543.27" stroke="hsla(0, 0%, 100%, 0.72)" stroke-width="1.5"></path><path d="M404.11 529.89L510.83 701.53" stroke="hsla(0, 0%, 100%, 0.72)" stroke-width="1.5"></path><path d="M346.75 649.35L346.75 649.35" stroke="hsla(0, 0%, 100%, 0.72)" stroke-width="1.5"></path><path d="M346.75 649.35L215.56 543.27" stroke="hsla(0, 0%, 100%, 0.72)" stroke-width="1.5"></path><path d="M346.75 649.35L510.83 701.53" stroke="hsla(0, 0%, 100%, 0.72)" stroke-width="1.5"></path><path d="M346.75 649.35L541.92 506.25" stroke="hsla(0, 0%, 100%, 0.72)" stroke-width="1.5"></path><path d="M346.75 649.35L109 701.2" stroke="hsla(0, 0%, 100%, 0.72)" stroke-width="1.5"></path><path d="M541.92 506.25L541.92 506.25" stroke="hsla(0, 0%, 100%, 0.72)" stroke-width="1.5"></path><path d="M541.92 506.25L661.14 540.1" stroke="hsla(0, 0%, 100%, 0.72)" stroke-width="1.5"></path><path d="M510.83 701.53L510.83 701.53" stroke="hsla(0, 0%, 100%, 0.72)" stroke-width="1.5"></path><path d="M510.83 701.53L652.99 695.61" stroke="hsla(0, 0%, 100%, 0.72)" stroke-width="1.5"></path><path d="M661.14 540.1L661.14 540.1" stroke="hsla(0, 0%, 100%, 0.72)" stroke-width="1.5"></path><path d="M661.14 540.1L652.99 695.61" stroke="hsla(0, 0%, 100%, 0.72)" stroke-width="1.5"></path><path d="M661.14 540.1L821.95 527.5" stroke="hsla(0, 0%, 100%, 0.72)" stroke-width="1.5"></path><path d="M652.99 695.61L652.99 695.61" stroke="hsla(0, 0%, 100%, 0.72)" stroke-width="1.5"></path><path d="M862.41 407.46L862.41 407.46" stroke="hsla(0, 0%, 100%, 0.72)" stroke-width="1.5"></path><path d="M862.41 407.46L821.95 527.5" stroke="hsla(0, 0%, 100%, 0.72)" stroke-width="1.5"></path><path d="M862.41 407.46L971.81 341.55" stroke="hsla(0, 0%, 100%, 0.72)" stroke-width="1.5"></path><path d="M862.41 407.46L949.93 539.79" stroke="hsla(0, 0%, 100%, 0.72)" stroke-width="1.5"></path><path d="M862.41 407.46L681.96 401.04" stroke="hsla(0, 0%, 100%, 0.72)" stroke-width="1.5"></path><path d="M862.41 407.46L661.14 540.1" stroke="hsla(0, 0%, 100%, 0.72)" stroke-width="1.5"></path><path d="M821.95 527.5L821.95 527.5" stroke="hsla(0, 0%, 100%, 0.72)" stroke-width="1.5"></path><path d="M821.95 527.5L949.93 539.79" stroke="hsla(0, 0%, 100%, 0.72)" stroke-width="1.5"></path><path d="M971.81 341.55L971.81 341.55" stroke="hsla(0, 0%, 100%, 0.72)" stroke-width="1.5"></path><path d="M971.81 341.55L1103.41 352.02" stroke="hsla(0, 0%, 100%, 0.72)" stroke-width="1.5"></path><path d="M971.81 341.55L1101.84 206.64" stroke="hsla(0, 0%, 100%, 0.72)" stroke-width="1.5"></path><path d="M971.81 341.55L949.93 539.79" stroke="hsla(0, 0%, 100%, 0.72)" stroke-width="1.5"></path><path d="M971.81 341.55L821.95 527.5" stroke="hsla(0, 0%, 100%, 0.72)" stroke-width="1.5"></path><path d="M971.81 341.55L1126.33 524.28" stroke="hsla(0, 0%, 100%, 0.72)" stroke-width="1.5"></path><path d="M949.93 539.79L949.93 539.79" stroke="hsla(0, 0%, 100%, 0.72)" stroke-width="1.5"></path><path d="M949.93 539.79L981.2 689.21" stroke="hsla(0, 0%, 100%, 0.72)" stroke-width="1.5"></path><path d="M949.93 539.79L1126.33 524.28" stroke="hsla(0, 0%, 100%, 0.72)" stroke-width="1.5"></path><path d="M949.93 539.79L1121.38 663.27" stroke="hsla(0, 0%, 100%, 0.72)" stroke-width="1.5"></path><path d="M981.2 689.21L981.2 689.21" stroke="hsla(0, 0%, 100%, 0.72)" stroke-width="1.5"></path><path d="M981.2 689.21L1121.38 663.27" stroke="hsla(0, 0%, 100%, 0.72)" stroke-width="1.5"></path><path d="M981.2 689.21L1126.33 524.28" stroke="hsla(0, 0%, 100%, 0.72)" stroke-width="1.5"></path><path d="M981.2 689.21L821.95 527.5" stroke="hsla(0, 0%, 100%, 0.72)" stroke-width="1.5"></path><path d="M1101.84 206.64L1101.84 206.64" stroke="hsla(0, 0%, 100%, 0.72)" stroke-width="1.5"></path><path d="M1101.84 206.64L1103.41 352.02" stroke="hsla(0, 0%, 100%, 0.72)" stroke-width="1.5"></path><path d="M1101.84 206.64L1243.37 255.17" stroke="hsla(0, 0%, 100%, 0.72)" stroke-width="1.5"></path><path d="M1103.41 352.02L1103.41 352.02" stroke="hsla(0, 0%, 100%, 0.72)" stroke-width="1.5"></path><path d="M1103.41 352.02L1254.12 377.91" stroke="hsla(0, 0%, 100%, 0.72)" stroke-width="1.5"></path><path d="M1126.33 524.28L1126.33 524.28" stroke="hsla(0, 0%, 100%, 0.72)" stroke-width="1.5"></path><path d="M1126.33 524.28L1121.38 663.27" stroke="hsla(0, 0%, 100%, 0.72)" stroke-width="1.5"></path><path d="M1126.33 524.28L1282.26 560.5" stroke="hsla(0, 0%, 100%, 0.72)" stroke-width="1.5"></path><path d="M1126.33 524.28L1103.41 352.02" stroke="hsla(0, 0%, 100%, 0.72)" stroke-width="1.5"></path><path d="M1126.33 524.28L1254.12 377.91" stroke="hsla(0, 0%, 100%, 0.72)" stroke-width="1.5"></path><path d="M1121.38 663.27L1121.38 663.27" stroke="hsla(0, 0%, 100%, 0.72)" stroke-width="1.5"></path><path d="M1121.38 663.27L1282.26 560.5" stroke="hsla(0, 0%, 100%, 0.72)" stroke-width="1.5"></path><path d="M1265.98 -94.88L1265.98 -94.88" stroke="hsla(0, 0%, 100%, 0.72)" stroke-width="1.5"></path><path d="M1265.98 -94.88L1283.46 68.46" stroke="hsla(0, 0%, 100%, 0.72)" stroke-width="1.5"></path><path d="M1265.98 -94.88L1453.37 -73.75" stroke="hsla(0, 0%, 100%, 0.72)" stroke-width="1.5"></path><path d="M1283.46 68.46L1283.46 68.46" stroke="hsla(0, 0%, 100%, 0.72)" stroke-width="1.5"></path><path d="M1283.46 68.46L1243.37 255.17" stroke="hsla(0, 0%, 100%, 0.72)" stroke-width="1.5"></path><path d="M1243.37 255.17L1243.37 255.17" stroke="hsla(0, 0%, 100%, 0.72)" stroke-width="1.5"></path><path d="M1243.37 255.17L1254.12 377.91" stroke="hsla(0, 0%, 100%, 0.72)" stroke-width="1.5"></path><path d="M1243.37 255.17L1103.41 352.02" stroke="hsla(0, 0%, 100%, 0.72)" stroke-width="1.5"></path><path d="M1243.37 255.17L1438.17 339.89" stroke="hsla(0, 0%, 100%, 0.72)" stroke-width="1.5"></path><path d="M1243.37 255.17L1460.83 233.69" stroke="hsla(0, 0%, 100%, 0.72)" stroke-width="1.5"></path><path d="M1254.12 377.91L1254.12 377.91" stroke="hsla(0, 0%, 100%, 0.72)" stroke-width="1.5"></path><path d="M1254.12 377.91L1282.26 560.5" stroke="hsla(0, 0%, 100%, 0.72)" stroke-width="1.5"></path><path d="M1254.12 377.91L1438.17 339.89" stroke="hsla(0, 0%, 100%, 0.72)" stroke-width="1.5"></path><path d="M1282.26 560.5L1282.26 560.5" stroke="hsla(0, 0%, 100%, 0.72)" stroke-width="1.5"></path><path d="M1282.26 560.5L1425.97 546.02" stroke="hsla(0, 0%, 100%, 0.72)" stroke-width="1.5"></path><path d="M1453.37 -73.75L1453.37 -73.75" stroke="hsla(0, 0%, 100%, 0.72)" stroke-width="1.5"></path><path d="M1453.37 -73.75L1593.78 -50.88" stroke="hsla(0, 0%, 100%, 0.72)" stroke-width="1.5"></path><path d="M1453.37 -73.75L1283.46 68.46" stroke="hsla(0, 0%, 100%, 0.72)" stroke-width="1.5"></path><path d="M1453.37 -73.75L1460.83 233.69" stroke="hsla(0, 0%, 100%, 0.72)" stroke-width="1.5"></path><path d="M1460.83 233.69L1460.83 233.69" stroke="hsla(0, 0%, 100%, 0.72)" stroke-width="1.5"></path><path d="M1460.83 233.69L1599.46 255.86" stroke="hsla(0, 0%, 100%, 0.72)" stroke-width="1.5"></path><path d="M1425.97 546.02L1425.97 546.02" stroke="hsla(0, 0%, 100%, 0.72)" stroke-width="1.5"></path><path d="M1425.97 546.02L1413.83 672.83" stroke="hsla(0, 0%, 100%, 0.72)" stroke-width="1.5"></path><path d="M1425.97 546.02L1566.83 549.22" stroke="hsla(0, 0%, 100%, 0.72)" stroke-width="1.5"></path><path d="M1425.97 546.02L1578.21 661.69" stroke="hsla(0, 0%, 100%, 0.72)" stroke-width="1.5"></path><path d="M1425.97 546.02L1438.17 339.89" stroke="hsla(0, 0%, 100%, 0.72)" stroke-width="1.5"></path><path d="M1413.83 672.83L1413.83 672.83" stroke="hsla(0, 0%, 100%, 0.72)" stroke-width="1.5"></path><path d="M1413.83 672.83L1578.21 661.69" stroke="hsla(0, 0%, 100%, 0.72)" stroke-width="1.5"></path><path d="M1593.78 -50.88L1593.78 -50.88" stroke="hsla(0, 0%, 100%, 0.72)" stroke-width="1.5"></path><path d="M1593.78 -50.88L1599.46 255.86" stroke="hsla(0, 0%, 100%, 0.72)" stroke-width="1.5"></path><path d="M1599.46 255.86L1599.46 255.86" stroke="hsla(0, 0%, 100%, 0.72)" stroke-width="1.5"></path><path d="M1599.46 255.86L1438.17 339.89" stroke="hsla(0, 0%, 100%, 0.72)" stroke-width="1.5"></path><path d="M1566.83 549.22L1566.83 549.22" stroke="hsla(0, 0%, 100%, 0.72)" stroke-width="1.5"></path><path d="M1566.83 549.22L1578.21 661.69" stroke="hsla(0, 0%, 100%, 0.72)" stroke-width="1.5"></path><path d="M1566.83 549.22L1413.83 672.83" stroke="hsla(0, 0%, 100%, 0.72)" stroke-width="1.5"></path><path d="M1566.83 549.22L1438.17 339.89" stroke="hsla(0, 0%, 100%, 0.72)" stroke-width="1.5"></path><path d="M1566.83 549.22L1282.26 560.5" stroke="hsla(0, 0%, 100%, 0.72)" stroke-width="1.5"></path><path d="M1578.21 661.69L1578.21 661.69" stroke="hsla(0, 0%, 100%, 0.72)" stroke-width="1.5"></path><path d="M1578.21 661.69L1576.61 410.07" stroke="hsla(0, 0%, 100%, 0.72)" stroke-width="1.5"></path><path d="M1578.21 661.69L1282.26 560.5" stroke="hsla(0, 0%, 100%, 0.72)" stroke-width="1.5"></path><path d="M1578.21 661.69L1438.17 339.89" stroke="hsla(0, 0%, 100%, 0.72)" stroke-width="1.5"></path><circle r="25" cx="-88.95" cy="548.31" fill="url(&quot;#SvgjsRadialGradient1051&quot;)"></circle><circle r="25" cx="681.96" cy="401.04" fill="url(&quot;#SvgjsRadialGradient1051&quot;)"></circle><circle r="25" cx="791.97" cy="703.75" fill="url(&quot;#SvgjsRadialGradient1051&quot;)"></circle><circle r="25" cx="1438.17" cy="339.89" fill="url(&quot;#SvgjsRadialGradient1051&quot;)"></circle><circle r="25" cx="1594.97" cy="64.35" fill="url(&quot;#SvgjsRadialGradient1051&quot;)"></circle><circle r="25" cx="1576.61" cy="410.07" fill="url(&quot;#SvgjsRadialGradient1051&quot;)"></circle><circle r="5" cx="-55.29" cy="707.03" fill="rgba(255, 255, 255, 0.86)"></circle><circle r="5" cx="111.04" cy="492.42" fill="rgba(255, 255, 255, 0.86)"></circle><circle r="5" cx="109" cy="701.2" fill="rgba(255, 255, 255, 0.86)"></circle><circle r="5" cx="215.56" cy="543.27" fill="rgba(255, 255, 255, 0.86)"></circle><circle r="5" cx="211.87" cy="680.52" fill="rgba(255, 255, 255, 0.86)"></circle><circle r="5" cx="404.11" cy="529.89" fill="rgba(255, 255, 255, 0.86)"></circle><circle r="5" cx="346.75" cy="649.35" fill="rgba(255, 255, 255, 0.86)"></circle><circle r="5" cx="541.92" cy="506.25" fill="rgba(255, 255, 255, 0.86)"></circle><circle r="5" cx="510.83" cy="701.53" fill="rgba(255, 255, 255, 0.86)"></circle><circle r="5" cx="661.14" cy="540.1" fill="rgba(255, 255, 255, 0.86)"></circle><circle r="5" cx="652.99" cy="695.61" fill="rgba(255, 255, 255, 0.86)"></circle><circle r="5" cx="862.41" cy="407.46" fill="rgba(255, 255, 255, 0.86)"></circle><circle r="5" cx="821.95" cy="527.5" fill="rgba(255, 255, 255, 0.86)"></circle><circle r="5" cx="971.81" cy="341.55" fill="rgba(255, 255, 255, 0.86)"></circle><circle r="5" cx="949.93" cy="539.79" fill="rgba(255, 255, 255, 0.86)"></circle><circle r="5" cx="981.2" cy="689.21" fill="rgba(255, 255, 255, 0.86)"></circle><circle r="5" cx="1101.84" cy="206.64" fill="rgba(255, 255, 255, 0.86)"></circle><circle r="5" cx="1103.41" cy="352.02" fill="rgba(255, 255, 255, 0.86)"></circle><circle r="5" cx="1126.33" cy="524.28" fill="rgba(255, 255, 255, 0.86)"></circle><circle r="5" cx="1121.38" cy="663.27" fill="rgba(255, 255, 255, 0.86)"></circle><circle r="5" cx="1265.98" cy="-94.88" fill="rgba(255, 255, 255, 0.86)"></circle><circle r="5" cx="1283.46" cy="68.46" fill="rgba(255, 255, 255, 0.86)"></circle><circle r="5" cx="1243.37" cy="255.17" fill="rgba(255, 255, 255, 0.86)"></circle><circle r="5" cx="1254.12" cy="377.91" fill="rgba(255, 255, 255, 0.86)"></circle><circle r="5" cx="1282.26" cy="560.5" fill="rgba(255, 255, 255, 0.86)"></circle><circle r="5" cx="1453.37" cy="-73.75" fill="rgba(255, 255, 255, 0.86)"></circle><circle r="5" cx="1460.83" cy="233.69" fill="rgba(255, 255, 255, 0.86)"></circle><circle r="5" cx="1425.97" cy="546.02" fill="rgba(255, 255, 255, 0.86)"></circle><circle r="5" cx="1413.83" cy="672.83" fill="rgba(255, 255, 255, 0.86)"></circle><circle r="5" cx="1593.78" cy="-50.88" fill="rgba(255, 255, 255, 0.86)"></circle><circle r="5" cx="1599.46" cy="255.86" fill="rgba(255, 255, 255, 0.86)"></circle><circle r="5" cx="1566.83" cy="549.22" fill="rgba(255, 255, 255, 0.86)"></circle><circle r="5" cx="1578.21" cy="661.69" fill="rgba(255, 255, 255, 0.86)"></circle></g><defs><mask id="SvgjsMask1050"><rect width="1440" height="560" fill="#ffffff"></rect></mask><radialGradient id="SvgjsRadialGradient1051"><stop stop-color="#ffffff" offset="0.1"></stop><stop stop-color="rgba(255, 255, 255, 0.72)" offset="0.2"></stop><stop stop-color="rgba(255, 255, 255, 0)" offset="1"></stop></radialGradient></defs></svg>