<svg xmlns="http://www.w3.org/2000/svg" version="1.1" xmlns:xlink="http://www.w3.org/1999/xlink" xmlns:svgjs="http://svgjs.dev/svgjs" width="1440" height="560" preserveAspectRatio="none" viewBox="0 0 1440 560"><g mask="url(&quot;#SvgjsMask1910&quot;)" fill="none"><rect width="1440" height="560" x="0" y="0" fill="url(&quot;#SvgjsLinearGradient1911&quot;)"></rect><path d="M1440 0L1217.68 0L1440 203.04z" fill="rgba(255, 255, 255, .1)"></path><path d="M1217.68 0L1440 203.04L1440 247.14L823.2800000000001 0z" fill="rgba(255, 255, 255, .075)"></path><path d="M823.28 0L1440 247.14L1440 371.16999999999996L715.64 0z" fill="rgba(255, 255, 255, .05)"></path><path d="M715.64 0L1440 371.16999999999996L1440 373.46L465.46 0z" fill="rgba(255, 255, 255, .025)"></path><path d="M0 560L687.27 560L0 307.99z" fill="rgba(0, 0, 0, .1)"></path><path d="M0 307.99L687.27 560L988.21 560L0 168.66z" fill="rgba(0, 0, 0, .075)"></path><path d="M0 168.65999999999997L988.21 560L1226.04 560L0 129.41999999999996z" fill="rgba(0, 0, 0, .05)"></path><path d="M0 129.41999999999996L1226.04 560L1229.44 560L0 107.31999999999996z" fill="rgba(0, 0, 0, .025)"></path></g><defs><mask id="SvgjsMask1910"><rect width="1440" height="560" fill="#ffffff"></rect></mask><linearGradient x1="15.28%" y1="-39.29%" x2="84.72%" y2="139.29%" gradientUnits="userSpaceOnUse" id="SvgjsLinearGradient1911"><stop stop-color="#0e2a47" offset="0"></stop><stop stop-color="rgba(239, 165, 30, 1)" offset="1"></stop></linearGradient></defs></svg>