<svg xmlns="http://www.w3.org/2000/svg" version="1.1" xmlns:xlink="http://www.w3.org/1999/xlink" xmlns:svgjs="http://svgjs.dev/svgjs" width="1440" height="564" preserveAspectRatio="none" viewBox="0 0 1440 564"><g mask="url(&quot;#SvgjsMask1070&quot;)" fill="none"><rect width="1440" height="564" x="0" y="0" fill="rgba(0, 191, 166, 1)"></rect><circle r="4.815" cx="969.565" cy="376.405" filter="url(#SvgjsFilter1071)" fill="rgba(66, 68, 90, 1)"></circle><circle r="7.98" cx="718.21" cy="115.34" filter="url(#SvgjsFilter1071)" fill="rgba(66, 68, 90, 1)"></circle><circle r="6.8" cx="1088.1699999999998" cy="78.66" filter="url(#SvgjsFilter1071)" fill="rgba(66, 68, 90, 1)"></circle><circle r="7.86" cx="569.79" cy="425.67" filter="url(#SvgjsFilter1071)" fill="rgba(66, 68, 90, 1)"></circle><circle r="4.875" cx="1075.145" cy="446.045" filter="url(#SvgjsFilter1071)" fill="rgba(66, 68, 90, 1)"></circle><circle r="4.88" cx="44.49" cy="498.21" filter="url(#SvgjsFilter1071)" fill="rgba(66, 68, 90, 1)"></circle><circle r="8.015" cx="848.905" cy="119.205" filter="url(#SvgjsFilter1071)" fill="rgba(66, 68, 90, 1)"></circle><circle r="5.16" cx="1156.5500000000002" cy="114.16" filter="url(#SvgjsFilter1071)" fill="rgba(66, 68, 90, 1)"></circle><circle r="8.41" cx="237.34" cy="127.56" filter="url(#SvgjsFilter1071)" fill="rgba(66, 68, 90, 1)"></circle><circle r="7.04" cx="1226.25" cy="375.37" filter="url(#SvgjsFilter1071)" fill="rgba(66, 68, 90, 1)"></circle><circle r="5.335" cx="1197.635" cy="254.275" filter="url(#SvgjsFilter1071)" fill="rgba(66, 68, 90, 1)"></circle><circle r="7.02" cx="275.5" cy="444.59" filter="url(#SvgjsFilter1071)" fill="rgba(66, 68, 90, 1)"></circle><circle r="9.03" cx="1257.03" cy="27.53" filter="url(#SvgjsFilter1071)" fill="rgba(66, 68, 90, 1)"></circle><circle r="7.515" cx="577.4449999999999" cy="264.16499999999996" filter="url(#SvgjsFilter1071)" fill="rgba(66, 68, 90, 1)"></circle><circle r="8.715" cx="716.1550000000001" cy="514.275" filter="url(#SvgjsFilter1071)" fill="rgba(66, 68, 90, 1)"></circle><circle r="4.825" cx="229.08499999999998" cy="342.22499999999997" filter="url(#SvgjsFilter1071)" fill="rgba(66, 68, 90, 1)"></circle><circle r="8.15" cx="989.59" cy="263.06" filter="url(#SvgjsFilter1071)" fill="rgba(66, 68, 90, 1)"></circle><circle r="8.18" cx="543.18" cy="221.39000000000001" filter="url(#SvgjsFilter1071)" fill="rgba(66, 68, 90, 1)"></circle><circle r="6.335" cx="888.125" cy="34.214999999999996" filter="url(#SvgjsFilter1071)" fill="rgba(66, 68, 90, 1)"></circle><circle r="7.01" cx="609.3" cy="525.91" filter="url(#SvgjsFilter1071)" fill="rgba(66, 68, 90, 1)"></circle><path d="M1255.9 419.4L1246.5 369.2 1257.4 354 1260.5 371C1260.4 372.9 1262.2 373.7 1264.1 373.8 1265.5 373.3 1266.9 371.5 1266.4 370.2L1262.5 346.7 1272.8 331.5 1280.4 348.2 1272.1 370.6C1272.1 370.6 1272.1 371.3 1272.1 371.3 1271.9 372.6 1273.1 373.9 1274.3 374.7 1276.3 374.8 1277.6 374.3 1278.4 372.4L1284.2 356.2 1291.8 372.9 1275 421C1275 421 1274.3 421.6 1274.3 421.6 1274.2 422.8 1275.4 424.2 1276.6 425 1278.5 425.7 1280.5 424.6 1280.6 422.7L1295.7 380.9 1305.6 401 1298.9 419.7C1298.9 419.7 1298.9 419.7 1298.8 420.4 1298.7 421.6 1299.2 423 1300.5 423.7 1302.4 423.9 1304.3 423.4 1305.1 421.5L1309.4 409 1316.5 423.8C1317 425.7 1318.9 425.9 1320.2 425.4 1322.2 424.9 1323 423 1321.9 421L1315.4 406.3 1327.2 411.2C1329.1 411.3 1331.1 410.8 1331.2 408.9 1332 407.1 1331.5 405.7 1329.6 404.9L1310.9 398.3 1301.7 378.2 1344.1 393.3C1345.3 394 1347.3 392.9 1348.1 391.1 1348.2 389.8 1347.7 387.8 1345.9 387L1297.8 370.2 1290.2 353.5 1306.4 359.4C1308.3 360.1 1309.7 359 1310.5 357.1 1311.2 355.9 1310.1 353.9 1308.9 353.1L1286.4 345.5 1278.1 328.8 1296.6 330.3 1311.8 348.2C1313 349.6 1314.9 349.8 1316.3 348.6 1317.6 348.1 1317.9 345.5 1316.7 344.1L1305.6 331 1324.1 332.6 1356.8 371.9C1357.9 373.2 1359.9 373.4 1361.2 372.2 1362.6 371.1 1362.8 369.1 1361.6 367.8L1333 333.3 1354.7 335.1 1367.5 350.3C1368.7 351.7 1370.6 351.8 1372 350.6 1373.4 349.5 1373.6 347.6 1372.4 346.2L1364.2 335.9 1380.2 337.2C1382.1 337.4 1383.5 336.2 1383.6 334.3 1383.8 332.4 1382.6 331 1380.7 330.8L1364.8 329.5 1374.4 321.3C1375.8 320.1 1376 318.2 1374.8 316.8S1371.7 315.3 1370.3 316.5L1355.8 328.8 1333.5 326.9 1367.4 298.2C1368.7 297.1 1368.9 295.2 1367.7 293.8 1366.6 292.4 1364.6 292.2 1363.3 293.4L1324.6 326.2 1306.1 324.6 1319.2 313.5C1320.6 312.4 1320.8 310.4 1319.6 309.1 1318.4 307.7 1316.5 307.5 1315.1 308.7L1297.2 323.9 1279.3 322.4 1289.5 307.9 1313 303.4C1314.3 302.8 1315.8 301 1315.2 299.7 1314.7 297.7 1313.5 297 1311.6 296.8L1294.7 299.9 1304.8 285.4 1355.1 276C1357 275.6 1357.8 274.3 1357.9 272.4 1357.5 270.5 1355.6 269.7 1354.3 269.6L1310 277.4 1323.1 259.3 1342 255.7C1343.9 255.8 1344.7 254 1344.8 252.1 1344.3 250.7 1342.5 249.3 1340.5 249.8L1328.2 252 1337 238.6C1338.4 237.4 1337.9 235.4 1336.1 234 1334.8 233.3 1332.9 233.7 1332.1 235L1322.7 248.3 1320.6 235.3C1320.1 233.3 1318.2 232.5 1316.9 233.1 1315 232.9 1314.2 234.1 1314.1 235.4 1314.1 236 1314.1 236 1314 236.7L1317.6 255.6 1304.5 273.8 1296.6 230.1C1296.7 228.2 1294.9 227.4 1293 227.2 1291.6 227.8 1290.9 229 1290.8 230.3 1290.7 230.9 1290.7 230.9 1290.7 230.9L1299.4 281.7 1289.2 296.3 1286.1 279.3C1285.6 277.4 1284.4 276.6 1282.5 276.5 1281.1 277 1279.8 278.2 1279.7 279.4 1279.6 280.1 1279.6 280.1 1279.5 280.7L1284 304.2 1273.8 318.8 1266.2 302.7 1273.8 280.2C1274.6 278.4 1273.5 276.4 1272.3 275.6 1270.3 275.4 1268.4 275.9 1268.2 277.8L1262.4 294.1 1254.1 278 1271.6 229.3C1272.3 228.1 1271.2 226.1 1270 225.3 1268.1 225.2 1266.1 225.7 1265.3 227.5L1250.3 269.3 1241 249.3 1247.7 231.2C1248.5 229.3 1247.4 227.3 1245.4 227.2 1244.2 226.4 1242.3 226.9 1241.5 228.7L1237.2 241.2 1230.1 226.5C1229.6 225.2 1227.7 224.4 1225.7 224.9 1225 225.5 1224.3 226.7 1224.2 228 1224.2 228 1224.1 228.6 1224.1 229.2L1231.2 244 1218.7 239.7C1217.5 239 1215.5 240.1 1214.7 241.3 1214.7 241.9 1214.7 241.9 1214.7 241.9 1214.5 243.9 1215.7 245.2 1217 245.3L1235 252 1244.9 272.1 1202.5 257C1200.6 256.8 1199.3 257.4 1198.5 259.2 1198.5 259.2 1198.4 259.9 1198.4 259.9 1198.3 261.1 1198.9 262.5 1200.7 263.3L1248.7 280.7 1256.4 296.8 1240.2 290.9C1238.3 290.8 1236.3 291.3 1236.1 293.2 1235.5 293.1 1235.4 293.8 1235.4 293.8 1235.3 295 1236.5 296.4 1237.7 297.2L1260.2 304.8 1267.8 321.5 1250 320 1234.8 302C1233.6 300.7 1231 300.5 1229.7 301.6 1228.9 302.8 1228.7 304.8 1229.3 306.1L1241 319.3 1222.5 317.7 1189.8 279.1C1188.6 277.7 1186.7 277.5 1185.3 278.7 1183.9 279.9 1183.8 281.8 1184.9 283.2L1213.6 317 1191.3 315.1 1179 300.6C1177.8 299.3 1175.9 299.1 1174.5 300.3S1173 303.4 1174.2 304.7L1182.4 314.4 1166.4 313.1C1164.5 312.9 1163.1 314.1 1163 316 1162.8 317.9 1164 319.3 1165.9 319.5L1181.8 320.8 1172.1 329.6C1171.4 330.2 1170.7 330.8 1170.7 331.4 1170.6 332.1 1171.2 333.4 1171.7 334.1 1172.9 335.5 1174.8 335.6 1176.2 334.4L1190.8 321.5 1213.1 323.4 1179.2 352.7C1178.5 353.3 1177.8 353.8 1177.8 354.5 1177.7 355.1 1178.2 356.4 1178.8 357.1 1180 358.5 1181.9 358.7 1183.3 357.5L1222 324.1 1240.5 325.6 1226.7 336.7C1226.1 337.3 1226 338.6 1225.9 339.2 1225.8 339.8 1225.8 340.5 1226.4 341.2 1227.5 342.5 1230.1 342.8 1230.8 341.5L1249.4 326.4 1267.3 327.9 1257 343.1 1233.6 346.9C1232.3 347.4 1230.9 348.6 1230.8 349.9 1230.7 350.5 1230.7 350.5 1231.4 350.6 1231.2 352.5 1233 353.9 1235 353.4L1251.9 350.3 1241.7 365.6 1190.9 374.2C1189.6 374.7 1188.8 375.9 1188.7 377.2 1188.7 377.9 1188.7 377.9 1188.7 377.9 1189.1 379.8 1190.3 381.2 1192.3 380.7L1236.6 372.8 1223.5 391 1204.6 394.6C1202.7 395.1 1201.9 396.3 1201.8 397.6 1201.8 397.6 1201.8 398.2 1201.8 398.2 1202.2 400.2 1204.1 401 1205.4 401.1L1218.4 398.3 1209 411.7C1208.9 412.3 1208.9 412.9 1208.8 413.6 1208.8 414.2 1209.3 415.5 1209.9 416.2 1211.8 417 1213.7 417.2 1214.5 415.3L1223.9 402 1226.1 415C1226.5 417 1228.4 417.8 1229.7 417.9 1231.6 417.4 1232.4 415.5 1232.6 413.6L1229 394.7 1241.4 376.4 1249.4 420.1C1249.9 422.1 1251.7 423.5 1253 423 1255 422.5 1256.3 421.4 1255.9 419.4Z" fill="rgba(66, 68, 90, 1)"></path><path d="M861.1 335.1L863 355.1 850.5 349.9C849.2 349.2 847.3 349.8 846.1 351.5 845.9 353.3 846.5 355.2 847.7 355.9L864 363.1 865.6 381.7 832.7 366.8C830.5 365.9 828.6 366.6 828.3 368.3 827.1 370 827.7 371.9 829.9 372.7L866.2 389.1 868.1 405.9 836.5 428.8 822.8 422.9 819 380.6C818.6 380.1 818.3 379.6 817.9 379 817.5 378.5 816.2 377.9 815.3 377.7 813 377.8 811.9 379.5 812.5 381.4L815.9 420 799.3 412.3 796.9 392.6C797.4 392.3 797.1 391.7 796.7 391.2 795.9 390.2 794.7 389.5 793.3 389.8 791.8 390 790.7 391.6 790.4 393.4L792.4 409.3 771.4 400C770.2 399.4 768.2 400 767.1 401.6 766.8 403.4 767.4 405.3 768.7 406L788.3 414.6 777.5 422.5C775.9 423.6 776 426 776.7 427 777.9 428.5 780 429.4 781.6 428.2L795.6 418.1 812.2 425.8 783.2 446.8C781.6 447.9 781.3 449.7 782.5 451.3 783.6 452.8 785.4 453.1 786.9 452L819.1 428.7 833.7 434.7 837.5 473.9 825.6 482.5 788.4 466C786.7 464.8 784.3 465.8 784 467.6 782.8 469.2 783.9 470.8 785.6 471.9L819.4 487 804.3 497.9 787.7 490.2C786.4 489.5 784 490.5 783.3 491.8S783.6 495.5 785.3 496.7L798.1 502.4 780 515.5C778.4 516.6 778.5 518.9 779.6 520.5 780.4 521.5 782.5 522.3 784.1 521.2L802.2 508.1 804 522.6C804.3 524 805.4 525.5 807.7 525.5 809.1 525.2 810.8 523.2 810.6 521.8L808.5 503.6 823.5 492.7 827.2 529.5C827.8 531.4 829 533 831.3 532.9 832.7 532.7 834.4 530.6 834.1 529.2L829.7 488.2 841.6 479.6 877.6 495.4 878.7 511.2 846.6 534.4C845 535.6 844.8 537.4 845.9 538.9 847 540.5 849.2 541.3 850.7 540.1L879.8 519.1 881.9 537.3 867.9 547.5C866.3 548.6 866 550.4 867.2 551.9 868.3 553.5 870.1 553.8 871.6 552.7L882.5 544.8 884.6 566.2C884.8 567.6 886.8 569.3 888.2 569.1 890.2 568.5 891.7 567.3 891.1 565.4L889.2 543.1 903.3 549.5C905.1 549.8 907 549.2 907.7 547.9 908.3 546.6 908.1 545.2 907.4 544.2 907.4 544.2 907 543.7 906.1 543.5L888.2 535.2 886.1 516.9 921.6 532.3C923.3 533.4 925.2 532.8 926 530.7 926.2 529.8 926.3 528.9 925.6 527.9 925.2 527.3 924.8 526.8 924.4 526.3L885.4 509.5 884.1 494.6 915.8 471.7 931.1 478.8 935.3 518.4C935.4 520.7 937.1 521.9 939 521.3 940.8 521.6 942 519.9 941.9 517.6L938 481.7 955.2 489.1 956.9 506.8C957.1 508.2 958.8 509.3 960.6 509.6 962.5 509 964.1 507.9 963.4 506L962.4 492.5 980.8 500.5C982.5 501.7 984 500.6 985.2 498.9 985.3 498 985.1 496.6 984.4 495.6 984.4 495.6 984 495.1 983.6 494.5L963.9 485.9 976.9 476.5C977.9 475.7 978.7 473.6 977.6 472 976.5 470.5 974.2 470.6 973.1 471.3L957.1 482.9 939.9 475.6 971.5 452.7C973.1 451.6 973 449.3 971.9 447.7S969 445.9 967.4 447L932.7 472.2 918.6 465.8 914.8 426.7 928.2 416.9 965.8 433.9C967.6 434.2 969.6 433.6 970.7 432 970.9 431.1 970.6 429.7 969.9 428.6 969.5 428.1 969.1 427.6 968.2 427.4L934.5 412.4 949.5 401.5 966.6 408.9C967.9 409.5 969.8 408.9 971 407.3 971.3 405.5 970.7 403.6 969.4 402.9L955.7 397 972.3 385C973.3 384.3 973.8 381.6 973 380.5 971.9 379 969.2 378.6 968.2 379.3L951.6 391.3 950.7 377C950.3 376.4 949.9 375.9 949.6 375.4 948.8 374.4 947.5 373.7 946.6 373.6 944.7 374.2 943.5 375.8 943.2 377.6L945.4 395.8 930.3 406.7 926.6 369.9C926.5 367.6 924.9 366.4 923.5 366.6 921.2 366.7 920 368.4 919.7 370.2L924.1 411.2 910.6 421 874.7 405.1 873 389.7 907.7 364.6C909.3 363.5 909.6 361.7 908.5 360.1 907.3 358.6 905.6 358.3 904 359.4L872.4 382.3 870.8 363.7 886.8 352.1C887.9 351.3 888.3 348.6 887.2 347.1 886.1 345.5 883.7 345.6 882.7 346.4L869.7 355.7 867.7 334.3C867.3 333.8 867.3 333.8 866.9 333.3 866.2 332.2 864.9 331.6 864 331.4 862.1 332.1 860.9 333.7 861.1 335.1ZM904.4 425.5L908.2 427.4 908.5 431.2 911.7 462.8 912 466.6 908.9 468.8 883.5 487.2 880.4 489.4 877 488 847.9 475.1 844.4 473.6 843.7 469.4 840.9 438.2 840.2 434 843.4 431.7 868.8 413.3 871.9 411.1 875.7 413.1 904.4 425.5Z" fill="rgba(66, 68, 90, 1)"></path><path d="M58.7 206.1L80.4 182.7 92.1 182.6 84.7 190.4C83.7 191 84 192.3 84.6 193.3 85.4 193.8 86.8 193.8 87.3 193.1L97.6 182.4 109.1 181.9 103.5 191.9 89.2 196.1C89.2 196.1 88.8 196.3 88.8 196.3 88.2 196.7 87.9 197.8 88 198.7 88.6 199.8 89.4 200.2 90.6 199.9L100.9 196.8 95.4 206.9 65 216.3C65 216.3 64.4 216.2 64.4 216.2 63.8 216.6 63.5 217.7 63.6 218.6 63.9 219.8 65.2 220.4 66.2 219.8L92.8 211.8 86.4 224.2 74.5 227.8C74.5 227.8 74.5 227.8 74.1 228 73.5 228.4 73 229.2 73.1 230.1 73.7 231.1 74.7 231.9 75.9 231.6L83.8 229.1 79 238.2C78.2 239.1 78.8 240.2 79.6 240.6 80.6 241.4 81.8 241.2 82.4 239.8L87.4 231.1 89.3 238.9C90 239.9 90.9 240.7 91.9 240 93.2 239.8 93.6 239 93.4 237.8L89.7 225.9 96.4 213.8 104.6 240.7C104.7 241.6 106 242.2 107.2 241.9 107.9 241.5 108.7 240.5 108.4 239.3L99 208.9 104.5 198.8 107.6 209.2C107.9 210.4 109 210.6 110.2 210.4 111.1 210.3 111.7 209 111.7 208.1L107.1 193.9 112.5 183.6 118.6 193.4 115.2 207.7C115 208.8 115.6 209.9 116.7 210.1 117.5 210.6 118.8 209.7 119.1 208.6L121.5 198.2 127.6 208 120.1 239.1C119.8 240.2 120.4 241.2 121.5 241.5 122.6 241.7 123.7 241.1 123.9 240L130.6 212.8 137.8 224.4 134.9 236.5C134.6 237.6 135.3 238.6 136.4 238.9 137.5 239.1 138.5 238.5 138.8 237.4L140.9 229.5 146.2 238C146.8 239 147.9 239.2 148.9 238.6 150 238 150.2 236.9 149.6 235.9L144.3 227.4 152 229.2C153.1 229.4 154.1 228.8 154.4 227.7S154 225.6 152.9 225.3L141.4 222.6 134 210.7 161 217C162.1 217.3 163.1 216.7 163.4 215.6 163.6 214.5 163 213.4 161.9 213.2L131 205.9 124.9 196.1 135.4 198.5C136.5 198.8 137.5 198.2 137.8 197.1 138 196 137.4 194.9 136.3 194.7L122 191.3 116.1 181.8 127.2 181.5 138.2 191.6C138.9 192.1 140.4 192.1 140.8 191.4 141.7 190.4 141.6 189.5 140.9 188.5L133.1 181.1 144.2 180.8 167.6 202.6C168.5 203.4 169.4 203.3 170.4 202.7 171.2 201.7 171 200.5 170.5 199.8L150.1 180.5 164.1 180.3 172.9 188.5C173.5 189.5 174.8 189.2 175.8 188.6 176.3 187.8 176.3 186.3 175.3 185.5L169.6 180.1 179.6 179.6C180.7 179.8 181.6 178.9 181.6 177.4 181.5 176.5 180.5 175.7 179.7 175.8L169.4 176 175.2 170.1C176 169.1 175.7 167.9 174.9 167.4 174.3 166.4 173.4 166.5 172.7 166.9 172.4 167.1 172.4 167.1 172.1 167.3L163.9 176.2 149.9 176.4 168.9 156.1C169.9 155.5 169.6 154.3 169 153.2 168.2 152.8 167.3 152.9 166.6 153.3 166.3 153.5 166.3 153.5 166.3 153.5L144 176.7 132.9 177 140.2 169.2C141.1 168.2 141 167.3 140.3 166.3 139.6 165.8 138.5 165.6 137.8 166 137.5 166.2 137.5 166.2 137.1 166.4L127 177.4 115.9 177.7 121.1 167.9 135.2 163.3C136.5 163 137.1 161.7 137 160.8 136.3 159.8 135.4 159 134.3 159.6L124 162.7 129 152.6 160 143.3C160.9 143.2 161.5 141.9 161.4 141 160.8 140 159.8 139.2 158.6 139.5L132 147.5 138.6 135.4 150.1 132C151.4 131.7 152 130.4 151.3 129.4 151.3 128.5 150.3 127.7 149.1 127.9L141.2 130.5 145.9 121.4C146.4 120.6 146.1 119.4 145.1 118.6 144.6 118.5 143.7 118.6 143 119 143 119 142.7 119.2 142.3 119.4L137.6 128.5 135.1 120.6C135 119.7 133.7 119.1 132.8 119.2 132.5 119.4 132.5 119.4 132.5 119.4 131.4 120 131.2 121.1 131.6 121.8L135 133.4 128.6 145.8 120.4 118.9C119.8 117.9 119 117.4 117.8 117.7 117.8 117.7 117.4 117.9 117.4 117.9 116.7 118.3 116.3 119.1 116.6 120.3L125.6 150.9 120.4 160.7 117.3 150.4C116.7 149.4 115.7 148.6 114.7 149.2 114.5 148.9 114.2 149.1 114.2 149.1 113.5 149.5 113.2 150.6 113.3 151.5L117.8 165.6 112.3 175.7 106.4 166.2 109.7 151.8C110 150.7 109.2 149.4 108.1 149.1 107.2 149.2 106.1 149.8 105.7 150.6L103.4 161.4 97.3 151.5 104.6 120.7C104.8 119.6 104.2 118.6 103.1 118.3 102 118.1 101 118.7 100.7 119.8L94.4 146.8 87 134.9 89.7 123.3C90 122.2 89.3 121.2 88.2 120.9S86.1 121.3 85.9 122.4L84 130.1 78.8 121.6C78.1 120.6 77 120.3 76 121 75 121.6 74.7 122.7 75.4 123.7L80.6 132.2 72.6 130.6C72 130.5 71.5 130.4 71.2 130.6 70.8 130.8 70.3 131.6 70.2 132.1 70 133.2 70.6 134.2 71.7 134.5L83.6 137 91 148.9 63.6 142.8C63.1 142.6 62.5 142.5 62.2 142.7 61.9 142.9 61.4 143.7 61.3 144.2 61 145.3 61.6 146.4 62.7 146.6L93.9 153.6 100 163.5 89.4 160.7C88.8 160.6 88.1 161 87.8 161.2 87.4 161.4 87.1 161.6 87 162.2 86.7 163.3 87.6 164.6 88.5 164.6L103 168.3 108.9 177.8 97.4 178.3 86.8 167.9C86 167.5 84.9 167.2 84.2 167.6 83.9 167.9 83.9 167.9 84.1 168.2 83.1 168.8 83 170.3 84 171.1L91.9 178.4 80.4 178.9 57.2 156.6C56.4 156.2 55.5 156.3 54.9 156.7 54.5 156.9 54.5 156.9 54.5 156.9 53.7 157.9 53.5 159 54.4 159.8L74.9 179.1 60.9 179.3 52 171.1C51.1 170.3 50.2 170.4 49.5 170.8 49.5 170.8 49.2 171 49.2 171 48.4 172 48.6 173.2 49.1 173.9L55.3 179.4 45.1 179.7C44.8 179.9 44.4 180.1 44.1 180.3 43.7 180.5 43.3 181.3 43.1 181.8 43.4 183.1 44.1 184.1 45.3 183.8L55.5 183.6 49.8 189.5C49 190.4 49.3 191.7 49.7 192.4 50.7 193.2 51.9 192.9 52.9 192.2L61.1 183.4 74.9 182.9 55.9 203.1C55.1 204.1 55 205.5 55.8 206 56.7 206.8 57.9 207.1 58.7 206.1Z" fill="rgba(66, 68, 90, 1)"></path><path d="M609.9 298.7L601.9 274.4 606.3 266.2 609 274.4C609 275.3 610 275.6 610.9 275.5 611.6 275.2 612.2 274.2 611.8 273.6L608.3 262.2 612.4 254 617.3 261.8 614.7 273.4C614.7 273.4 614.7 273.7 614.7 273.7 614.7 274.4 615.4 275 616.1 275.3 617 275.2 617.6 274.9 617.9 273.9L619.7 265.5 624.6 273.2 619.5 298.2C619.5 298.2 619.2 298.5 619.2 298.5 619.2 299.1 619.9 299.7 620.6 300 621.5 300.3 622.5 299.6 622.4 298.7L627 276.9 633.3 286.2 631.2 295.9C631.2 295.9 631.2 295.9 631.3 296.3 631.3 296.9 631.6 297.5 632.3 297.8 633.3 297.8 634.2 297.4 634.5 296.4L635.7 289.9 640.3 296.8C640.6 297.7 641.6 297.6 642.2 297.3 643.1 296.9 643.4 295.9 642.7 295L638.5 288.2 644.7 289.8C645.7 289.7 646.6 289.4 646.5 288.4 646.8 287.4 646.5 286.8 645.5 286.5L635.8 284.5 629.8 275.2 651.9 279.8C652.5 280.1 653.4 279.4 653.7 278.4 653.7 277.8 653.3 276.8 652.3 276.6L627.4 271.5 622.5 263.7 630.9 265.5C631.9 265.8 632.5 265.1 632.8 264.1 633.1 263.5 632.4 262.6 631.7 262.3L620.1 260 614.8 252.3 624.1 251.8 632.9 259.6C633.5 260.3 634.5 260.2 635.1 259.5 635.7 259.2 635.6 257.9 635 257.3L628.6 251.5 637.9 251.1 656.7 268.3C657.4 268.9 658.3 268.9 658.9 268.2 659.5 267.5 659.5 266.6 658.8 266L642.3 250.8 653.2 250.2 660.6 256.9C661.3 257.5 662.2 257.5 662.8 256.8 663.4 256.1 663.4 255.2 662.7 254.6L658 250 666 249.6C666.9 249.5 667.5 248.9 667.5 247.9 667.4 246.9 666.8 246.3 665.8 246.4L657.8 246.8 662.1 242.1C662.7 241.4 662.6 240.5 661.9 239.9S660.3 239.3 659.7 240L653.3 247 642.2 247.6 657 231.1C657.6 230.5 657.5 229.5 656.9 228.9 656.2 228.3 655.2 228.4 654.6 229L637.7 247.9 628.4 248.3 634.2 242C634.8 241.3 634.7 240.3 634.1 239.7 633.4 239.1 632.4 239.2 631.8 239.8L623.9 248.6 615 249.1 619.1 241.1 630.4 237.3C631 237 631.6 236 631.3 235.4 630.9 234.4 630.2 234.2 629.3 234.2L621.1 236.9 625.2 229 649.4 221C650.4 220.6 650.6 219.9 650.6 219 650.2 218 649.2 217.8 648.6 217.8L627.2 224.7 632.4 214.8 641.6 211.8C642.5 211.7 642.8 210.7 642.7 209.8 642.4 209.2 641.4 208.6 640.4 208.9L634.5 210.9 637.9 203.6C638.5 203 638.2 202 637.2 201.4 636.5 201.1 635.6 201.5 635.3 202.2L631.5 209.4 629.6 203.1C629.2 202.2 628.2 201.9 627.6 202.2 626.6 202.3 626.4 203 626.4 203.6 626.4 203.9 626.4 203.9 626.4 204.2L629.5 213.4 624.2 223.3 617.3 202.1C617.3 201.2 616.3 200.9 615.4 201 614.7 201.3 614.4 202 614.5 202.6 614.5 202.9 614.5 202.9 614.5 202.9L622.2 227.5 618.1 235.4 615.5 227.2C615.1 226.3 614.4 226 613.5 226.1 612.8 226.4 612.2 227.1 612.3 227.7 612.3 228 612.3 228 612.3 228.4L616.1 239.7 612 247.6 607.2 240.2 609.4 228.5C609.7 227.5 609 226.6 608.4 226.3 607.4 226.4 606.5 226.8 606.5 227.7L604.7 236.1 599.5 228.7 604.9 203.4C605.2 202.8 604.5 201.9 603.8 201.6 602.9 201.6 601.9 202 601.7 203L597.1 224.7 591.1 215.4 593.2 206C593.5 205 592.8 204.1 591.8 204.1 591.1 203.8 590.2 204.2 589.9 205.2L588.7 211.7 584.2 204.9C583.8 204.2 582.8 204 581.9 204.3 581.6 204.7 581.3 205.3 581.3 206 581.3 206 581.3 206.3 581.4 206.6L585.9 213.4 579.4 212.2C578.8 211.9 577.8 212.6 577.5 213.2 577.6 213.5 577.6 213.5 577.6 213.5 577.6 214.5 578.3 215.1 578.9 215.1L588.3 217.1 594.6 226.4 572.5 221.8C571.6 221.9 571 222.2 570.7 223.2 570.7 223.2 570.7 223.5 570.7 223.5 570.7 224.1 571.1 224.8 572.1 225L597 230.5 601.9 237.9 593.5 236.1C592.5 236.1 591.6 236.5 591.6 237.5 591.3 237.5 591.3 237.8 591.3 237.8 591.4 238.4 592 239 592.7 239.3L604.4 241.6 609.2 249.4 600.3 249.8 591.6 242C590.9 241.3 589.6 241.4 589 242.1 588.7 242.7 588.8 243.7 589.1 244.3L595.8 250.1 586.6 250.5 567.7 233.6C567 233 566.1 233 565.5 233.7 564.9 234.4 564.9 235.3 565.6 235.9L582.1 250.8 570.9 251.4 563.8 245C563.2 244.4 562.2 244.5 561.6 245.1S561 246.8 561.7 247.4L566.4 251.6 558.4 252C557.5 252.1 556.9 252.7 556.9 253.7 557 254.7 557.6 255.3 558.6 255.2L566.6 254.8 562.4 259.8C562.1 260.2 561.8 260.5 561.8 260.8 561.8 261.1 562.2 261.8 562.5 262.1 563.2 262.7 564.1 262.6 564.7 262L571.1 254.6 582.2 254 567.4 270.8C567.1 271.1 566.8 271.5 566.8 271.8 566.9 272.1 567.2 272.7 567.5 273 568.2 273.6 569.2 273.6 569.8 272.9L586.7 253.7 596 253.3 589.9 259.7C589.6 260 589.6 260.6 589.7 261 589.7 261.3 589.7 261.6 590 261.9 590.7 262.5 592 262.4 592.3 261.8L600.5 253 609.4 252.6 605.4 260.8 594 264.3C593.4 264.6 592.8 265.3 592.8 265.9 592.8 266.2 592.8 266.2 593.1 266.2 593.2 267.2 594.2 267.8 595.1 267.4L603.3 264.7 599.3 273 574.7 280.7C574.1 281 573.8 281.7 573.8 282.3 573.8 282.6 573.8 282.6 573.8 282.6 574.2 283.6 574.9 284.2 575.8 283.8L597.2 276.9 592 286.8 582.9 289.8C581.9 290.2 581.6 290.9 581.7 291.5 581.7 291.5 581.7 291.8 581.7 291.8 582 292.8 583 293 583.7 293L590 290.7 586.2 298C586.2 298.3 586.2 298.6 586.2 299 586.2 299.3 586.6 299.9 586.9 300.2 587.9 300.5 588.9 300.4 589.1 299.4L592.9 292.2 594.8 298.5C595.2 299.4 596.2 299.7 596.8 299.7 597.8 299.3 598 298.3 598 297.4L594.9 288.2 599.9 278.4 606.8 299.5C607.1 300.4 608.1 301 608.7 300.7 609.7 300.3 610.3 299.6 609.9 298.7Z" fill="rgba(66, 68, 90, 1)"></path><path d="M411.2 443.9L424.1 438.5 423.3 446.9C423.2 447.8 423.9 448.8 425.1 449.2 426.2 449 427.3 448.3 427.1 447.2L428.4 436.7 438.2 432 435.6 453.9C435.7 455 436.5 456 437.4 456.2 438.8 456.2 439.8 455.5 439.7 454.4L442.5 430.2 457.8 423.6 453.5 442.3 470.1 432.6 468.3 449.2 446.1 459.1C445.8 458.9 445.5 459.2 445.3 459.5 444.8 460.2 444.7 461.1 445.1 461.9 445.5 462.7 446.7 463.1 447.8 462.9L467.9 453.8 466.4 464.6 456.8 469C456.2 469 456 469.4 455.7 469.7 455.5 470 455.3 470.9 455.7 471.7 456.1 472.5 457.3 472.9 458.1 472.5L466 469.3 464.6 483.2C464.3 484.4 465.2 485.1 466.4 485.5 467.3 485.7 468.3 484.9 468.4 483.5L470 469.8 476.8 474.8C477.8 475.5 479.1 475 479.6 474.3 480.3 473.4 480.1 472.3 479.2 471.5L470.5 465.1 472 454.3 489.4 467.1C490.3 467.8 491.5 467.7 492.2 466.7 492.6 466.1 492.7 464.6 491.7 463.9L472.4 449.7 474.2 433.1 488.1 445.9 488.1 427 501.7 436.9 499 460.8C498.9 462.2 499.9 463 500.8 463.1 501.7 463.3 502.7 462.5 503.1 461.3L505.2 439.5 513.9 445.9 513 456.7C512.6 457.9 513.3 458.9 514.7 459 515.6 459.1 516.7 458.4 516.7 457L517.8 448.8 529 457.1C530 457.8 531.1 457.6 531.8 456.7S532.4 454.6 531.4 453.9L520.1 445.6 527.6 442.1C529 441.6 529.4 440.4 529 439.6 528.5 438.3 527.3 437.9 526.2 438.6L516.3 442.7 507.6 436.3 527.7 427.8C528.8 427.1 529.1 425.9 528.7 425.1 528.2 423.7 527 423.3 526 424.1L504 433.7 490.5 423.8 508.5 418.1 492.2 408.6 507.5 402 526.8 416.2C527.8 416.9 529.1 416.4 529.6 415.8 530.3 414.8 530.2 413.7 529.2 413L511.5 400 521.7 395.5 530.4 401.9C531.3 402.7 532.4 402.5 533.2 401.5 533.6 400.9 533.7 399.4 532.7 398.7L526 393.7 538.6 388.1C539.9 387.6 540.3 386.4 539.6 385.4 539.2 384.6 538.2 383.9 537.2 384.6L524.3 390 525 381.6C525.1 380.7 524.4 379.7 523.5 379.5 522.6 379.4 521.8 379.8 521.6 380.1 521.4 380.4 521.1 380.7 521.2 381.3L519.9 391.8 510.1 396.5 512.7 374.6C512.6 373.5 511.8 372.4 511 372.3 510.1 372.1 509.3 372.5 508.8 373.2 508.6 373.5 508.6 373.5 508.7 374.1L505.8 398.3 490.5 404.9 494.8 386.2 478.2 395.9 480 379.3 502.2 369.3C503 368.9 503.7 368 503.2 366.6 502.8 365.8 501.6 365.4 500.5 365.6L480.4 374.7 481.9 363.8 491.6 359.5C492.7 359.3 493.1 358.1 492.6 356.8 492.2 356 491 355.6 489.8 355.8L482.4 359.2 483.7 345.3C484.1 344.1 483.1 343.3 481.9 343 481.3 343 480.5 343.4 480.3 343.8 480.1 344.1 479.8 344.4 479.9 345L478.3 358.7 471.5 353.7C470.5 353 469.2 353.5 468.7 354.1L468.7 354.1C468 355.1 468.2 356.2 469.1 356.9L477.8 363.3 476.3 374.1 458.9 361.3C458 360.6 456.9 360.8 456.1 361.8S455.6 363.8 456.6 364.6L475.9 378.8 474.1 395.4 460.2 382.6 460.2 401.5 446.7 391.5 449.3 367.7C449.4 366.2 448.4 365.5 447.5 365.4 446.7 365.2 445.6 365.9 445.2 367.1L442.8 388.7 434.4 382.5 435.4 371.8C435.7 370.6 435 369.6 433.6 369.5 432.7 369.3 431.7 370.1 431.3 371.3L430.5 379.7 419.3 371.4C418.3 370.7 417.2 370.8 416.5 371.8S415.9 373.9 416.9 374.6L428.2 382.9 420.7 386.3C420.1 386.4 419.9 386.7 419.7 387.1 419.2 387.7 419.3 388.3 419.4 388.8 419.8 390.2 421.1 390.6 422.1 389.8L432 385.7 440.7 392.1 420.6 400.7C420.3 401 420.1 401.3 419.9 401.6 419.4 402.3 419.5 402.8 419.6 403.4 420.1 404.7 421.3 405.1 422.3 404.4L444.3 394.8 457.8 404.7 439.8 410.3 456.1 419.8 440.8 426.5 421.5 412.2C420.5 411.5 419.2 412 418.7 412.7 418 413.6 418.2 414.8 419.1 415.5L436.5 428.3 426.7 432.9 418 426.5C417 425.8 415.9 426 415.2 426.9S414.6 429 415.6 429.7L422.3 434.7 409.8 440.4C409.2 440.4 409 440.8 408.7 441.1 408.5 441.4 408.3 442.3 408.7 443.1 409.2 443.9 410.1 444.6 411.2 443.9ZM449.4 411.4L464.2 406.9 464.1 391.4 475.7 402 488.8 394.3 485.7 409.3 498.9 417 484.1 421.6 484.2 437 472.9 426.7 459.5 434.2 462.9 419.4 449.4 411.4Z" fill="rgba(66, 68, 90, 1)"></path><path d="M995.5 72.2L999.2 111.8 992.4 120.4 968.2 116.4 964.1 105.9 980.8 69.8C980.9 69.3 980.9 69.3 981 68.8 981.2 67.9 980.8 66.9 979.5 66.2 978.1 65.9 977.1 66.2 976.3 67.6L961.8 99.2 955.8 83.1 962 69.1C962 69.1 962.1 68.6 962.1 68.6 962.2 67.7 961.9 66.6 960.6 65.9 959.7 65.3 958.1 66 957.4 67.4L953 76.4 948.6 64.4C948.3 63.4 947 62.7 945.5 62.9S943.7 65.1 943.9 66.6L948.3 78 939.3 74.1C937.9 73.4 936.3 74.1 935.6 75.4 935.5 76.4 935.7 77.9 937.1 78.6L951.1 84.8 957.1 101.4 925.5 86.9C924.1 86.2 922.5 86.9 921.9 87.7 921.7 89.2 921.9 90.7 923.2 91.4L959.5 107.6 963.5 118.5 948.3 136.9 936.9 135 913.5 102.9C912.8 101.8 911.3 101.5 910.2 102.3S908.9 104.5 909.7 105.7L930.3 133.9 912.8 131 904.1 118.8C903.3 117.7 901.9 117.5 900.3 118.2S899 120.4 899.8 121.5L906.1 129.9 893.4 127.8C891.9 127.5 890.8 128.8 890.5 130.2 890.3 131.6 891.1 132.7 892.5 133L905.3 135.1 897 141C895.4 141.7 895.2 143.1 896.4 144.3 897.2 145.4 898.7 145.7 899.8 144.9L911.9 136.2 929.4 139.1 900.8 159.2C899.7 160 899.4 161.8 900.2 162.9S902.4 164.3 903.5 163.5L936.1 140.2 947.4 142.1 955.8 164.9 948.5 173.4 909 177.1C907.5 177.3 906.8 178.6 906.6 180.1 906.8 181.6 908.1 182.3 909.6 182.5L944.2 179 933.2 192.3 917.9 193.6C916.4 193.9 915.7 195.2 915.5 196.6 915.8 197.7 917.1 198.8 918.6 198.6L928.4 197.8 920.5 207.7C919.8 208.5 920.1 210 920.9 211.2 922.2 211.9 923.7 211.6 924.3 210.8L932.3 200.9 933.5 211.3C933.8 212.3 935.1 213.5 936.1 213.2 937.5 213.4 938.2 212.6 938.4 211.1 938.4 211.1 938.5 210.7 938.5 210.7L937.1 195.4 948.1 182.1 951.6 216.7C951.8 218.2 952.6 219.3 954.1 219.1 955.6 218.9 956.2 218 956.4 217.1 956.5 216.6 956.5 216.6 956.5 216.6L952.4 176.5 959.7 168 983.8 172 987.5 182.3 971.1 219C970.5 219.9 971.2 221.5 972.1 222.1 973.4 222.8 975 222.1 975.7 220.7L990.2 189.1 996.3 205.2 990.1 219.2C989.4 220.6 989.6 222.1 991 222.3 992.4 223 993.9 222.3 994.6 221.4L998.6 211.9 1002.9 223.8C1003.7 224.9 1005.1 225.6 1006.6 225.4 1007.1 225 1007.8 224.1 1007.9 223.2 1008 222.7 1008 222.7 1007.6 222.2L1003.3 210.2 1012.8 214.3C1014.1 215 1015.3 214.2 1015.9 213.3 1016 212.8 1016 212.8 1016 212.4 1016.2 211.4 1015.9 210.4 1015 209.8L1001 203.5 994.9 187.4 1026.5 201.9C1027.9 202.2 1029.4 201.9 1029.7 200.5 1030.2 200.1 1030.2 200.1 1030.3 199.6 1030.5 198.7 1029.7 197.6 1028.8 197L992.1 180.7 988.5 170.3 1003.8 151.4 1014.7 153.3 1038 185.8C1038.8 186.9 1040.6 187.3 1041.7 186.5S1043.2 183.8 1042.4 182.7L1021.8 154.4 1038.8 157.3 1048 169.5C1048.8 170.6 1050.2 170.8 1051.3 170 1052.4 169.3 1052.6 167.8 1051.8 166.7L1045.9 158.4 1058.7 160.6C1059.6 160.7 1061.2 160 1061.5 158.6 1061.7 157.2 1060.5 155.5 1059.6 155.4L1046.8 153.2 1055.1 147.3C1055.6 146.9 1056.2 146.5 1056.2 146.1 1056.4 145.1 1056 144.6 1055.6 144 1054.8 142.9 1053.4 142.7 1052.3 143.5L1039.7 152.1 1022.6 149.2 1051.3 129.2C1051.8 128.8 1051.9 128.3 1052.1 127.4 1052.1 126.9 1052.2 126.4 1051.8 125.9 1051 124.7 1049.1 124.4 1048 125.2L1015.5 148 1004.6 146.2 996.2 123.9 1003 114.8 1043 111.3C1044.1 110.9 1045.2 110.2 1045.3 109.2 1045.4 108.7 1045.4 108.7 1044.9 108.7 1045.2 107.2 1043.9 106.1 1042.4 106.3L1007.8 109.8 1018.8 96 1034.1 94.7C1035.1 94.4 1035.8 93.5 1035.9 92.6 1035.9 92.6 1036 92.1 1036 92.1 1036.3 90.7 1035 89.5 1033.5 89.7L1023.1 90.9 1031 81C1031.6 80.6 1031.7 80.2 1031.7 79.7 1031.9 78.8 1031.6 77.7 1031.1 77.7 1029.9 76.5 1028.4 76.7 1027.2 77.5L1019.3 87.4 1018.5 77.5C1018.3 76 1017 74.8 1015.5 75.1 1014.5 75.4 1013.3 76.6 1013.6 77.7L1014.9 93 1004 106.2 1000.5 71.6C1000.3 70.1 998.9 69.4 997.5 69.1 996.5 69.5 995.3 70.7 995.5 72.2ZM970.2 122L988.7 125.1 991.5 125.6 992.6 128.2 999 145.3 999.9 148.4 998.1 150.5 986.5 164.6 984.7 166.8 981.8 166.3 963.4 163.2 960.5 162.8 959.5 160.2 953.1 143 952.1 140.4 954 137.8 965.6 123.7 967.4 121.6 970.2 122Z" fill="rgba(66, 68, 90, 1)"></path><path d="M1055.4 433.7L1073.5 451.8 1073.2 461.2 1067.2 455C1066.7 454.2 1065.7 454.4 1064.9 454.9 1064.5 455.5 1064.4 456.6 1065 457L1073.2 465.6 1073.2 474.8 1065.4 470 1062.5 458.4C1062.5 458.4 1062.3 458.2 1062.3 458.2 1062 457.6 1061.1 457.4 1060.4 457.4 1059.6 457.9 1059.2 458.5 1059.4 459.5L1061.5 467.8 1053.7 463.1 1047.1 438.5C1047.1 438.5 1047.2 438 1047.2 438 1046.9 437.5 1046 437.2 1045.3 437.3 1044.3 437.5 1043.8 438.5 1044.3 439.3L1049.9 460.8 1040.1 455.3 1037.6 445.7C1037.6 445.7 1037.6 445.7 1037.4 445.4 1037.1 444.9 1036.5 444.5 1035.8 444.5 1035 445 1034.3 445.7 1034.5 446.7L1036.3 453.1 1029.2 449C1028.4 448.3 1027.6 448.8 1027.2 449.4 1026.5 450.2 1026.7 451.2 1027.7 451.7L1034.5 455.9 1028.3 457.2C1027.5 457.7 1026.8 458.5 1027.3 459.3 1027.5 460.3 1028.1 460.7 1029.1 460.5L1038.7 458 1048.1 463.6 1026.4 469.4C1025.7 469.4 1025.1 470.4 1025.3 471.4 1025.7 472 1026.4 472.7 1027.4 472.5L1052 465.9 1059.8 470.6 1051.5 472.8C1050.5 473 1050.3 473.8 1050.5 474.8 1050.5 475.5 1051.5 476.1 1052.2 476L1063.7 472.8 1071.8 477.4 1063.7 482 1052.4 478.9C1051.5 478.6 1050.7 479.1 1050.4 480 1050 480.6 1050.7 481.7 1051.5 481.9L1059.8 484.2 1051.8 488.8 1027.2 481.8C1026.3 481.6 1025.5 482 1025.2 482.9 1025 483.8 1025.5 484.6 1026.3 484.9L1047.9 491 1038.4 496.4 1028.8 493.7C1027.9 493.5 1027.1 494 1026.9 494.9 1026.6 495.7 1027.1 496.6 1028 496.8L1034.2 498.8 1027.3 502.7C1026.4 503.2 1026.2 504.1 1026.7 504.9 1027.2 505.7 1028 506 1028.9 505.5L1035.8 501.5 1034.1 507.7C1033.9 508.5 1034.4 509.4 1035.2 509.6S1036.9 509.4 1037.2 508.5L1039.7 499.3 1049.5 493.8 1043.6 515.2C1043.3 516.1 1043.8 516.9 1044.7 517.1 1045.5 517.4 1046.4 516.9 1046.6 516L1053.3 491.6 1061.4 487 1059.1 495.3C1058.9 496.2 1059.4 497 1060.2 497.2 1061.1 497.5 1061.9 497 1062.2 496.1L1065.3 484.8 1073.1 480.4 1073 489.3 1064.6 497.7C1064.2 498.3 1064.1 499.5 1064.7 499.9 1065.4 500.5 1066.1 500.5 1067 500L1073.1 494 1073 502.9 1054.9 520.9C1054.2 521.6 1054.3 522.4 1054.7 523.2 1055.5 523.9 1056.5 523.7 1057 523.3L1073.1 507.6 1072.8 518.8 1066 525.6C1065.2 526.1 1065.4 527.1 1065.9 527.9 1066.5 528.3 1067.6 528.4 1068.3 527.6L1072.8 523.2 1072.9 531.2C1072.7 532.1 1073.4 532.8 1074.6 532.9 1075.3 532.8 1076 532.1 1075.9 531.4L1076.1 523.2 1080.6 528C1081.4 528.7 1082.4 528.5 1082.8 527.9 1083.6 527.4 1083.6 526.7 1083.3 526.1 1083.1 525.8 1083.1 525.8 1083 525.6L1076.1 518.8 1076.4 507.6 1092 523.4C1092.5 524.2 1093.5 524 1094.3 523.5 1094.7 522.9 1094.7 522.2 1094.4 521.7 1094.2 521.4 1094.2 521.4 1094.2 521.4L1076.3 502.8 1076.4 493.9 1082.5 500.1C1083.2 500.8 1083.9 500.7 1084.8 500.2 1085.2 499.6 1085.4 498.8 1085.1 498.2 1084.9 497.9 1084.9 497.9 1084.8 497.7L1076.3 489.2 1076.4 480.3 1084.1 484.8 1087.3 496.2C1087.5 497.2 1088.5 497.7 1089.2 497.7 1090 497.2 1090.7 496.5 1090.2 495.6L1088.1 487.3 1096.1 491.6 1102.5 516.6C1102.6 517.4 1103.6 517.9 1104.3 517.8 1105.2 517.4 1105.8 516.6 1105.6 515.6L1100.1 494.1 1109.5 499.8 1111.9 509.1C1112.1 510.1 1113.1 510.6 1113.9 510.2 1114.7 510.1 1115.3 509.4 1115.1 508.4L1113.4 502 1120.5 506.1C1121.1 506.5 1122.1 506.3 1122.7 505.5 1122.9 505.1 1122.8 504.4 1122.5 503.8 1122.5 503.8 1122.3 503.6 1122.2 503.3L1115.1 499.2 1121.4 497.4C1122.2 497.4 1122.7 496.4 1122.6 495.7 1122.5 495.4 1122.5 495.4 1122.5 495.4 1122 494.5 1121.1 494.3 1120.6 494.6L1111.2 497 1101.5 491.5 1123.3 485.7C1124.1 485.3 1124.5 484.7 1124.3 483.7 1124.3 483.7 1124.1 483.4 1124.1 483.4 1123.8 482.8 1123.2 482.4 1122.2 482.6L1097.5 489 1089.8 484.5 1098.1 482.3C1099 481.9 1099.7 481.1 1099.2 480.3 1099.5 480.1 1099.3 479.8 1099.3 479.8 1099 479.3 1098.1 479 1097.4 479.1L1086 482.3 1078.1 477.5 1085.9 473.1 1097.2 476.2C1098.1 476.5 1099.2 475.8 1099.5 475 1099.4 474.2 1099 473.4 1098.4 473L1089.8 470.9 1097.9 466.3 1122.3 473C1123.2 473.3 1124 472.8 1124.2 471.9 1124.5 471 1124 470.2 1123.1 470L1101.8 464.1 1111.5 458.6 1120.7 461.1C1121.5 461.3 1122.4 460.8 1122.6 460S1122.4 458.3 1121.5 458L1115.4 456.3 1122.4 452.4C1123.2 451.9 1123.4 451 1123 450.2 1122.5 449.4 1121.6 449.1 1120.8 449.6L1113.8 453.6 1115.3 447.2C1115.5 446.7 1115.6 446.3 1115.4 446 1115.3 445.7 1114.7 445.3 1114.2 445.2 1113.4 445 1112.5 445.5 1112.3 446.3L1109.9 455.8 1100.2 461.3 1105.9 439.6C1106 439.2 1106.2 438.8 1106 438.5 1105.8 438.2 1105.2 437.8 1104.8 437.7 1103.9 437.5 1103.1 437.9 1102.9 438.8L1096.3 463.5 1088.2 468.1 1090.8 459.7C1090.9 459.2 1090.6 458.7 1090.4 458.4 1090.3 458.1 1090.1 457.8 1089.7 457.7 1088.8 457.5 1087.7 458.1 1087.7 458.8L1084.3 470.3 1076.5 474.7 1076.5 465.6 1085.1 457.4C1085.5 456.8 1085.7 455.9 1085.4 455.4 1085.2 455.1 1085.2 455.1 1085 455.2 1084.5 454.4 1083.3 454.3 1082.7 455.1L1076.5 461.1 1076.5 452 1095 434.1C1095.4 433.5 1095.4 432.8 1095.1 432.2 1094.9 431.9 1094.9 431.9 1094.9 431.9 1094.1 431.2 1093.3 431 1092.6 431.8L1076.5 447.5 1076.8 436.3 1083.6 429.5C1084.3 428.8 1084.2 428 1083.9 427.5 1083.9 427.5 1083.8 427.2 1083.8 427.2 1083 426.5 1082 426.7 1081.5 427L1076.8 431.9 1077 423.7C1076.8 423.4 1076.7 423.1 1076.5 422.9 1076.3 422.6 1075.7 422.2 1075.3 422.1 1074.3 422.3 1073.5 422.7 1073.7 423.7L1073.5 431.9 1069 427.1C1068.2 426.5 1067.2 426.6 1066.7 427 1066 427.7 1066.2 428.7 1066.7 429.5L1073.5 436.3 1073.5 447.4 1057.9 431.6C1057.2 430.9 1056 430.8 1055.6 431.4 1054.9 432.2 1054.7 433 1055.4 433.7Z" fill="rgba(66, 68, 90, 1)"></path><path d="M344 223.9L358.6 220.5 356 230.2C355.7 231.3 356.3 232.6 357.7 233.3 359 233.4 360.4 232.7 360.8 231.7L364.4 218.9 378.1 215.8 370.4 241.8C370 243.5 370.6 244.8 372 244.9 373.3 245.6 374.7 244.9 375.1 243.2L383.6 214.6 395.8 211.5 416.1 232.6 413.1 243.4 382.1 250.5C381.7 250.9 381.4 251.2 381 251.5 380.7 251.9 380.3 252.9 380.3 253.5 380.6 255.2 381.9 256 383.3 255.3L411.6 248.8 407.6 262 393.3 265.7C392.9 265.4 392.6 265.7 392.2 266 391.5 266.7 391.2 267.7 391.5 268.7 391.8 269.8 393.1 270.5 394.5 270.5L406.1 267.4 401.3 283.9C401 284.9 401.6 286.3 403 287 404.3 287 405.7 286.4 406.1 285.4L410.5 269.8 417.4 277.1C418.4 278.2 420.1 277.9 420.8 277.2 421.9 276.2 422.3 274.5 421.3 273.5L412.3 264.1 416.3 251 434.9 270.4C435.9 271.4 437.3 271.5 438.3 270.5 439.3 269.5 439.4 268.1 438.4 267.1L417.8 245.6 420.8 234.1 449.5 227.3 457.1 235.3 448.6 264.6C447.9 265.9 448.9 267.7 450.2 267.7 451.6 268.4 452.6 267.4 453.3 266.1L461.1 239.4 470.7 249.5 466.7 262.6C466.3 263.6 467.3 265.4 468.3 265.7S471 265.1 471.7 263.8L474.7 253.6 486.3 265.8C487.3 266.8 489 266.5 490 265.5 490.7 264.9 491.1 263.2 490.1 262.1L478.5 250 489.1 247.2C490.1 246.9 491.1 245.9 490.8 244.2 490.5 243.1 488.9 242.1 487.8 242.4L474.5 245.8 464.9 235.8 491.9 229.3C493.2 228.6 494.3 227.6 494 225.9 493.7 224.9 492 223.8 491 224.1L460.9 231.6 453.3 223.6 461.4 195.3 473 192.8 493.6 214.4C494.6 215.4 495.9 215.4 496.9 214.4 498 213.4 498.4 211.7 497.4 210.7L478.8 191.3 492.1 187.8 501.1 197.2C502.1 198.2 503.4 198.3 504.5 197.3 505.5 196.3 505.5 194.9 504.5 193.9L497.6 186.6 513.3 182.9C514.3 182.6 515.4 180.9 515 179.9 514.4 178.5 513.4 177.5 512 178.1L495.7 181.8 499 170.7C499 169.3 498.3 167.9 497.3 167.6 496.3 167.2 495.3 167.5 494.6 168.2 494.6 168.2 494.3 168.5 494.2 169.2L489.8 183.4 476.5 186.8 484.3 158.8C485 157.5 484.4 156.1 482.7 155.7 482 155.7 481.3 155.7 480.6 156.3 480.3 156.7 479.9 157 479.6 157.3L471.1 188 460.1 190.5 439.9 169.3 443.6 157.2 472.6 150.1C474.3 149.8 475 148.4 474.4 147 474.4 145.7 473.1 145 471.4 145.3L445.1 151.8 448.8 138.3 461.7 135.2C462.8 134.9 463.5 133.5 463.5 132.2 462.9 130.8 461.9 129.8 460.5 130.4L450.6 132.6 454.7 118.1C455.4 116.7 454.4 115.7 453 115 452.4 115 451.3 115.3 450.6 115.9 450.6 115.9 450.3 116.3 449.9 116.6L445.5 132.1 437.2 123.4C436.6 122.8 434.9 122.4 433.8 123.4 432.8 124.4 433.1 126.1 433.8 126.8L444 137.5 440.3 151 420.1 129.8C419.1 128.8 417.4 129.1 416.4 130.1S415.3 132.5 416.3 133.5L438.5 156.7 435.2 167.9 406.5 174.7 397.9 165.7 406.7 136C406.8 134.6 406.1 133.3 404.8 132.6 404.1 132.5 403.1 132.9 402.4 133.5 402 133.9 401.7 134.2 401.7 134.9L393.9 161.5 384.3 151.4 388 137.9C388.4 136.9 387.7 135.6 386.4 134.9 385 134.8 383.7 135.5 383.3 136.5L380.3 147.3 369.7 136.2C369.1 135.5 367 135.4 366.3 136.1 365.3 137.1 365.2 139.1 365.9 139.8L376.5 150.9 365.9 153.1C365.6 153.4 365.2 153.7 364.9 154.1 364.2 154.7 363.8 155.7 363.8 156.4 364.5 157.8 365.8 158.5 367.2 158.5L380.5 155.1 390.1 165.2 363.1 171.7C361.4 172 360.7 173.3 361 174.3 361.3 176 362.7 176.8 364 176.8L394.1 169.3 402.7 178.3 394.6 206.7 383.3 209.5 361.1 186.2C360.1 185.2 358.8 185.2 357.7 186.1 356.7 187.1 356.6 188.5 357.6 189.5L377.9 210.7 364.2 213.8 353.9 203C353.3 202.3 351.2 202.3 350.2 203.3 349.2 204.3 349.5 206 350.1 206.7L358.4 215.4 342.7 219.1C342.4 219.4 342.4 219.4 342 219.7 341.3 220.4 341 221.4 340.9 222.1 341.6 223.5 342.9 224.2 344 223.9ZM406.7 182.5L407.8 179.5 410.5 178.9 433.7 173.3 436.4 172.7 438.4 174.7 454.7 191.7 456.7 193.8 455.9 196.5 449.3 219.5 448.6 222.2 445.5 223.1 422.6 228.4 419.5 229.3 417.6 227.2 401.3 210.2 399.3 208.1 400.4 205.1 406.7 182.5Z" fill="rgba(66, 68, 90, 1)"></path><path d="M132.9 476.5L151.1 441.1 185 430.6 177.3 465.2 143.5 486.3C143.5 486.3 143.2 486.6 143.2 486.6 142.5 487.4 142.6 488.7 143 489.7 143.7 491 145.4 491.3 146.4 490.3L175.9 471.7 172.1 488.5 159.2 496.9C159.2 496.9 158.9 497.2 158.9 497.2 158.3 497.9 158.3 499.3 158.7 500.3 159.4 501.6 161.1 501.9 162.1 500.8L171.1 495.3 168.2 507.7C167.9 508.7 169 510.4 170 510.7 171.4 511.3 172.7 509.9 173 508.9L175.9 496.5 181.3 505.5C182.1 506.8 183.8 507 184.7 506 186.1 505.3 186.3 503.5 185.3 502.6L176.9 489.7 181 473.2 199.6 502.7C200.3 504 202 504.3 203 503.2 204.3 502.5 204.6 500.8 203.5 499.8L182.4 466 190.1 431.4 216.6 455.8 218.3 495.8C218.3 497.1 219.4 498.1 220.8 498 222.1 498 223.1 496.9 223 495.6L221.6 460.3 234.3 472 234.9 486.9C235 488.3 236 489.3 237.4 489.2 238.7 489.1 239.7 488.1 239.7 486.7L239.2 476.6 249.1 485.7C249.9 487 251.5 486.6 252.5 485.5 253.5 484.5 253.4 483.1 252.4 482.1L243.2 473.7 253.4 473.3C254.7 473.2 255.7 472.1 255.6 470.8S254.5 468.5 253.2 468.5L238.2 469.1 225.5 457.4 260.8 456C262.2 455.9 263.1 454.8 263.1 453.5 263 452.1 262 451.2 260.6 451.2L220.6 452.9 194.5 428.8 228.3 418.2 262.7 436.2C264.1 436.8 265.4 436.1 266.4 435 267 433.6 266.3 432.3 265.2 431.3L234.3 415.3 250.8 410.2 264.3 417.4C265.7 418.1 267 417.3 268 416.3 268.6 414.9 267.9 413.5 267.2 412.9L257.8 408.2 269.9 404.3C270.9 403.9 272.2 402.5 271.4 401.2 270.7 399.8 269.7 398.9 268.3 399.6L256.3 403.5 261 394.1C261.6 392.7 260.8 391.4 260.1 390.8 259.1 390.5 257.8 390.5 257.1 391.2 257.1 391.2 256.8 391.6 256.8 391.6L249.5 405.1 233.1 410.2 249.1 379.3C249.8 377.9 249 376.6 248.3 376 247.3 375.7 245.9 375.7 245.3 376.4 245.3 376.4 245 376.8 245 376.8L226.7 412.2 192.8 422.8 200.6 388.1 234.4 367C235.7 366.3 236 364.6 234.9 363.6 234.2 362.3 232.5 362 231.5 363.1L202 381.6 205.7 364.8 218.6 356.5C220 355.7 220.2 354 219.2 353.1 218.4 351.7 216.7 351.5 215.8 352.5L206.8 358 209.7 345.6C210 344.6 208.9 343 207.9 342.7 206.8 342.4 205.8 342.7 205.2 343.4 204.9 343.8 204.5 344.2 204.6 344.8L201.7 357.2 196.2 348.2C195.5 346.9 193.8 346.6 192.8 347.7 192.8 347.7 192.5 348 192.5 348 191.8 348.8 191.9 350.1 192.3 351.1L200.6 364 196.9 380.8 178.3 351.4C177.6 350 175.9 349.8 174.9 350.8 174.9 350.8 174.6 351.2 174.6 351.2 173.9 351.9 174 353.2 174.4 354.2L195.5 388 187.7 422.6 161.6 398.6 160 358.6C159.9 357.2 158.8 356.2 157.5 356.3 156.1 356.3 155.2 357.4 155.2 358.8L156.3 393.7 143.6 382 143 367.1C142.9 365.7 141.9 364.7 140.5 364.8S138.2 365.9 138.2 367.3L138.7 377.5 129.5 369C128.4 368 127.1 368.1 126.1 369.1 125.1 370.2 125.2 371.6 126.2 372.5L135.4 381 125.2 381.4C124.6 381.4 123.9 381.5 123.2 382.2S122.6 383.6 122.6 384.2C122.7 385.6 123.7 386.6 125.1 386.5L140 385.9 152.7 397.6 117.5 399.1C116.8 399.1 116.1 399.1 115.5 399.8 115.1 400.2 114.8 401.2 114.9 401.9 114.9 403.2 116 404.2 117.3 404.2L157.4 402.5 183.5 426.6 149.6 437.1 114.2 418.9C113.2 418.6 111.8 418.6 111.2 419.4 111.2 419.4 110.9 419.7 110.9 419.7 110.2 421.1 111 422.4 111.7 423.1L142.6 439.1 126.1 444.2 112.6 437C111.6 436.7 110.2 436.7 109.5 437.4 109.5 437.4 109.2 437.8 109.2 437.8 108.6 439.2 109.3 440.5 110 441.1L119.4 445.8 107.3 449.7C107 450.1 106.3 450.1 106 450.5 105.4 451.2 105.1 452.2 105.4 453.2 106.2 454.5 107.2 455.5 108.6 454.8L120.6 450.9 115.9 460.3C115.3 461.6 116 463 116.7 463.6 118.1 464.2 119.5 463.5 120.1 462.8L127.4 449.3 143.8 444.2 127.8 475.1C127.1 476.4 127.9 477.8 128.6 478.4 130.6 478.3 132.3 477.9 132.9 476.5Z" fill="rgba(66, 68, 90, 1)"></path><path d="M1431.7 446.7L1425.9 478.1 1416.1 484.5 1418.1 473.9C1418.6 472.9 1417.7 472 1416.6 471.5 1415.7 471.5 1414.5 472.2 1414.5 473.1L1411.5 487.6 1402.1 494.2 1401.4 482.8 1411.3 471.5C1411.3 471.5 1411.4 471.2 1411.4 471.2 1411.8 470.5 1411.4 469.4 1410.9 468.7 1409.8 468.2 1408.9 468.2 1408 469.1L1401 477.2 1400.3 465.8 1420.9 441.5C1420.9 441.5 1421.4 441.3 1421.4 441.3 1421.7 440.6 1421.4 439.5 1420.8 438.8 1419.9 438 1418.5 438.2 1418 439.2L1399.8 460.3 1398.6 446.3 1406.7 436.9C1406.7 436.9 1406.7 436.9 1406.8 436.5 1407.2 435.8 1407.2 434.9 1406.6 434.2 1405.5 433.7 1404.3 433.5 1403.4 434.4L1398.1 440.8 1397.3 430.6C1397.4 429.3 1396.3 428.8 1395.5 428.8 1394.2 428.7 1393.3 429.6 1393.5 431L1394 441 1388.2 435.6C1387.1 435 1385.9 434.9 1385.4 436 1384.5 436.9 1384.5 437.8 1385.4 438.6L1394.8 446.7 1395.7 460.5 1374.4 442.2C1373.8 441.5 1372.4 441.7 1371.5 442.6 1371.2 443.3 1371 444.6 1371.9 445.4L1396.2 466 1396.9 477.5 1388.7 470.4C1387.8 469.5 1386.7 469.9 1385.9 470.8 1385.2 471.4 1385.4 472.8 1385.9 473.5L1397.3 483 1398.4 494.6 1387.9 489.6 1383.1 475.7C1382.7 474.6 1381.6 474.1 1380.5 474.5 1379.7 474.5 1379 475.9 1379.3 477L1382.9 487.2 1372.4 482.1 1362.1 451.9C1361.8 450.8 1360.7 450.3 1359.6 450.6 1358.6 451 1358 452.1 1358.4 453.2L1367.4 479.7 1355.1 473.8 1351 462C1350.7 461 1349.6 460.4 1348.5 460.8 1347.4 461.2 1346.9 462.3 1347.3 463.3L1349.7 471.2 1340.7 466.8C1339.6 466.3 1338.6 466.7 1338 467.8 1337.5 468.8 1337.9 469.9 1339 470.4L1348 474.8 1340.5 477.4C1339.4 477.8 1338.9 478.8 1339.3 479.9S1340.7 481.5 1341.8 481.1L1353 477.2 1365.6 483.3 1339.5 492.4C1338.4 492.8 1337.9 493.9 1338.3 495 1338.6 496 1339.7 496.5 1340.8 496.2L1370.7 485.7 1381.1 490.8 1371 494.3C1369.9 494.7 1369.4 495.8 1369.8 496.8 1370.1 497.9 1371.2 498.4 1372.3 498L1386.2 493.2 1396.3 498.1 1387.1 504.3 1372.3 501.6C1371.5 501.6 1370.2 502.4 1370.2 503.3 1370.1 504.5 1370.6 505.2 1371.7 505.7L1382.3 507.7 1373.1 514 1341.7 508.1C1340.4 508 1339.7 508.5 1339.2 509.6 1339 510.9 1339.9 511.7 1340.7 512.1L1368.3 517.4 1356.6 525.1 1344.7 522.9C1343.7 522.4 1342.8 523.3 1342.3 524.4 1342.3 525.3 1343 526.5 1344.3 526.7L1352 528.2 1343.8 534.1C1342.8 534.4 1342.6 535.7 1343.3 536.9 1343.9 537.6 1345.1 537.8 1345.8 537.2L1354.4 531.6 1352.7 539.6C1352.5 540.9 1353.4 541.8 1354.3 541.8 1355.4 542.3 1356.1 541.7 1356.5 541 1356.6 540.7 1356.6 540.7 1356.8 540.3L1359 528.5 1370.7 520.8 1365.5 548.1C1365 549.1 1365.9 550 1367 550.5 1367.9 550.5 1368.6 550 1368.9 549.3 1369.1 548.9 1369.1 548.9 1369.1 548.9L1375.4 517.3 1384.6 511.1 1382.7 521.7C1382.5 522.9 1383 523.6 1384.1 524.2 1385 524.2 1386.1 523.8 1386.4 523.1 1386.6 522.7 1386.6 522.7 1386.8 522.3L1389.4 507.6 1398.6 501.4 1399.5 512.5 1390 523.9C1389.1 524.8 1389.3 526.2 1389.9 526.9 1391 527.5 1392.2 527.6 1392.7 526.5L1399.8 518.4 1401 529.7 1379.9 554.1C1379.2 554.7 1379.4 556.1 1379.9 556.8 1381 557.3 1382.3 557.5 1383.2 556.6L1401.3 535.6 1402.2 549.3 1394.3 558.4C1393.4 559.3 1393.6 560.7 1394.7 561.2 1395.2 561.9 1396.5 562.1 1397.4 561.2L1402.6 554.9 1403.5 565C1403.5 565.9 1404.4 566.8 1405.7 567 1406.2 566.8 1406.9 566.2 1407.3 565.5 1407.3 565.5 1407.4 565.2 1407.6 564.8L1406.7 554.6 1413.1 559.9C1413.6 560.6 1415.1 560.4 1415.8 559.9 1415.9 559.5 1415.9 559.5 1415.9 559.5 1416.5 558.4 1416.1 557.3 1415.4 557L1406.3 549.1 1405 535.1 1426.4 553.4C1427.5 554 1428.4 553.9 1429.3 553 1429.3 553 1429.4 552.7 1429.4 552.7 1429.8 552 1429.8 551.1 1428.9 550.2L1404.8 529.2 1403.9 518.2 1412 525.2C1413.1 525.7 1414.4 525.9 1414.9 524.8 1415.3 525 1415.4 524.6 1415.4 524.6 1415.8 523.9 1415.4 522.8 1414.9 522.1L1403.5 512.6 1402.8 501.2 1412.8 506 1417.7 519.9C1418.1 521 1419.5 521.7 1420.6 521.3 1421.3 520.8 1421.8 519.7 1421.8 518.8L1417.9 508.5 1428.3 513.5 1438.8 543.4C1439.2 544.5 1440.2 545 1441.3 544.6 1442.4 544.3 1442.9 543.2 1442.5 542.1L1433.4 515.9 1446 522 1449.9 533.2C1450.3 534.3 1451.4 534.8 1452.4 534.5S1454 533 1453.6 531.9L1451 524.5 1460 528.8C1461.1 529.3 1462.2 528.9 1462.7 527.9 1463.2 526.8 1462.9 525.7 1461.8 525.2L1452.8 520.9 1460.4 517.9C1461 517.7 1461.5 517.5 1461.7 517.1 1461.8 516.8 1461.8 515.9 1461.6 515.4 1461.3 514.3 1460.2 513.8 1459.1 514.1L1447.7 518.4 1435.1 512.3 1461.5 502.8C1462 502.7 1462.5 502.5 1462.7 502.1 1462.9 501.7 1462.9 500.9 1462.7 500.3 1462.3 499.2 1461.2 498.7 1460.2 499.1L1430.1 509.9 1419.6 504.9 1430.1 501.5C1430.7 501.3 1431 500.6 1431.2 500.2 1431.4 499.9 1431.5 499.5 1431.3 499 1431 497.9 1429.5 497.2 1428.8 497.8L1414.6 502.4 1404.5 497.6 1413.9 491 1428.4 494C1429.3 494 1430.4 493.6 1430.7 492.9 1430.9 492.5 1430.9 492.5 1430.5 492.4 1431.1 491.3 1430.3 490 1429.1 489.9L1418.5 487.9 1427.9 481.3 1459.5 487.7C1460.3 487.6 1461.1 487.1 1461.4 486.4 1461.6 486 1461.6 486 1461.6 486 1461.7 484.8 1461.4 483.7 1460.1 483.5L1432.5 478.2 1444.2 470.5 1456 472.7C1457.3 472.8 1458 472.3 1458.3 471.6 1458.3 471.6 1458.5 471.2 1458.5 471.2 1458.7 470 1457.8 469.1 1457 468.7L1448.8 467.4 1457.3 461.8C1457.5 461.4 1457.6 461 1457.8 460.7 1458 460.3 1458 459.4 1457.8 458.9 1456.9 458 1455.8 457.5 1454.9 458.4L1446.4 464.1 1448.1 456C1448.2 454.7 1447.3 453.8 1446.6 453.5 1445.4 453.3 1444.5 454.2 1444 455.3L1441.8 467.2 1430.5 475 1435.6 447.8C1435.8 446.5 1435 445.3 1434.2 445.3 1432.9 445.1 1431.8 445.5 1431.7 446.7Z" fill="rgba(66, 68, 90, 1)"></path></g><defs><mask id="SvgjsMask1070"><rect width="1440" height="564" fill="#ffffff"></rect></mask><filter id="SvgjsFilter1071"><feGaussianBlur stdDeviation="1"></feGaussianBlur></filter></defs></svg>