<svg xmlns="http://www.w3.org/2000/svg" version="1.1" xmlns:xlink="http://www.w3.org/1999/xlink" xmlns:svgjs="http://svgjs.dev/svgjs" width="1440" height="622" preserveAspectRatio="none" viewBox="0 0 1440 622"><g mask="url(&quot;#SvgjsMask1064&quot;)" fill="none"><rect width="1440" height="622" x="0" y="0" fill="rgba(0, 191, 166, 1)"></rect><path d="M145.07 233.25L145.07 236.05L154.21 236.05L154.21 233.25zM149.26 234.65 a4.95 4.95 0 1 0 9.9 0 a4.95 4.95 0 1 0 -9.9 0zM141.54 253.79L140.47 256.37L149.77 260.22L150.84 257.64zM145.36 258.93 a4.95 4.95 0 1 0 9.9 0 a4.95 4.95 0 1 0 -9.9 0zM130.42 271.41L128.45 273.38L142.52 287.46L144.5 285.49zM138.56 286.47 a4.95 4.95 0 1 0 9.9 0 a4.95 4.95 0 1 0 -9.9 0zM113.41 283.43L110.83 284.5L114.43 293.2L117.01 292.13zM110.77 292.66 a4.95 4.95 0 1 0 9.9 0 a4.95 4.95 0 1 0 -9.9 0zM93.09 288.03L90.29 288.03L90.29 310.65L93.09 310.65zM86.74 310.65 a4.95 4.95 0 1 0 9.9 0 a4.95 4.95 0 1 0 -9.9 0zM72.56 284.5L69.97 283.43L66.74 291.24L69.32 292.31zM63.08 291.77 a4.95 4.95 0 1 0 9.9 0 a4.95 4.95 0 1 0 -9.9 0zM54.94 273.38L52.96 271.41L35.09 289.28L37.07 291.25zM31.13 290.26 a4.95 4.95 0 1 0 9.9 0 a4.95 4.95 0 1 0 -9.9 0zM42.91 256.37L41.84 253.79L18.53 263.44L19.6 266.03zM14.12 264.73 a4.95 4.95 0 1 0 9.9 0 a4.95 4.95 0 1 0 -9.9 0zM38.31 236.05L38.31 233.25L13.86 233.25L13.86 236.05zM8.91 234.65 a4.95 4.95 0 1 0 9.9 0 a4.95 4.95 0 1 0 -9.9 0zM41.84 215.52L42.91 212.93L35.09 209.69L34.02 212.28zM29.6 210.98 a4.95 4.95 0 1 0 9.9 0 a4.95 4.95 0 1 0 -9.9 0zM52.96 197.9L54.94 195.92L39.44 180.42L37.46 182.4zM33.5 181.41 a4.95 4.95 0 1 0 9.9 0 a4.95 4.95 0 1 0 -9.9 0zM69.97 185.87L72.56 184.8L67.58 172.8L65 173.87zM61.34 173.34 a4.95 4.95 0 1 0 9.9 0 a4.95 4.95 0 1 0 -9.9 0zM90.29 181.28L93.09 181.28L93.09 159.09L90.29 159.09zM86.74 159.09 a4.95 4.95 0 1 0 9.9 0 a4.95 4.95 0 1 0 -9.9 0zM110.83 184.8L113.41 185.87L118.25 174.19L115.67 173.12zM112.01 173.65 a4.95 4.95 0 1 0 9.9 0 a4.95 4.95 0 1 0 -9.9 0zM128.45 195.92L130.42 197.9L139.78 188.54L137.8 186.57zM133.84 187.55 a4.95 4.95 0 1 0 9.9 0 a4.95 4.95 0 1 0 -9.9 0zM140.47 212.93L141.54 215.52L155.4 209.78L154.33 207.19zM149.91 208.49 a4.95 4.95 0 1 0 9.9 0 a4.95 4.95 0 1 0 -9.9 0zM38.29 234.65 a53.4 53.4 0 1 0 106.8 0 a53.4 53.4 0 1 0 -106.8 0z" fill="rgba(255, 255, 255, 1)"></path><path d="M84.92 181.69 A52.3952 52.3952 0 0 1 140.99 255.17M140.99 255.17 A106.7904 106.7904 0 0 0 84.92 181.69" fill="#cccccc" fill-rule="nonzero"></path><path d="M116.34 243.19 a10.68 10.68 0 1 0 21.36 0 a10.68 10.68 0 1 0 -21.36 0zM78.15 245.95 a10.68 10.68 0 1 0 21.36 0 a10.68 10.68 0 1 0 -21.36 0zM136.97 215.88 a2.14 2.14 0 1 0 4.28 0 a2.14 2.14 0 1 0 -4.28 0zM81.31 209.73 a10.68 10.68 0 1 0 21.36 0 a10.68 10.68 0 1 0 -21.36 0zM72.36 281.72 a3.74 3.74 0 1 0 7.48 0 a3.74 3.74 0 1 0 -7.48 0zM90.92 283.57 a3.2 3.2 0 1 0 6.4 0 a3.2 3.2 0 1 0 -6.4 0zM66.94 203.87 a2.14 2.14 0 1 0 4.28 0 a2.14 2.14 0 1 0 -4.28 0zM109.03 272.12 a8.01 8.01 0 1 0 16.02 0 a8.01 8.01 0 1 0 -16.02 0zM44.23 238.54 a10.68 10.68 0 1 0 21.36 0 a10.68 10.68 0 1 0 -21.36 0zM97.2 185.9 a3.74 3.74 0 1 0 7.48 0 a3.74 3.74 0 1 0 -7.48 0z" fill="#cccccc" fill-rule="nonzero"></path><path d="M1023.56 432.98L1023.56 436.71L1039.54 436.71L1039.54 432.98zM1032.94 434.84 a6.6 6.6 0 1 0 13.2 0 a6.6 6.6 0 1 0 -13.2 0zM1018.86 460.36L1017.43 463.8L1035.41 471.25L1036.84 467.8zM1029.53 469.52 a6.6 6.6 0 1 0 13.2 0 a6.6 6.6 0 1 0 -13.2 0zM1004.04 483.85L1001.4 486.48L1009.29 494.37L1011.92 491.73zM1004 493.05 a6.6 6.6 0 1 0 13.2 0 a6.6 6.6 0 1 0 -13.2 0zM981.35 499.88L977.91 501.31L988.25 526.27L991.69 524.84zM983.37 525.56 a6.6 6.6 0 1 0 13.2 0 a6.6 6.6 0 1 0 -13.2 0zM954.26 506.01L950.53 506.01L950.53 538.5L954.26 538.5zM945.79 538.5 a6.6 6.6 0 1 0 13.2 0 a6.6 6.6 0 1 0 -13.2 0zM926.88 501.31L923.44 499.88L914.67 521.05L918.11 522.47zM909.79 521.76 a6.6 6.6 0 1 0 13.2 0 a6.6 6.6 0 1 0 -13.2 0zM903.39 486.48L900.75 483.85L880.32 504.28L882.95 506.92zM875.04 505.6 a6.6 6.6 0 1 0 13.2 0 a6.6 6.6 0 1 0 -13.2 0zM887.36 463.8L885.93 460.36L869.72 467.07L871.14 470.52zM863.83 468.79 a6.6 6.6 0 1 0 13.2 0 a6.6 6.6 0 1 0 -13.2 0zM881.23 436.71L881.23 432.98L866.02 432.98L866.02 436.71zM859.42 434.84 a6.6 6.6 0 1 0 13.2 0 a6.6 6.6 0 1 0 -13.2 0zM885.93 409.33L887.36 405.89L860.21 394.64L858.79 398.09zM852.9 396.36 a6.6 6.6 0 1 0 13.2 0 a6.6 6.6 0 1 0 -13.2 0zM900.75 385.84L903.39 383.2L880 359.81L877.36 362.44zM872.08 361.13 a6.6 6.6 0 1 0 13.2 0 a6.6 6.6 0 1 0 -13.2 0zM923.44 369.8L926.88 368.38L920.51 352.99L917.06 354.41zM912.18 353.7 a6.6 6.6 0 1 0 13.2 0 a6.6 6.6 0 1 0 -13.2 0zM950.53 363.67L954.26 363.67L954.26 336.92L950.53 336.92zM945.79 336.92 a6.6 6.6 0 1 0 13.2 0 a6.6 6.6 0 1 0 -13.2 0zM977.91 368.38L981.35 369.8L988.84 351.73L985.39 350.31zM980.52 351.02 a6.6 6.6 0 1 0 13.2 0 a6.6 6.6 0 1 0 -13.2 0zM1001.4 383.2L1004.04 385.84L1014.06 375.81L1011.43 373.17zM1006.15 374.49 a6.6 6.6 0 1 0 13.2 0 a6.6 6.6 0 1 0 -13.2 0zM1017.43 405.89L1018.86 409.33L1046.71 397.79L1045.29 394.35zM1039.4 396.07 a6.6 6.6 0 1 0 13.2 0 a6.6 6.6 0 1 0 -13.2 0zM881.2 434.84 a71.19 71.19 0 1 0 142.38 0 a71.19 71.19 0 1 0 -142.38 0z" fill="rgba(255, 255, 255, 1)"></path><path d="M921 498.74 A70.1936 70.1936 0 0 1 912.64 375.79M912.64 375.79 A142.3872 142.3872 0 0 0 921 498.74" fill="#cccccc" fill-rule="nonzero"></path><path d="M925.9 461.38 a14.24 14.24 0 1 0 28.48 0 a14.24 14.24 0 1 0 -28.48 0zM913.82 394.75 a14.24 14.24 0 1 0 28.48 0 a14.24 14.24 0 1 0 -28.48 0zM884.67 423.03 a12.81 12.81 0 1 0 25.62 0 a12.81 12.81 0 1 0 -25.62 0zM949.62 491.25 a3.56 3.56 0 1 0 7.12 0 a3.56 3.56 0 1 0 -7.12 0zM894.95 468.24 a8.54 8.54 0 1 0 17.08 0 a8.54 8.54 0 1 0 -17.08 0zM927.34 496.06 a4.27 4.27 0 1 0 8.54 0 a4.27 4.27 0 1 0 -8.54 0zM968.68 468.19 a12.81 12.81 0 1 0 25.62 0 a12.81 12.81 0 1 0 -25.62 0zM961.05 381.67 a13.53 13.53 0 1 0 27.06 0 a13.53 13.53 0 1 0 -27.06 0zM977.48 435.73 a4.98 4.98 0 1 0 9.96 0 a4.98 4.98 0 1 0 -9.96 0zM1017.76 431.73 a2.85 2.85 0 1 0 5.7 0 a2.85 2.85 0 1 0 -5.7 0z" fill="#cccccc" fill-rule="nonzero"></path><path d="M529.99 101.86L529.99 105.12L555.16 105.12L555.16 101.86zM549.38 103.49 a5.78 5.78 0 1 0 11.56 0 a5.78 5.78 0 1 0 -11.56 0zM525.87 125.82L524.63 128.83L540.19 135.28L541.44 132.26zM535.04 133.77 a5.78 5.78 0 1 0 11.56 0 a5.78 5.78 0 1 0 -11.56 0zM512.9 146.37L510.6 148.68L524.3 162.38L526.61 160.08zM519.68 161.23 a5.78 5.78 0 1 0 11.56 0 a5.78 5.78 0 1 0 -11.56 0zM493.06 160.4L490.04 161.65L495.2 174.09L498.21 172.84zM490.92 173.47 a5.78 5.78 0 1 0 11.56 0 a5.78 5.78 0 1 0 -11.56 0zM469.35 165.76L466.09 165.76L466.09 195.44L469.35 195.44zM461.94 195.44 a5.78 5.78 0 1 0 11.56 0 a5.78 5.78 0 1 0 -11.56 0zM445.39 161.65L442.38 160.4L431.46 186.78L434.47 188.02zM427.18 187.4 a5.78 5.78 0 1 0 11.56 0 a5.78 5.78 0 1 0 -11.56 0zM424.84 148.68L422.53 146.37L410.82 158.08L413.13 160.39zM406.19 159.23 a5.78 5.78 0 1 0 11.56 0 a5.78 5.78 0 1 0 -11.56 0zM410.81 128.83L409.56 125.82L381.83 137.3L383.07 140.32zM376.67 138.81 a5.78 5.78 0 1 0 11.56 0 a5.78 5.78 0 1 0 -11.56 0zM405.45 105.12L405.45 101.86L390.2 101.86L390.2 105.12zM384.42 103.49 a5.78 5.78 0 1 0 11.56 0 a5.78 5.78 0 1 0 -11.56 0zM409.56 81.17L410.81 78.15L389.65 69.39L388.4 72.4zM383.25 70.9 a5.78 5.78 0 1 0 11.56 0 a5.78 5.78 0 1 0 -11.56 0zM422.53 60.61L424.84 58.3L405.44 38.91L403.14 41.21zM398.51 40.06 a5.78 5.78 0 1 0 11.56 0 a5.78 5.78 0 1 0 -11.56 0zM442.38 46.58L445.39 45.33L439.62 31.38L436.6 32.63zM432.33 32.01 a5.78 5.78 0 1 0 11.56 0 a5.78 5.78 0 1 0 -11.56 0zM466.09 41.22L469.35 41.22L469.35 14.86L466.09 14.86zM461.94 14.86 a5.78 5.78 0 1 0 11.56 0 a5.78 5.78 0 1 0 -11.56 0zM490.04 45.33L493.06 46.58L500.68 28.17L497.67 26.92zM493.4 27.55 a5.78 5.78 0 1 0 11.56 0 a5.78 5.78 0 1 0 -11.56 0zM510.6 58.3L512.9 60.61L529.25 44.27L526.94 41.96zM522.31 43.12 a5.78 5.78 0 1 0 11.56 0 a5.78 5.78 0 1 0 -11.56 0zM524.63 78.15L525.87 81.17L537.41 76.39L536.17 73.37zM531.01 74.88 a5.78 5.78 0 1 0 11.56 0 a5.78 5.78 0 1 0 -11.56 0zM405.43 103.49 a62.29 62.29 0 1 0 124.58 0 a62.29 62.29 0 1 0 -124.58 0z" fill="rgba(255, 255, 255, 1)"></path><path d="M499.77 50.08 A61.294399999999996 61.294399999999996 0 0 1 498.06 157.9M498.06 157.9 A124.58879999999999 124.58879999999999 0 0 0 499.77 50.08" fill="#cccccc" fill-rule="nonzero"></path><path d="M503.67 139.57 a6.23 6.23 0 1 0 12.46 0 a6.23 6.23 0 1 0 -12.46 0zM420.88 77.13 a12.46 12.46 0 1 0 24.92 0 a12.46 12.46 0 1 0 -24.92 0zM435.07 153.68 a4.98 4.98 0 1 0 9.96 0 a4.98 4.98 0 1 0 -9.96 0zM441.5 103.86 a3.74 3.74 0 1 0 7.48 0 a3.74 3.74 0 1 0 -7.48 0zM456.62 88.11 a10.59 10.59 0 1 0 21.18 0 a10.59 10.59 0 1 0 -21.18 0zM502.05 78.36 a10.59 10.59 0 1 0 21.18 0 a10.59 10.59 0 1 0 -21.18 0zM469.77 56.71 a10.59 10.59 0 1 0 21.18 0 a10.59 10.59 0 1 0 -21.18 0zM430.11 120.93 a3.74 3.74 0 1 0 7.48 0 a3.74 3.74 0 1 0 -7.48 0zM471.31 153.62 a9.97 9.97 0 1 0 19.94 0 a9.97 9.97 0 1 0 -19.94 0zM487.33 122.85 a4.98 4.98 0 1 0 9.96 0 a4.98 4.98 0 1 0 -9.96 0z" fill="#cccccc" fill-rule="nonzero"></path><path d="M246.05 437.6L246.05 439.93L264.01 439.93L264.01 437.6zM259.88 438.76 a4.13 4.13 0 1 0 8.26 0 a4.13 4.13 0 1 0 -8.26 0zM243.11 454.71L242.22 456.86L248.41 459.42L249.3 457.27zM244.73 458.35 a4.13 4.13 0 1 0 8.26 0 a4.13 4.13 0 1 0 -8.26 0zM233.85 469.39L232.2 471.04L247.04 485.88L248.69 484.23zM243.74 485.06 a4.13 4.13 0 1 0 8.26 0 a4.13 4.13 0 1 0 -8.26 0zM219.67 479.41L217.52 480.3L222.48 492.27L224.63 491.37zM219.42 491.82 a4.13 4.13 0 1 0 8.26 0 a4.13 4.13 0 1 0 -8.26 0zM202.74 483.24L200.41 483.24L200.41 503.15L202.74 503.15zM197.44 503.15 a4.13 4.13 0 1 0 8.26 0 a4.13 4.13 0 1 0 -8.26 0zM185.63 480.3L183.48 479.41L175.36 499.01L177.51 499.9zM172.3 499.45 a4.13 4.13 0 1 0 8.26 0 a4.13 4.13 0 1 0 -8.26 0zM170.94 471.04L169.3 469.39L157.84 480.85L159.49 482.49zM154.54 481.67 a4.13 4.13 0 1 0 8.26 0 a4.13 4.13 0 1 0 -8.26 0zM160.92 456.86L160.03 454.71L148.67 459.41L149.56 461.57zM144.99 460.49 a4.13 4.13 0 1 0 8.26 0 a4.13 4.13 0 1 0 -8.26 0zM157.09 439.93L157.09 437.6L142.2 437.6L142.2 439.93zM138.07 438.76 a4.13 4.13 0 1 0 8.26 0 a4.13 4.13 0 1 0 -8.26 0zM160.03 422.81L160.92 420.66L151.48 416.75L150.59 418.9zM146.91 417.83 a4.13 4.13 0 1 0 8.26 0 a4.13 4.13 0 1 0 -8.26 0zM169.3 408.13L170.94 406.48L161.76 397.3L160.11 398.95zM156.81 398.12 a4.13 4.13 0 1 0 8.26 0 a4.13 4.13 0 1 0 -8.26 0zM183.48 398.11L185.63 397.22L182.57 389.84L180.42 390.73zM177.36 390.28 a4.13 4.13 0 1 0 8.26 0 a4.13 4.13 0 1 0 -8.26 0zM200.41 394.28L202.74 394.28L202.74 372.94L200.41 372.94zM197.44 372.94 a4.13 4.13 0 1 0 8.26 0 a4.13 4.13 0 1 0 -8.26 0zM217.52 397.22L219.67 398.11L226.19 382.39L224.03 381.5zM220.98 381.94 a4.13 4.13 0 1 0 8.26 0 a4.13 4.13 0 1 0 -8.26 0zM232.2 406.48L233.85 408.13L248.64 393.34L247 391.69zM243.69 392.52 a4.13 4.13 0 1 0 8.26 0 a4.13 4.13 0 1 0 -8.26 0zM242.22 420.66L243.11 422.81L251.92 419.17L251.03 417.02zM247.34 418.09 a4.13 4.13 0 1 0 8.26 0 a4.13 4.13 0 1 0 -8.26 0zM157.07 438.76 a44.5 44.5 0 1 0 89 0 a44.5 44.5 0 1 0 -89 0z" fill="rgba(255, 255, 255, 1)"></path><path d="M163.75 462.2 A43.496 43.496 0 0 1 200.09 394.29M200.09 394.29 A88.992 88.992 0 0 0 163.75 462.2" fill="#cccccc" fill-rule="nonzero"></path><path d="M204.5 435.85 a8.9 8.9 0 1 0 17.8 0 a8.9 8.9 0 1 0 -17.8 0zM216.91 412.75 a8.01 8.01 0 1 0 16.02 0 a8.01 8.01 0 1 0 -16.02 0zM159.11 427.28 a4 4 0 1 0 8 0 a4 4 0 1 0 -8 0zM221.25 466.63 a6.23 6.23 0 1 0 12.46 0 a6.23 6.23 0 1 0 -12.46 0zM179.29 423.25 a8.9 8.9 0 1 0 17.8 0 a8.9 8.9 0 1 0 -17.8 0zM231.33 432.43 a4.45 4.45 0 1 0 8.9 0 a4.45 4.45 0 1 0 -8.9 0zM191.78 480.7 a1.78 1.78 0 1 0 3.56 0 a1.78 1.78 0 1 0 -3.56 0zM209.91 476.52 a2.67 2.67 0 1 0 5.34 0 a2.67 2.67 0 1 0 -5.34 0zM195.29 397.99 a3.56 3.56 0 1 0 7.12 0 a3.56 3.56 0 1 0 -7.12 0zM177.19 474.51 a2.22 2.22 0 1 0 4.44 0 a2.22 2.22 0 1 0 -4.44 0z" fill="#cccccc" fill-rule="nonzero"></path><path d="M949.58 62.99L949.58 64.85L961.23 64.85L961.23 62.99zM957.93 63.92 a3.3 3.3 0 1 0 6.6 0 a3.3 3.3 0 1 0 -6.6 0zM947.22 76.68L946.51 78.4L958.98 83.57L959.7 81.85zM956.04 82.71 a3.3 3.3 0 1 0 6.6 0 a3.3 3.3 0 1 0 -6.6 0zM939.81 88.43L938.49 89.74L947.38 98.62L948.69 97.31zM944.73 97.97 a3.3 3.3 0 1 0 6.6 0 a3.3 3.3 0 1 0 -6.6 0zM928.47 96.44L926.75 97.15L932.61 111.3L934.33 110.59zM930.17 110.94 a3.3 3.3 0 1 0 6.6 0 a3.3 3.3 0 1 0 -6.6 0zM914.92 99.51L913.06 99.51L913.06 112.98L914.92 112.98zM910.69 112.98 a3.3 3.3 0 1 0 6.6 0 a3.3 3.3 0 1 0 -6.6 0zM901.23 97.15L899.51 96.44L894 109.75L895.72 110.47zM891.56 110.11 a3.3 3.3 0 1 0 6.6 0 a3.3 3.3 0 1 0 -6.6 0zM889.49 89.74L888.17 88.43L882.03 94.57L883.34 95.89zM879.38 95.23 a3.3 3.3 0 1 0 6.6 0 a3.3 3.3 0 1 0 -6.6 0zM881.47 78.4L880.76 76.68L868.68 81.68L869.4 83.4zM865.74 82.54 a3.3 3.3 0 1 0 6.6 0 a3.3 3.3 0 1 0 -6.6 0zM878.41 64.85L878.41 62.99L866.77 62.99L866.77 64.85zM863.47 63.92 a3.3 3.3 0 1 0 6.6 0 a3.3 3.3 0 1 0 -6.6 0zM880.76 51.17L881.47 49.44L866.14 43.09L865.42 44.81zM862.48 43.95 a3.3 3.3 0 1 0 6.6 0 a3.3 3.3 0 1 0 -6.6 0zM888.17 39.42L889.49 38.1L878.9 27.51L877.58 28.83zM874.94 28.17 a3.3 3.3 0 1 0 6.6 0 a3.3 3.3 0 1 0 -6.6 0zM899.51 31.4L901.23 30.69L895.2 16.12L893.48 16.83zM891.04 16.48 a3.3 3.3 0 1 0 6.6 0 a3.3 3.3 0 1 0 -6.6 0zM913.06 28.34L914.92 28.34L914.92 11.06L913.06 11.06zM910.69 11.06 a3.3 3.3 0 1 0 6.6 0 a3.3 3.3 0 1 0 -6.6 0zM926.75 30.69L928.47 31.4L931.84 23.27L930.12 22.56zM927.68 22.92 a3.3 3.3 0 1 0 6.6 0 a3.3 3.3 0 1 0 -6.6 0zM938.49 38.1L939.81 39.42L947.39 31.85L946.07 30.53zM943.43 31.19 a3.3 3.3 0 1 0 6.6 0 a3.3 3.3 0 1 0 -6.6 0zM946.51 49.44L947.22 51.17L962.12 45L961.4 43.27zM958.46 44.14 a3.3 3.3 0 1 0 6.6 0 a3.3 3.3 0 1 0 -6.6 0zM878.39 63.92 a35.6 35.6 0 1 0 71.2 0 a35.6 35.6 0 1 0 -71.2 0z" fill="rgba(255, 255, 255, 1)"></path><path d="M949.49 66.57 A34.5968 34.5968 0 0 1 894.01 93.38M894.01 93.38 A71.1936 71.1936 0 0 0 949.49 66.57" fill="#cccccc" fill-rule="nonzero"></path><path d="M935.23 79.18 a4.98 4.98 0 1 0 9.96 0 a4.98 4.98 0 1 0 -9.96 0zM892.46 74.12 a7.12 7.12 0 1 0 14.24 0 a7.12 7.12 0 1 0 -14.24 0zM930.21 58.52 a7.12 7.12 0 1 0 14.24 0 a7.12 7.12 0 1 0 -14.24 0zM902.58 35.75 a6.76 6.76 0 1 0 13.52 0 a6.76 6.76 0 1 0 -13.52 0zM879.53 55.58 a3.92 3.92 0 1 0 7.84 0 a3.92 3.92 0 1 0 -7.84 0zM898.73 58.16 a1.42 1.42 0 1 0 2.84 0 a1.42 1.42 0 1 0 -2.84 0zM888.14 40.83 a2.85 2.85 0 1 0 5.7 0 a2.85 2.85 0 1 0 -5.7 0zM924.91 86.76 a2.49 2.49 0 1 0 4.98 0 a2.49 2.49 0 1 0 -4.98 0zM923.73 47.48 a1.78 1.78 0 1 0 3.56 0 a1.78 1.78 0 1 0 -3.56 0zM896.04 89.75 a1.42 1.42 0 1 0 2.84 0 a1.42 1.42 0 1 0 -2.84 0z" fill="#cccccc" fill-rule="nonzero"></path><path d="M1210.95 536.74L1210.95 538.61L1225.41 538.61L1225.41 536.74zM1222.11 537.67 a3.3 3.3 0 1 0 6.6 0 a3.3 3.3 0 1 0 -6.6 0zM1208.6 550.43L1207.89 552.15L1222.02 558.01L1222.74 556.29zM1219.08 557.15 a3.3 3.3 0 1 0 6.6 0 a3.3 3.3 0 1 0 -6.6 0zM1201.19 562.18L1199.87 563.49L1206.16 569.78L1207.47 568.46zM1203.52 569.12 a3.3 3.3 0 1 0 6.6 0 a3.3 3.3 0 1 0 -6.6 0zM1189.85 570.19L1188.12 570.91L1190.14 575.78L1191.87 575.07zM1187.71 575.43 a3.3 3.3 0 1 0 6.6 0 a3.3 3.3 0 1 0 -6.6 0zM1176.3 573.26L1174.44 573.26L1174.44 589.04L1176.3 589.04zM1172.07 589.04 a3.3 3.3 0 1 0 6.6 0 a3.3 3.3 0 1 0 -6.6 0zM1162.61 570.91L1160.89 570.19L1156.09 581.77L1157.82 582.48zM1153.65 582.13 a3.3 3.3 0 1 0 6.6 0 a3.3 3.3 0 1 0 -6.6 0zM1150.86 563.49L1149.55 562.18L1145.69 566.04L1147 567.36zM1143.04 566.7 a3.3 3.3 0 1 0 6.6 0 a3.3 3.3 0 1 0 -6.6 0zM1142.85 552.15L1142.13 550.43L1131.51 554.83L1132.22 556.55zM1128.57 555.69 a3.3 3.3 0 1 0 6.6 0 a3.3 3.3 0 1 0 -6.6 0zM1139.78 538.61L1139.78 536.74L1123.86 536.74L1123.86 538.61zM1120.56 537.67 a3.3 3.3 0 1 0 6.6 0 a3.3 3.3 0 1 0 -6.6 0zM1142.13 524.92L1142.85 523.2L1131.45 518.47L1130.73 520.19zM1127.79 519.33 a3.3 3.3 0 1 0 6.6 0 a3.3 3.3 0 1 0 -6.6 0zM1149.55 513.17L1150.86 511.85L1145.65 506.63L1144.33 507.95zM1141.69 507.29 a3.3 3.3 0 1 0 6.6 0 a3.3 3.3 0 1 0 -6.6 0zM1160.89 505.15L1162.61 504.44L1156.69 490.15L1154.97 490.86zM1152.53 490.51 a3.3 3.3 0 1 0 6.6 0 a3.3 3.3 0 1 0 -6.6 0zM1174.44 502.09L1176.3 502.09L1176.3 487.7L1174.44 487.7zM1172.07 487.7 a3.3 3.3 0 1 0 6.6 0 a3.3 3.3 0 1 0 -6.6 0zM1188.12 504.44L1189.85 505.15L1195.73 490.95L1194.01 490.23zM1191.57 490.59 a3.3 3.3 0 1 0 6.6 0 a3.3 3.3 0 1 0 -6.6 0zM1199.87 511.85L1201.19 513.17L1208.46 505.89L1207.15 504.58zM1204.51 505.24 a3.3 3.3 0 1 0 6.6 0 a3.3 3.3 0 1 0 -6.6 0zM1207.89 523.2L1208.6 524.92L1223.34 518.81L1222.63 517.09zM1219.69 517.95 a3.3 3.3 0 1 0 6.6 0 a3.3 3.3 0 1 0 -6.6 0zM1139.77 537.67 a35.6 35.6 0 1 0 71.2 0 a35.6 35.6 0 1 0 -71.2 0z" fill="rgba(255, 255, 255, 1)"></path><path d="M1156.36 567.77 A34.5968 34.5968 0 0 1 1158.74 506.2M1158.74 506.2 A71.1936 71.1936 0 0 0 1156.36 567.77" fill="#cccccc" fill-rule="nonzero"></path><path d="M1152.98 550.46 a7.12 7.12 0 1 0 14.24 0 a7.12 7.12 0 1 0 -14.24 0zM1148.13 527.29 a7.12 7.12 0 1 0 14.24 0 a7.12 7.12 0 1 0 -14.24 0zM1162.38 507.34 a3.56 3.56 0 1 0 7.12 0 a3.56 3.56 0 1 0 -7.12 0zM1185.19 565.63 a4.27 4.27 0 1 0 8.54 0 a4.27 4.27 0 1 0 -8.54 0zM1169.59 524.84 a5.7 5.7 0 1 0 11.4 0 a5.7 5.7 0 1 0 -11.4 0zM1185.4 505.77 a1.42 1.42 0 1 0 2.84 0 a1.42 1.42 0 1 0 -2.84 0zM1188.5 551.69 a2.49 2.49 0 1 0 4.98 0 a2.49 2.49 0 1 0 -4.98 0zM1186.56 517.71 a1.42 1.42 0 1 0 2.84 0 a1.42 1.42 0 1 0 -2.84 0zM1200.28 524.95 a3.92 3.92 0 1 0 7.84 0 a3.92 3.92 0 1 0 -7.84 0zM1178.44 539.29 a2.49 2.49 0 1 0 4.98 0 a2.49 2.49 0 1 0 -4.98 0z" fill="#cccccc" fill-rule="nonzero"></path><path d="M579.38 427.16L579.38 430.88L596.56 430.88L596.56 427.16zM589.96 429.02 a6.6 6.6 0 1 0 13.2 0 a6.6 6.6 0 1 0 -13.2 0zM574.67 454.53L573.25 457.98L603.51 470.51L604.94 467.07zM597.63 468.79 a6.6 6.6 0 1 0 13.2 0 a6.6 6.6 0 1 0 -13.2 0zM559.85 478.03L557.22 480.66L565.45 488.9L568.09 486.26zM560.17 487.58 a6.6 6.6 0 1 0 13.2 0 a6.6 6.6 0 1 0 -13.2 0zM537.17 494.06L533.72 495.48L545.02 522.75L548.46 521.32zM540.14 522.04 a6.6 6.6 0 1 0 13.2 0 a6.6 6.6 0 1 0 -13.2 0zM510.07 500.19L506.35 500.19L506.35 533.19L510.07 533.19zM501.61 533.19 a6.6 6.6 0 1 0 13.2 0 a6.6 6.6 0 1 0 -13.2 0zM482.7 495.48L479.25 494.06L465.97 526.12L469.42 527.54zM461.1 526.83 a6.6 6.6 0 1 0 13.2 0 a6.6 6.6 0 1 0 -13.2 0zM459.2 480.66L456.57 478.03L445.11 489.48L447.75 492.12zM439.83 490.8 a6.6 6.6 0 1 0 13.2 0 a6.6 6.6 0 1 0 -13.2 0zM443.17 457.98L441.75 454.53L424.29 461.76L425.72 465.21zM418.41 463.48 a6.6 6.6 0 1 0 13.2 0 a6.6 6.6 0 1 0 -13.2 0zM437.04 430.88L437.04 427.16L412.98 427.16L412.98 430.88zM406.38 429.02 a6.6 6.6 0 1 0 13.2 0 a6.6 6.6 0 1 0 -13.2 0zM441.75 403.51L443.17 400.06L418.4 389.8L416.98 393.25zM411.09 391.52 a6.6 6.6 0 1 0 13.2 0 a6.6 6.6 0 1 0 -13.2 0zM456.57 380.01L459.2 377.38L439.86 358.03L437.22 360.67zM431.94 359.35 a6.6 6.6 0 1 0 13.2 0 a6.6 6.6 0 1 0 -13.2 0zM479.25 363.98L482.7 362.55L477.18 349.24L473.74 350.67zM468.86 349.95 a6.6 6.6 0 1 0 13.2 0 a6.6 6.6 0 1 0 -13.2 0zM506.35 357.85L510.07 357.85L510.07 343.36L506.35 343.36zM501.61 343.36 a6.6 6.6 0 1 0 13.2 0 a6.6 6.6 0 1 0 -13.2 0zM533.72 362.55L537.17 363.98L546.22 342.12L542.78 340.7zM537.9 341.41 a6.6 6.6 0 1 0 13.2 0 a6.6 6.6 0 1 0 -13.2 0zM557.22 377.38L559.85 380.01L573.33 366.54L570.69 363.9zM565.41 365.22 a6.6 6.6 0 1 0 13.2 0 a6.6 6.6 0 1 0 -13.2 0zM573.25 400.06L574.67 403.51L598.13 393.79L596.71 390.35zM590.82 392.07 a6.6 6.6 0 1 0 13.2 0 a6.6 6.6 0 1 0 -13.2 0zM437.02 429.02 a71.19 71.19 0 1 0 142.38 0 a71.19 71.19 0 1 0 -142.38 0z" fill="rgba(255, 255, 255, 1)"></path><path d="M577.7 444.51 A70.1936 70.1936 0 0 1 460.16 481.55M460.16 481.55 A142.3872 142.3872 0 0 0 577.7 444.51" fill="#cccccc" fill-rule="nonzero"></path><path d="M490.69 436.5 a14.24 14.24 0 1 0 28.48 0 a14.24 14.24 0 1 0 -28.48 0zM476.86 469.51 a9.26 9.26 0 1 0 18.52 0 a9.26 9.26 0 1 0 -18.52 0zM557.09 459.84 a7.12 7.12 0 1 0 14.24 0 a7.12 7.12 0 1 0 -14.24 0zM506.84 401.5 a7.12 7.12 0 1 0 14.24 0 a7.12 7.12 0 1 0 -14.24 0zM439.89 443.47 a14.24 14.24 0 1 0 28.48 0 a14.24 14.24 0 1 0 -28.48 0zM449.21 391.38 a5.7 5.7 0 1 0 11.4 0 a5.7 5.7 0 1 0 -11.4 0zM504.38 363.27 a4.98 4.98 0 1 0 9.96 0 a4.98 4.98 0 1 0 -9.96 0zM474.36 397.6 a6.41 6.41 0 1 0 12.82 0 a6.41 6.41 0 1 0 -12.82 0zM545.45 481.37 a4.27 4.27 0 1 0 8.54 0 a4.27 4.27 0 1 0 -8.54 0zM536.59 376.27 a7.12 7.12 0 1 0 14.24 0 a7.12 7.12 0 1 0 -14.24 0z" fill="#cccccc" fill-rule="nonzero"></path><path d="M1369.27 198.32L1369.27 202.05L1392.55 202.05L1392.55 198.32zM1385.95 200.18 a6.6 6.6 0 1 0 13.2 0 a6.6 6.6 0 1 0 -13.2 0zM1364.56 225.7L1363.14 229.14L1382.63 237.21L1384.06 233.77zM1376.74 235.49 a6.6 6.6 0 1 0 13.2 0 a6.6 6.6 0 1 0 -13.2 0zM1349.74 249.19L1347.1 251.82L1371.7 276.42L1374.33 273.78zM1366.41 275.1 a6.6 6.6 0 1 0 13.2 0 a6.6 6.6 0 1 0 -13.2 0zM1327.05 265.22L1323.61 266.65L1332.51 288.13L1335.95 286.7zM1327.63 287.41 a6.6 6.6 0 1 0 13.2 0 a6.6 6.6 0 1 0 -13.2 0zM1299.96 271.35L1296.23 271.35L1296.23 280.29L1299.96 280.29zM1291.5 280.29 a6.6 6.6 0 1 0 13.2 0 a6.6 6.6 0 1 0 -13.2 0zM1272.58 266.65L1269.14 265.22L1257.08 294.34L1260.52 295.77zM1252.2 295.05 a6.6 6.6 0 1 0 13.2 0 a6.6 6.6 0 1 0 -13.2 0zM1249.09 251.82L1246.45 249.19L1224.27 271.38L1226.9 274.01zM1218.98 272.7 a6.6 6.6 0 1 0 13.2 0 a6.6 6.6 0 1 0 -13.2 0zM1233.06 229.14L1231.63 225.7L1207.03 235.89L1208.46 239.33zM1201.14 237.61 a6.6 6.6 0 1 0 13.2 0 a6.6 6.6 0 1 0 -13.2 0zM1226.93 202.05L1226.93 198.32L1201.81 198.32L1201.81 202.05zM1195.21 200.18 a6.6 6.6 0 1 0 13.2 0 a6.6 6.6 0 1 0 -13.2 0zM1231.63 174.67L1233.06 171.22L1202.85 158.71L1201.42 162.15zM1195.53 160.43 a6.6 6.6 0 1 0 13.2 0 a6.6 6.6 0 1 0 -13.2 0zM1246.45 151.18L1249.09 148.54L1241.89 141.34L1239.26 143.98zM1233.97 142.66 a6.6 6.6 0 1 0 13.2 0 a6.6 6.6 0 1 0 -13.2 0zM1269.14 135.14L1272.58 133.72L1259.7 102.62L1256.26 104.05zM1251.38 103.33 a6.6 6.6 0 1 0 13.2 0 a6.6 6.6 0 1 0 -13.2 0zM1296.23 129.01L1299.96 129.01L1299.96 113.36L1296.23 113.36zM1291.5 113.36 a6.6 6.6 0 1 0 13.2 0 a6.6 6.6 0 1 0 -13.2 0zM1323.61 133.72L1327.05 135.14L1332.88 121.07L1329.44 119.65zM1324.56 120.36 a6.6 6.6 0 1 0 13.2 0 a6.6 6.6 0 1 0 -13.2 0zM1347.1 148.54L1349.74 151.18L1373.41 127.5L1370.78 124.87zM1365.49 126.18 a6.6 6.6 0 1 0 13.2 0 a6.6 6.6 0 1 0 -13.2 0zM1363.14 171.22L1364.56 174.67L1380.33 168.14L1378.91 164.69zM1373.02 166.41 a6.6 6.6 0 1 0 13.2 0 a6.6 6.6 0 1 0 -13.2 0zM1226.91 200.18 a71.19 71.19 0 1 0 142.38 0 a71.19 71.19 0 1 0 -142.38 0z" fill="rgba(255, 255, 255, 1)"></path><path d="M1229.68 219.87 A70.1936 70.1936 0 0 1 1315.11 131.05M1315.11 131.05 A142.3872 142.3872 0 0 0 1229.68 219.87" fill="#cccccc" fill-rule="nonzero"></path><path d="M1246.26 183.13 a14.24 14.24 0 1 0 28.48 0 a14.24 14.24 0 1 0 -28.48 0zM1285.26 234.3 a14.24 14.24 0 1 0 28.48 0 a14.24 14.24 0 1 0 -28.48 0zM1300.18 188.62 a14.24 14.24 0 1 0 28.48 0 a14.24 14.24 0 1 0 -28.48 0zM1238.29 237.67 a2.85 2.85 0 1 0 5.7 0 a2.85 2.85 0 1 0 -5.7 0zM1328.5 236.51 a9.26 9.26 0 1 0 18.52 0 a9.26 9.26 0 1 0 -18.52 0zM1279.53 157.89 a9.97 9.97 0 1 0 19.94 0 a9.97 9.97 0 1 0 -19.94 0zM1262.76 214.65 a3.56 3.56 0 1 0 7.12 0 a3.56 3.56 0 1 0 -7.12 0zM1258.34 147.35 a4.27 4.27 0 1 0 8.54 0 a4.27 4.27 0 1 0 -8.54 0zM1277.12 262.3 a4.27 4.27 0 1 0 8.54 0 a4.27 4.27 0 1 0 -8.54 0zM1240.52 210.18 a2.85 2.85 0 1 0 5.7 0 a2.85 2.85 0 1 0 -5.7 0z" fill="#cccccc" fill-rule="nonzero"></path><path d="M776.98 198.47L776.98 201.26L802.94 201.26L802.94 198.47zM797.99 199.86 a4.95 4.95 0 1 0 9.9 0 a4.95 4.95 0 1 0 -9.9 0zM773.45 219L772.38 221.58L794.53 230.75L795.6 228.17zM790.11 229.46 a4.95 4.95 0 1 0 9.9 0 a4.95 4.95 0 1 0 -9.9 0zM762.33 236.62L760.36 238.6L767.98 246.22L769.96 244.24zM764.02 245.23 a4.95 4.95 0 1 0 9.9 0 a4.95 4.95 0 1 0 -9.9 0zM745.32 248.64L742.74 249.71L747.37 260.9L749.95 259.83zM743.71 260.37 a4.95 4.95 0 1 0 9.9 0 a4.95 4.95 0 1 0 -9.9 0zM725 253.24L722.2 253.24L722.2 271.88L725 271.88zM718.65 271.88 a4.95 4.95 0 1 0 9.9 0 a4.95 4.95 0 1 0 -9.9 0zM704.47 249.71L701.88 248.64L695.14 264.92L697.72 265.99zM691.48 265.46 a4.95 4.95 0 1 0 9.9 0 a4.95 4.95 0 1 0 -9.9 0zM686.85 238.6L684.87 236.62L668.39 253.1L670.36 255.08zM664.43 254.09 a4.95 4.95 0 1 0 9.9 0 a4.95 4.95 0 1 0 -9.9 0zM674.82 221.58L673.75 219L658.61 225.27L659.68 227.85zM654.2 226.56 a4.95 4.95 0 1 0 9.9 0 a4.95 4.95 0 1 0 -9.9 0zM670.23 201.26L670.23 198.47L660.51 198.47L660.51 201.26zM655.56 199.86 a4.95 4.95 0 1 0 9.9 0 a4.95 4.95 0 1 0 -9.9 0zM673.75 180.73L674.82 178.15L663.52 173.47L662.45 176.05zM658.04 174.76 a4.95 4.95 0 1 0 9.9 0 a4.95 4.95 0 1 0 -9.9 0zM684.87 163.11L686.85 161.13L676.43 150.72L674.46 152.69zM670.49 151.71 a4.95 4.95 0 1 0 9.9 0 a4.95 4.95 0 1 0 -9.9 0zM701.88 151.09L704.47 150.02L699.98 139.19L697.4 140.26zM693.74 139.72 a4.95 4.95 0 1 0 9.9 0 a4.95 4.95 0 1 0 -9.9 0zM722.2 146.49L725 146.49L725 138.25L722.2 138.25zM718.65 138.25 a4.95 4.95 0 1 0 9.9 0 a4.95 4.95 0 1 0 -9.9 0zM742.74 150.02L745.32 151.09L748.63 143.08L746.05 142.01zM742.39 142.55 a4.95 4.95 0 1 0 9.9 0 a4.95 4.95 0 1 0 -9.9 0zM760.36 161.13L762.33 163.11L768.46 156.98L766.49 155zM762.53 155.99 a4.95 4.95 0 1 0 9.9 0 a4.95 4.95 0 1 0 -9.9 0zM772.38 178.15L773.45 180.73L788.98 174.3L787.91 171.71zM783.5 173 a4.95 4.95 0 1 0 9.9 0 a4.95 4.95 0 1 0 -9.9 0zM670.2 199.86 a53.4 53.4 0 1 0 106.8 0 a53.4 53.4 0 1 0 -106.8 0z" fill="rgba(255, 255, 255, 1)"></path><path d="M773.52 218.82 A52.3952 52.3952 0 0 1 682.3 233.71M682.3 233.71 A106.7904 106.7904 0 0 0 773.52 218.82" fill="#cccccc" fill-rule="nonzero"></path><path d="M721.54 233.52 a10.68 10.68 0 1 0 21.36 0 a10.68 10.68 0 1 0 -21.36 0zM677.03 223.98 a4.27 4.27 0 1 0 8.54 0 a4.27 4.27 0 1 0 -8.54 0zM713.69 163.39 a10.68 10.68 0 1 0 21.36 0 a10.68 10.68 0 1 0 -21.36 0zM696.82 177.26 a4.81 4.81 0 1 0 9.62 0 a4.81 4.81 0 1 0 -9.62 0zM737.05 183.11 a5.34 5.34 0 1 0 10.68 0 a5.34 5.34 0 1 0 -10.68 0zM757.77 230.32 a4.27 4.27 0 1 0 8.54 0 a4.27 4.27 0 1 0 -8.54 0zM692.84 159.34 a3.2 3.2 0 1 0 6.4 0 a3.2 3.2 0 1 0 -6.4 0zM685.2 207.27 a2.67 2.67 0 1 0 5.34 0 a2.67 2.67 0 1 0 -5.34 0zM728.36 203.77 a5.87 5.87 0 1 0 11.74 0 a5.87 5.87 0 1 0 -11.74 0zM751.27 167.41 a4.27 4.27 0 1 0 8.54 0 a4.27 4.27 0 1 0 -8.54 0z" fill="#cccccc" fill-rule="nonzero"></path></g><defs><mask id="SvgjsMask1064"><rect width="1440" height="622" fill="#ffffff"></rect></mask></defs></svg>